G04*
G04 #@! TF.GenerationSoftware,Altium Limited,Altium Designer,21.2.0 (30)*
G04*
G04 Layer_Physical_Order=5*
G04 Layer_Color=128*
%FSLAX42Y42*%
%MOMM*%
G71*
G04*
G04 #@! TF.SameCoordinates,ABD0CF57-3E98-4FB8-AFFA-8217F09E1CE7*
G04*
G04*
G04 #@! TF.FilePolarity,Negative*
G04*
G01*
G75*
%ADD13C,0.25*%
%ADD150C,1.02*%
%ADD153C,1.72*%
%ADD154C,2.62*%
%ADD155C,2.82*%
%ADD156C,1.91*%
%ADD157C,4.32*%
%ADD159C,1.92*%
%ADD160O,1.87X1.67*%
%ADD163C,2.04*%
G04:AMPARAMS|DCode=165|XSize=1.824mm|YSize=1.824mm|CornerRadius=0mm|HoleSize=0mm|Usage=FLASHONLY|Rotation=0.000|XOffset=0mm|YOffset=0mm|HoleType=Round|Shape=Relief|Width=0.25mm|Gap=0.25mm|Entries=4|*
%AMTHD165*
7,0,0,1.82,1.32,0.25,45*
%
%ADD165THD165*%
%ADD166C,1.32*%
%ADD167C,1.52*%
%ADD169C,2.02*%
G04:AMPARAMS|DCode=171|XSize=2.024mm|YSize=2.024mm|CornerRadius=0mm|HoleSize=0mm|Usage=FLASHONLY|Rotation=0.000|XOffset=0mm|YOffset=0mm|HoleType=Round|Shape=Relief|Width=0.25mm|Gap=0.25mm|Entries=4|*
%AMTHD171*
7,0,0,2.02,1.52,0.25,45*
%
%ADD171THD171*%
%ADD177C,3.02*%
%ADD178C,2.59*%
%ADD179O,2.32X1.62*%
%ADD180C,1.35*%
%ADD181C,1.73*%
D13*
X330Y4026D02*
X1575D01*
X1715Y3886D01*
X1740D01*
X3048D01*
X3073Y3861D01*
Y3785D02*
Y3861D01*
X3048Y3759D02*
X3073Y3785D01*
X1943Y3759D02*
X3048D01*
X1854Y3670D02*
X1943Y3759D01*
X1854Y3213D02*
Y3670D01*
Y3213D02*
X2007Y3061D01*
X3023D01*
X3061Y3023D01*
Y2908D02*
Y3023D01*
X3035Y2883D02*
X3061Y2908D01*
X2921Y2883D02*
X3035D01*
X2807Y2769D02*
X2921Y2883D01*
X2807Y2515D02*
Y2769D01*
X2756Y2464D02*
X2807Y2515D01*
X2108Y2464D02*
X2756D01*
X1842Y2731D02*
X2108Y2464D01*
X330Y2731D02*
X1842D01*
X229Y2832D02*
X330Y2731D01*
X229Y2832D02*
Y3924D01*
D150*
X7429Y2350D02*
Y7620D01*
X0Y0D02*
Y7620D01*
Y0D02*
X7429D01*
Y1016D01*
X7277D02*
X7429D01*
X7277D02*
Y1397D01*
X7087D02*
X7277D01*
X7087Y1499D02*
X7277D01*
Y1867D01*
X7087D02*
Y1976D01*
X7277D02*
Y2353D01*
X0Y7620D02*
X7429D01*
X7087Y1397D02*
Y1499D01*
Y1867D02*
X7277D01*
X7087Y1976D02*
X7277D01*
Y2353D02*
X7426D01*
X7429Y2350D01*
D153*
X6356Y6223D02*
D03*
Y5715D02*
D03*
X6801Y6223D02*
D03*
Y5715D02*
D03*
X5588Y5489D02*
D03*
Y4981D02*
D03*
D154*
X6844Y4753D02*
D03*
D155*
X6394D02*
D03*
D156*
X656Y1007D02*
D03*
X834Y1109D02*
D03*
X656Y1211D02*
D03*
X834Y1313D02*
D03*
X656Y1415D02*
D03*
X834Y1517D02*
D03*
X656Y1619D02*
D03*
X834Y1721D02*
D03*
X1317Y906D02*
D03*
Y1820D02*
D03*
Y2049D02*
D03*
Y677D02*
D03*
D157*
X402Y1998D02*
D03*
Y728D02*
D03*
D159*
X403Y3487D02*
D03*
Y3233D02*
D03*
X2184Y5613D02*
D03*
Y5359D02*
D03*
X1930Y5613D02*
D03*
Y5359D02*
D03*
X1676Y5613D02*
D03*
Y5359D02*
D03*
X1422Y5613D02*
D03*
Y5359D02*
D03*
X1168Y5613D02*
D03*
Y5359D02*
D03*
X914Y5613D02*
D03*
Y5359D02*
D03*
X660Y5613D02*
D03*
Y5359D02*
D03*
X406Y5613D02*
D03*
Y5359D02*
D03*
X572Y7328D02*
D03*
X826D02*
D03*
X1080D02*
D03*
X1334D02*
D03*
X1956D02*
D03*
X2210D02*
D03*
X2464D02*
D03*
X2718D02*
D03*
D160*
X6837Y1908D02*
D03*
Y1463D02*
D03*
D163*
X3874Y5372D02*
D03*
X4128D02*
D03*
X4381D02*
D03*
X4635D02*
D03*
X4890D02*
D03*
X3619D02*
D03*
D165*
X5626Y1448D02*
D03*
X3124Y4648D02*
D03*
Y4737D02*
D03*
X3797Y4559D02*
D03*
X5017Y3289D02*
D03*
X5144Y4610D02*
D03*
X5321Y3823D02*
D03*
X3327Y2413D02*
D03*
X5036Y2547D02*
D03*
X2451Y3632D02*
D03*
X2353Y3446D02*
D03*
X4242Y4839D02*
D03*
X3609Y354D02*
D03*
X3987Y2413D02*
D03*
X4496Y2400D02*
D03*
X4661D02*
D03*
X4890Y4839D02*
D03*
X3683D02*
D03*
X965Y4712D02*
D03*
X2285Y4431D02*
D03*
X5715Y6756D02*
D03*
X5512Y6909D02*
D03*
X5715Y6604D02*
D03*
X2273Y4725D02*
D03*
X3429Y4890D02*
D03*
X5588Y1740D02*
D03*
X804Y4873D02*
D03*
X2870Y4229D02*
D03*
X3238Y4559D02*
D03*
X1896Y4427D02*
D03*
X5093Y2400D02*
D03*
X4089Y4839D02*
D03*
X3763Y5909D02*
D03*
X1956Y6096D02*
D03*
X2984Y4890D02*
D03*
X3454Y2286D02*
D03*
X4394Y4839D02*
D03*
X4737D02*
D03*
X4966Y76D02*
D03*
X2858Y3556D02*
D03*
Y3708D02*
D03*
X559Y6096D02*
D03*
X3806Y6938D02*
D03*
Y6461D02*
D03*
X6794Y2324D02*
D03*
X1664Y3302D02*
D03*
X673Y4877D02*
D03*
X521D02*
D03*
D166*
X4851Y1333D02*
D03*
X4802Y1575D02*
D03*
X4903Y1587D02*
D03*
X5004Y1588D02*
D03*
X3598Y2303D02*
D03*
X4394Y1981D02*
D03*
X3683Y2120D02*
D03*
X5588Y1580D02*
D03*
X6083Y1575D02*
D03*
X5009Y1885D02*
D03*
X4254Y1981D02*
D03*
X4527Y2690D02*
D03*
X4102Y2856D02*
D03*
X4752Y4510D02*
D03*
X2870Y4407D02*
D03*
X3404Y2743D02*
D03*
X3655Y3197D02*
D03*
X3518Y2756D02*
D03*
X3188Y2908D02*
D03*
X5017Y3200D02*
D03*
X4775Y2870D02*
D03*
X4407Y4547D02*
D03*
X4661Y2870D02*
D03*
X3177Y4294D02*
D03*
X4001Y2856D02*
D03*
X3940Y4550D02*
D03*
X3200Y3794D02*
D03*
X3505Y4513D02*
D03*
X2705Y4559D02*
D03*
X3670Y4470D02*
D03*
X3874Y4001D02*
D03*
X3569Y4839D02*
D03*
X4597Y2794D02*
D03*
X4600Y4511D02*
D03*
X4367Y2680D02*
D03*
X3157Y4401D02*
D03*
X3518Y4204D02*
D03*
X5042Y4826D02*
D03*
X5347Y2794D02*
D03*
X3200Y3886D02*
D03*
X4940Y4420D02*
D03*
X3226Y2413D02*
D03*
X5330Y4251D02*
D03*
X3619Y2679D02*
D03*
X4991Y3823D02*
D03*
X4445Y2743D02*
D03*
X3251Y3531D02*
D03*
X3315Y3645D02*
D03*
X3124Y3721D02*
D03*
X3772Y2794D02*
D03*
X3773Y2705D02*
D03*
X3328Y2679D02*
D03*
X3172Y3296D02*
D03*
X2476Y3531D02*
D03*
X2502Y3708D02*
D03*
X6998Y1460D02*
D03*
Y1905D02*
D03*
X4813Y76D02*
D03*
X3721Y4221D02*
D03*
X4317Y4081D02*
D03*
X4318Y3747D02*
D03*
X3683Y3404D02*
D03*
X6731Y1359D02*
D03*
X3442Y926D02*
D03*
Y852D02*
D03*
X5734Y7215D02*
D03*
X6718Y7366D02*
D03*
X4013Y1003D02*
D03*
X3778D02*
D03*
X4849Y1242D02*
D03*
X4762Y1170D02*
D03*
X3340Y940D02*
D03*
X3342Y831D02*
D03*
X4018Y1400D02*
D03*
X4483Y1105D02*
D03*
Y991D02*
D03*
X3778Y1399D02*
D03*
X3444Y1562D02*
D03*
Y1479D02*
D03*
X1346Y1664D02*
D03*
X1029Y317D02*
D03*
Y2413D02*
D03*
X1829Y2045D02*
D03*
X4978Y837D02*
D03*
X4193Y387D02*
D03*
X5384Y509D02*
D03*
X6909Y3632D02*
D03*
Y3785D02*
D03*
X4750Y1943D02*
D03*
X2007Y3975D02*
D03*
X2070Y3708D02*
D03*
X4724Y2045D02*
D03*
X4353Y2405D02*
D03*
X5512Y1308D02*
D03*
X3289Y5156D02*
D03*
X1537Y3607D02*
D03*
X1321Y3238D02*
D03*
X1511Y3302D02*
D03*
X4360Y756D02*
D03*
X2007Y4102D02*
D03*
X1321Y6134D02*
D03*
X2946Y4623D02*
D03*
X2565Y4381D02*
D03*
X1816Y4496D02*
D03*
X5791Y4394D02*
D03*
X5334Y6604D02*
D03*
Y6756D02*
D03*
X5347Y6439D02*
D03*
X6096Y6604D02*
D03*
Y6756D02*
D03*
X7061Y7074D02*
D03*
X1727Y4420D02*
D03*
X1575Y4204D02*
D03*
X1715D02*
D03*
X1753Y4736D02*
D03*
X1842Y4851D02*
D03*
X1791Y5029D02*
D03*
X5504Y1164D02*
D03*
X2591Y4648D02*
D03*
X2178Y4769D02*
D03*
X5807Y610D02*
D03*
X4547Y927D02*
D03*
Y1168D02*
D03*
X4826Y775D02*
D03*
X3895Y2409D02*
D03*
X5891Y1335D02*
D03*
X5512Y952D02*
D03*
X4788Y965D02*
D03*
X4674Y1168D02*
D03*
X3899Y1194D02*
D03*
X826Y4483D02*
D03*
X673D02*
D03*
X1092Y4394D02*
D03*
X4939Y4115D02*
D03*
X6998Y1638D02*
D03*
Y1740D02*
D03*
X4356Y6134D02*
D03*
X6668Y1156D02*
D03*
X6147Y2515D02*
D03*
X6403Y2142D02*
D03*
X6507Y1944D02*
D03*
X6083Y1778D02*
D03*
X6185Y1624D02*
D03*
X760Y6141D02*
D03*
X1014D02*
D03*
X2464Y6096D02*
D03*
X2210D02*
D03*
X4851Y6756D02*
D03*
Y6655D02*
D03*
X4585Y4839D02*
D03*
X2172Y4902D02*
D03*
X4521Y6934D02*
D03*
X1164Y4288D02*
D03*
X1297Y4253D02*
D03*
X1892Y4280D02*
D03*
X1232Y4381D02*
D03*
X2591Y4765D02*
D03*
X2591Y4896D02*
D03*
X1473Y4089D02*
D03*
X1359Y4178D02*
D03*
X5365Y1765D02*
D03*
X2807Y923D02*
D03*
X2896Y826D02*
D03*
X5245Y2400D02*
D03*
X2727Y6108D02*
D03*
X3150Y5156D02*
D03*
X3683Y5220D02*
D03*
X3124Y6172D02*
D03*
X2282Y4276D02*
D03*
X965Y4585D02*
D03*
X2172Y5029D02*
D03*
X6185Y1727D02*
D03*
X5882Y1187D02*
D03*
X6268Y1339D02*
D03*
X3342Y1568D02*
D03*
X6279Y882D02*
D03*
X6287Y1041D02*
D03*
X533Y3645D02*
D03*
X5918Y2007D02*
D03*
X6287Y1549D02*
D03*
X5524Y381D02*
D03*
X6726Y1620D02*
D03*
X6414Y1397D02*
D03*
X6580Y2373D02*
D03*
X6274Y1181D02*
D03*
X6223Y3785D02*
D03*
Y3632D02*
D03*
X3645Y470D02*
D03*
X4877Y2210D02*
D03*
X3073Y2286D02*
D03*
X5118Y76D02*
D03*
X5283D02*
D03*
X508Y1168D02*
D03*
Y1067D02*
D03*
Y1575D02*
D03*
Y1473D02*
D03*
X2807Y840D02*
D03*
X1856Y907D02*
D03*
X1869Y666D02*
D03*
X2896Y940D02*
D03*
X2898Y1466D02*
D03*
Y1568D02*
D03*
X2809Y1558D02*
D03*
Y1475D02*
D03*
X2193Y3446D02*
D03*
X3302Y5906D02*
D03*
X3273Y6519D02*
D03*
X4068Y6938D02*
D03*
Y6455D02*
D03*
X3342Y1466D02*
D03*
X4356Y601D02*
D03*
X5891Y1030D02*
D03*
X2197Y3175D02*
D03*
X4242Y5220D02*
D03*
X2197Y3327D02*
D03*
X6401Y2807D02*
D03*
Y3035D02*
D03*
X6223Y2159D02*
D03*
X5131Y6706D02*
D03*
X533Y3073D02*
D03*
X457Y3937D02*
D03*
X521Y4483D02*
D03*
D167*
X5004Y3975D02*
D03*
X5499Y3658D02*
D03*
X4940Y4321D02*
D03*
Y4218D02*
D03*
X5499Y3772D02*
D03*
X4512Y5889D02*
D03*
X6642Y3937D02*
D03*
X5644Y4145D02*
D03*
X6223Y6782D02*
D03*
X813Y4128D02*
D03*
X2553Y2946D02*
D03*
X1770Y1842D02*
D03*
X2769Y5156D02*
D03*
X991Y3835D02*
D03*
X6020Y3442D02*
D03*
Y3200D02*
D03*
X7099D02*
D03*
Y3429D02*
D03*
X991Y3467D02*
D03*
D169*
X7049Y4407D02*
D03*
X6845Y5055D02*
D03*
X6236Y5067D02*
D03*
D171*
X2451Y2767D02*
D03*
D177*
X254Y7379D02*
D03*
X7175Y254D02*
D03*
Y7366D02*
D03*
X254Y254D02*
D03*
D178*
X745Y550D02*
D03*
Y2176D02*
D03*
D179*
X7137Y1265D02*
D03*
Y2105D02*
D03*
D180*
X5133Y1040D02*
D03*
Y1160D02*
D03*
D181*
X1358Y4767D02*
D03*
X1485Y4907D02*
D03*
Y4653D02*
D03*
X1231Y4907D02*
D03*
Y4653D02*
D03*
M02*
