G04*
G04 #@! TF.GenerationSoftware,Altium Limited,Altium Designer,21.2.0 (30)*
G04*
G04 Layer_Color=8388736*
%FSLAX42Y42*%
%MOMM*%
G71*
G04*
G04 #@! TF.SameCoordinates,D999A20B-9D91-44AD-AEE9-92838A49E7E3*
G04*
G04*
G04 #@! TF.FilePolarity,Negative*
G04*
G01*
G75*
%ADD34C,1.00*%
%ADD40R,1.00X1.00*%
%ADD60R,1.00X1.00*%
%ADD62R,0.51X0.38*%
%ADD63R,0.51X0.25*%
%ADD64R,0.51X0.51*%
%ADD65R,18.03X1.65*%
%ADD66R,1.65X18.16*%
%ADD67R,1.47X0.47*%
%ADD68R,0.47X1.47*%
%ADD69R,1.52X0.76*%
%ADD70R,1.12X1.02*%
%ADD71R,1.92X2.32*%
%ADD72R,1.39X1.64*%
%ADD73R,0.81X0.40*%
%ADD74R,0.40X0.81*%
%ADD75R,2.62X2.62*%
%ADD76C,1.12*%
%ADD77R,0.57X0.62*%
%ADD78R,2.12X1.32*%
%ADD79R,1.14X2.15*%
%ADD80R,3.17X2.41*%
%ADD81R,1.02X1.12*%
%ADD82R,2.52X2.92*%
%ADD83R,2.92X1.62*%
%ADD84R,1.64X1.39*%
%ADD85R,1.22X0.72*%
%ADD86O,2.22X0.72*%
%ADD87R,0.72X1.64*%
%ADD88R,4.32X4.32*%
%ADD89O,1.07X0.42*%
%ADD90O,0.42X1.07*%
%ADD91R,0.72X1.22*%
%ADD92R,0.88X0.88*%
%ADD93R,1.92X1.27*%
%ADD94R,1.47X0.52*%
%ADD95R,2.02X3.02*%
%ADD96R,0.88X0.88*%
G04:AMPARAMS|DCode=97|XSize=0.72mm|YSize=2.27mm|CornerRadius=0.11mm|HoleSize=0mm|Usage=FLASHONLY|Rotation=180.000|XOffset=0mm|YOffset=0mm|HoleType=Round|Shape=RoundedRectangle|*
%AMROUNDEDRECTD97*
21,1,0.72,2.05,0,0,180.0*
21,1,0.50,2.27,0,0,180.0*
1,1,0.22,-0.25,1.02*
1,1,0.22,0.25,1.02*
1,1,0.22,0.25,-1.02*
1,1,0.22,-0.25,-1.02*
%
%ADD97ROUNDEDRECTD97*%
%ADD98R,2.82X1.62*%
%ADD99R,1.92X1.12*%
%ADD100R,1.02X0.92*%
%ADD101R,1.92X2.42*%
%ADD102C,3.62*%
%ADD103C,1.32*%
%ADD104C,0.12*%
%ADD105R,1.60X1.60*%
%ADD106C,1.60*%
%ADD107C,2.22*%
%ADD108R,1.62X1.62*%
%ADD109C,1.62*%
%ADD110R,1.62X1.62*%
%ADD111O,1.37X1.17*%
%ADD112R,2.02X1.52*%
%ADD113C,0.80*%
%ADD114C,0.70*%
%ADD115C,0.78*%
%ADD116C,1.50*%
%ADD117C,1.39*%
G36*
X5036Y984D02*
X5080Y940D01*
X5061Y921D01*
X5017Y965D01*
X5036Y984D01*
D02*
G37*
G36*
X5347Y978D02*
X5309Y940D01*
X5328Y921D01*
X5366Y959D01*
X5347Y978D01*
D02*
G37*
G36*
X5055Y1270D02*
X5023Y1238D01*
X5036Y1226D01*
X5067Y1257D01*
X5055Y1270D01*
D02*
G37*
G36*
X5334Y1270D02*
X5366Y1238D01*
X5353Y1226D01*
X5321Y1257D01*
X5334Y1270D01*
D02*
G37*
D34*
X5004Y3975D02*
D03*
X5499Y3658D02*
D03*
X4940Y4321D02*
D03*
Y4218D02*
D03*
X5499Y3772D02*
D03*
X4512Y5889D02*
D03*
X6642Y3937D02*
D03*
X5644Y4145D02*
D03*
X6223Y6782D02*
D03*
X813Y4128D02*
D03*
X2451Y2767D02*
D03*
X2553Y2946D02*
D03*
X1770Y1842D02*
D03*
X2769Y5156D02*
D03*
X991Y3835D02*
D03*
X6020Y3442D02*
D03*
Y3200D02*
D03*
X7099D02*
D03*
Y3429D02*
D03*
X991Y3467D02*
D03*
D40*
X5679Y6439D02*
D03*
X5509D02*
D03*
D60*
X6947Y2522D02*
D03*
Y2692D02*
D03*
X5131Y6392D02*
D03*
Y6562D02*
D03*
Y6836D02*
D03*
Y7007D02*
D03*
D62*
X4940Y4274D02*
D03*
X3442Y1518D02*
D03*
X2807Y883D02*
D03*
D63*
X3442Y889D02*
D03*
D64*
X2807Y1524D02*
D03*
D65*
X4077Y4693D02*
D03*
Y2546D02*
D03*
D66*
X5150Y3626D02*
D03*
X3004Y3613D02*
D03*
D67*
X3004Y4494D02*
D03*
Y4444D02*
D03*
Y4394D02*
D03*
Y4344D02*
D03*
Y4294D02*
D03*
Y4244D02*
D03*
Y4194D02*
D03*
Y4144D02*
D03*
Y4094D02*
D03*
Y4044D02*
D03*
Y3994D02*
D03*
Y3944D02*
D03*
Y3894D02*
D03*
Y3844D02*
D03*
Y3794D02*
D03*
Y3744D02*
D03*
Y3694D02*
D03*
Y3644D02*
D03*
Y3594D02*
D03*
Y3544D02*
D03*
Y3494D02*
D03*
Y3444D02*
D03*
Y3394D02*
D03*
Y3344D02*
D03*
Y3294D02*
D03*
Y3244D02*
D03*
Y3194D02*
D03*
Y3144D02*
D03*
Y3094D02*
D03*
Y3044D02*
D03*
Y2994D02*
D03*
Y2944D02*
D03*
Y2894D02*
D03*
Y2844D02*
D03*
Y2794D02*
D03*
Y2744D02*
D03*
X5149D02*
D03*
Y2794D02*
D03*
Y2844D02*
D03*
Y2894D02*
D03*
Y2944D02*
D03*
Y2994D02*
D03*
Y3044D02*
D03*
Y3094D02*
D03*
Y3144D02*
D03*
Y3194D02*
D03*
Y3244D02*
D03*
Y3294D02*
D03*
Y3344D02*
D03*
Y3394D02*
D03*
Y3444D02*
D03*
Y3494D02*
D03*
Y3544D02*
D03*
Y3594D02*
D03*
Y3644D02*
D03*
Y3694D02*
D03*
Y3744D02*
D03*
Y3794D02*
D03*
Y3844D02*
D03*
Y3894D02*
D03*
Y3944D02*
D03*
Y3994D02*
D03*
Y4044D02*
D03*
Y4094D02*
D03*
Y4144D02*
D03*
Y4194D02*
D03*
Y4244D02*
D03*
Y4294D02*
D03*
Y4344D02*
D03*
Y4394D02*
D03*
Y4444D02*
D03*
Y4494D02*
D03*
D68*
X3202Y2547D02*
D03*
X3252D02*
D03*
X3302D02*
D03*
X3352D02*
D03*
X3402D02*
D03*
X3452D02*
D03*
X3502D02*
D03*
X3552D02*
D03*
X3602D02*
D03*
X3652D02*
D03*
X3702D02*
D03*
X3752D02*
D03*
X3802D02*
D03*
X3852D02*
D03*
X3902D02*
D03*
X3952D02*
D03*
X4002D02*
D03*
X4052D02*
D03*
X4102D02*
D03*
X4152D02*
D03*
X4202D02*
D03*
X4252D02*
D03*
X4302D02*
D03*
X4352D02*
D03*
X4402D02*
D03*
X4452D02*
D03*
X4502D02*
D03*
X4552D02*
D03*
X4602D02*
D03*
X4652D02*
D03*
X4702D02*
D03*
X4752D02*
D03*
X4802D02*
D03*
X4852D02*
D03*
X4902D02*
D03*
X4952D02*
D03*
Y4692D02*
D03*
X4902D02*
D03*
X4852D02*
D03*
X4802D02*
D03*
X4752D02*
D03*
X4702D02*
D03*
X4652D02*
D03*
X4602D02*
D03*
X4552D02*
D03*
X4502D02*
D03*
X4452D02*
D03*
X4402D02*
D03*
X4352D02*
D03*
X4302D02*
D03*
X4252D02*
D03*
X4202D02*
D03*
X4152D02*
D03*
X4102D02*
D03*
X4052D02*
D03*
X4002D02*
D03*
X3952D02*
D03*
X3902D02*
D03*
X3852D02*
D03*
X3802D02*
D03*
X3752D02*
D03*
X3702D02*
D03*
X3652D02*
D03*
X3602D02*
D03*
X3552D02*
D03*
X3502D02*
D03*
X3452D02*
D03*
X3402D02*
D03*
X3352D02*
D03*
X3302D02*
D03*
X3252D02*
D03*
X3202D02*
D03*
D69*
X3569Y762D02*
D03*
Y1016D02*
D03*
X2667Y1651D02*
D03*
Y1524D02*
D03*
Y1397D02*
D03*
Y1270D02*
D03*
Y1143D02*
D03*
Y1016D02*
D03*
Y889D02*
D03*
Y762D02*
D03*
X3569Y1651D02*
D03*
Y1524D02*
D03*
Y1397D02*
D03*
Y1270D02*
D03*
Y1143D02*
D03*
Y889D02*
D03*
D70*
X4013Y733D02*
D03*
Y893D02*
D03*
X5258Y1495D02*
D03*
Y1655D02*
D03*
X4964Y352D02*
D03*
Y192D02*
D03*
X5448Y1495D02*
D03*
Y1655D02*
D03*
X5282Y352D02*
D03*
Y192D02*
D03*
X3797Y1507D02*
D03*
Y1667D02*
D03*
X3823Y893D02*
D03*
Y733D02*
D03*
X4001Y1507D02*
D03*
Y1667D02*
D03*
X5117Y192D02*
D03*
Y352D02*
D03*
X4155Y1882D02*
D03*
Y1722D02*
D03*
X4308Y1882D02*
D03*
Y1722D02*
D03*
X5384Y620D02*
D03*
Y780D02*
D03*
X4812Y192D02*
D03*
Y352D02*
D03*
X991Y4119D02*
D03*
Y3959D02*
D03*
X523Y4601D02*
D03*
Y4761D02*
D03*
X675Y4601D02*
D03*
Y4761D02*
D03*
X827Y4601D02*
D03*
Y4761D02*
D03*
X1511Y3051D02*
D03*
Y3212D02*
D03*
X2007Y4436D02*
D03*
Y4276D02*
D03*
X2172D02*
D03*
Y4436D02*
D03*
X3150Y4890D02*
D03*
Y5049D02*
D03*
X3137Y6359D02*
D03*
Y6519D02*
D03*
X3747Y2366D02*
D03*
Y2206D02*
D03*
X4661Y2290D02*
D03*
Y2130D02*
D03*
X6591Y1275D02*
D03*
Y1435D02*
D03*
X6096Y2163D02*
D03*
Y2003D02*
D03*
X3302Y4890D02*
D03*
Y5049D02*
D03*
X3683Y4949D02*
D03*
Y5109D02*
D03*
X3937Y5109D02*
D03*
Y4949D02*
D03*
X4089Y5109D02*
D03*
Y4949D02*
D03*
X4585Y5109D02*
D03*
Y4949D02*
D03*
X4394Y5109D02*
D03*
Y4949D02*
D03*
X4737Y5109D02*
D03*
Y4949D02*
D03*
X4242Y4949D02*
D03*
Y5109D02*
D03*
X4890Y4949D02*
D03*
Y5109D02*
D03*
X4953Y6570D02*
D03*
Y6410D02*
D03*
Y6842D02*
D03*
Y7001D02*
D03*
D71*
X5205Y590D02*
D03*
X4825D02*
D03*
D72*
X4609Y387D02*
D03*
X4329D02*
D03*
X6172Y3442D02*
D03*
X6452D02*
D03*
Y3200D02*
D03*
X6172D02*
D03*
X6960D02*
D03*
X6680D02*
D03*
X6960Y3442D02*
D03*
X6680D02*
D03*
X5639Y4394D02*
D03*
X5359D02*
D03*
D73*
X5003Y1025D02*
D03*
Y1075D02*
D03*
X5383Y975D02*
D03*
Y1025D02*
D03*
Y1075D02*
D03*
Y1125D02*
D03*
Y1175D02*
D03*
Y1225D02*
D03*
X5003D02*
D03*
Y975D02*
D03*
Y1125D02*
D03*
Y1175D02*
D03*
D74*
X5068Y910D02*
D03*
X5118D02*
D03*
X5168D02*
D03*
X5218D02*
D03*
X5268D02*
D03*
X5318D02*
D03*
Y1290D02*
D03*
X5268D02*
D03*
X5218D02*
D03*
X5168D02*
D03*
X5118D02*
D03*
X5068D02*
D03*
D75*
X5193Y1100D02*
D03*
D76*
X5829Y7267D02*
D03*
X7137Y5804D02*
D03*
X7328Y6579D02*
D03*
X5474Y7074D02*
D03*
X5512Y5804D02*
D03*
X2098Y1911D02*
D03*
X3952Y1936D02*
D03*
X343Y3937D02*
D03*
X1664Y2883D02*
D03*
X2716Y2605D02*
D03*
X5359Y3975D02*
D03*
D77*
X5639Y6868D02*
D03*
X5734D02*
D03*
X5639Y7128D02*
D03*
X5829D02*
D03*
X5734D02*
D03*
X5829Y6868D02*
D03*
D78*
X5734Y6998D02*
D03*
D79*
X6215Y6604D02*
D03*
X6688D02*
D03*
X6452D02*
D03*
D80*
Y7239D02*
D03*
D81*
X5832Y6439D02*
D03*
X5992D02*
D03*
X5444Y6756D02*
D03*
X5604D02*
D03*
X5992D02*
D03*
X5832D02*
D03*
X5604Y6604D02*
D03*
X5444D02*
D03*
X5832D02*
D03*
X5992D02*
D03*
X5706Y610D02*
D03*
X5546D02*
D03*
X2654Y3967D02*
D03*
X2814D02*
D03*
X754Y323D02*
D03*
X914D02*
D03*
X908Y2406D02*
D03*
X748D02*
D03*
X1740Y666D02*
D03*
X1580D02*
D03*
X1740Y907D02*
D03*
X1580D02*
D03*
X6006Y1187D02*
D03*
X6166D02*
D03*
X6493Y3785D02*
D03*
X6333D02*
D03*
X6638D02*
D03*
X6798D02*
D03*
X6638Y3632D02*
D03*
X6798D02*
D03*
X6493D02*
D03*
X6333D02*
D03*
X1554Y2050D02*
D03*
X1714D02*
D03*
X6006Y1339D02*
D03*
X6166D02*
D03*
X1702Y1593D02*
D03*
X1542D02*
D03*
X1702Y1441D02*
D03*
X1542D02*
D03*
X2101Y1444D02*
D03*
X2261D02*
D03*
X2100Y1593D02*
D03*
X2260D02*
D03*
X6006Y882D02*
D03*
X6166D02*
D03*
X6006Y1034D02*
D03*
X6166D02*
D03*
X5621Y1335D02*
D03*
X5781D02*
D03*
X5621Y878D02*
D03*
X5781D02*
D03*
X5621Y1030D02*
D03*
X5781D02*
D03*
X4480Y601D02*
D03*
X4640D02*
D03*
X4477Y756D02*
D03*
X4637D02*
D03*
X5781Y1187D02*
D03*
X5621D02*
D03*
X3754Y470D02*
D03*
X3914D02*
D03*
X3344Y2286D02*
D03*
X3184D02*
D03*
X640Y3068D02*
D03*
X800D02*
D03*
X800Y3220D02*
D03*
X640D02*
D03*
X796Y3487D02*
D03*
X636D02*
D03*
Y3640D02*
D03*
X796D02*
D03*
X1020Y7061D02*
D03*
X860D02*
D03*
X2824Y2939D02*
D03*
X2664D02*
D03*
X2468Y3175D02*
D03*
X2308D02*
D03*
X2468Y3327D02*
D03*
X2308D02*
D03*
X2353Y3556D02*
D03*
X2193D02*
D03*
X2747D02*
D03*
X2587D02*
D03*
X2353Y3708D02*
D03*
X2193D02*
D03*
X2747D02*
D03*
X2587D02*
D03*
X2277Y3967D02*
D03*
X2117D02*
D03*
X2277Y4119D02*
D03*
X2117D02*
D03*
X2257Y7061D02*
D03*
X2417D02*
D03*
X2654Y4119D02*
D03*
X2814D02*
D03*
X2785Y4305D02*
D03*
X2625D02*
D03*
X3458Y6020D02*
D03*
X3298D02*
D03*
X4055Y2286D02*
D03*
X3895D02*
D03*
X5089Y2273D02*
D03*
X5249D02*
D03*
X4500Y2286D02*
D03*
X4340D02*
D03*
X6245Y2007D02*
D03*
X6405D02*
D03*
X6430Y2518D02*
D03*
X6270D02*
D03*
X6430Y2671D02*
D03*
X6270D02*
D03*
X6905Y2324D02*
D03*
X7065D02*
D03*
X3611Y5867D02*
D03*
X3451D02*
D03*
X3763Y6020D02*
D03*
X3603D02*
D03*
X4352D02*
D03*
X4512D02*
D03*
X5503Y4140D02*
D03*
X5343D02*
D03*
D82*
X6844Y4203D02*
D03*
X6234D02*
D03*
X6844Y5303D02*
D03*
X6234D02*
D03*
D83*
X7055Y6614D02*
D03*
Y6924D02*
D03*
D84*
X6845Y7201D02*
D03*
Y7480D02*
D03*
X4877Y2350D02*
D03*
Y2070D02*
D03*
D85*
X3778Y1104D02*
D03*
X4018D02*
D03*
X3778Y1294D02*
D03*
Y1199D02*
D03*
X4018D02*
D03*
Y1294D02*
D03*
D86*
X2013Y5029D02*
D03*
Y4902D02*
D03*
Y4775D02*
D03*
Y4648D02*
D03*
X2763Y5029D02*
D03*
Y4902D02*
D03*
Y4775D02*
D03*
Y4648D02*
D03*
D87*
X991Y3061D02*
D03*
X1118D02*
D03*
X1245D02*
D03*
X1372D02*
D03*
X991Y3609D02*
D03*
X1118D02*
D03*
X1245D02*
D03*
X1372D02*
D03*
D88*
X1359Y4775D02*
D03*
D89*
X1076Y4970D02*
D03*
Y4905D02*
D03*
Y4840D02*
D03*
Y4775D02*
D03*
Y4710D02*
D03*
Y4645D02*
D03*
Y4580D02*
D03*
X1641D02*
D03*
Y4645D02*
D03*
Y4710D02*
D03*
Y4775D02*
D03*
Y4840D02*
D03*
Y4905D02*
D03*
Y4970D02*
D03*
D90*
X1164Y4493D02*
D03*
X1229D02*
D03*
X1294D02*
D03*
X1359D02*
D03*
X1424D02*
D03*
X1489D02*
D03*
X1554D02*
D03*
Y5058D02*
D03*
X1489D02*
D03*
X1424D02*
D03*
X1359D02*
D03*
X1294D02*
D03*
X1229D02*
D03*
X1164D02*
D03*
D91*
X6407Y1834D02*
D03*
X6502D02*
D03*
X6597D02*
D03*
Y1594D02*
D03*
X6502D02*
D03*
X6407D02*
D03*
D92*
X3905Y317D02*
D03*
X3766D02*
D03*
X2572Y2781D02*
D03*
X2711D02*
D03*
D93*
X1901Y1443D02*
D03*
Y1743D02*
D03*
D94*
X6870Y1815D02*
D03*
Y1750D02*
D03*
Y1685D02*
D03*
Y1620D02*
D03*
Y1555D02*
D03*
D95*
X7137Y1685D02*
D03*
D96*
X1664Y3189D02*
D03*
Y3049D02*
D03*
D97*
X1321Y6816D02*
D03*
X1067D02*
D03*
X813D02*
D03*
X559D02*
D03*
X1321Y5931D02*
D03*
X1067D02*
D03*
X813D02*
D03*
X559D02*
D03*
X1956D02*
D03*
X2210D02*
D03*
X2464D02*
D03*
X2718D02*
D03*
X1956Y6816D02*
D03*
X2210D02*
D03*
X2464D02*
D03*
X2718D02*
D03*
D98*
X2705Y3163D02*
D03*
Y3353D02*
D03*
D99*
X2464Y3952D02*
D03*
Y4202D02*
D03*
D100*
X6580Y2693D02*
D03*
Y2497D02*
D03*
X6780Y2595D02*
D03*
D101*
X3356Y6260D02*
D03*
Y7125D02*
D03*
X3806D02*
D03*
Y6260D02*
D03*
X4068D02*
D03*
Y7125D02*
D03*
X4518D02*
D03*
Y6260D02*
D03*
D102*
X254Y7379D02*
D03*
X7175Y254D02*
D03*
Y7366D02*
D03*
X254Y254D02*
D03*
D103*
X6356Y6223D02*
D03*
Y5715D02*
D03*
X6801Y6223D02*
D03*
Y5715D02*
D03*
X5588Y5489D02*
D03*
Y4981D02*
D03*
D104*
X6844Y4753D02*
D03*
X6394D02*
D03*
D105*
X656Y1007D02*
D03*
D106*
X834Y1109D02*
D03*
X656Y1211D02*
D03*
X834Y1313D02*
D03*
X656Y1415D02*
D03*
X834Y1517D02*
D03*
X656Y1619D02*
D03*
X834Y1721D02*
D03*
X1317Y906D02*
D03*
Y1820D02*
D03*
Y2049D02*
D03*
Y677D02*
D03*
D107*
X745Y550D02*
D03*
Y2176D02*
D03*
D108*
X403Y3487D02*
D03*
D109*
Y3233D02*
D03*
X2184Y5359D02*
D03*
X1930Y5613D02*
D03*
Y5359D02*
D03*
X1676Y5613D02*
D03*
Y5359D02*
D03*
X1422Y5613D02*
D03*
Y5359D02*
D03*
X1168Y5613D02*
D03*
Y5359D02*
D03*
X914Y5613D02*
D03*
Y5359D02*
D03*
X660Y5613D02*
D03*
Y5359D02*
D03*
X406Y5613D02*
D03*
Y5359D02*
D03*
X826Y7328D02*
D03*
X1080D02*
D03*
X1334D02*
D03*
X2210D02*
D03*
X2464D02*
D03*
X2718D02*
D03*
X3874Y5372D02*
D03*
X4128D02*
D03*
X4381D02*
D03*
X4635D02*
D03*
X3619D02*
D03*
D110*
X2184Y5613D02*
D03*
X572Y7328D02*
D03*
X1956D02*
D03*
X4890Y5372D02*
D03*
D111*
X6837Y1908D02*
D03*
Y1463D02*
D03*
D112*
X7137Y1285D02*
D03*
Y2085D02*
D03*
D113*
X1892Y4280D02*
D03*
X1728Y4420D02*
D03*
X2282Y4276D02*
D03*
X4851Y1333D02*
D03*
X4802Y1575D02*
D03*
X4903Y1587D02*
D03*
X5004Y1588D02*
D03*
X3598Y2303D02*
D03*
X4394Y1981D02*
D03*
X3683Y2120D02*
D03*
X5626Y1448D02*
D03*
X6083Y1575D02*
D03*
X5009Y1885D02*
D03*
X4254Y1981D02*
D03*
X4527Y2690D02*
D03*
X4102Y2856D02*
D03*
X4752Y4510D02*
D03*
X2870Y4407D02*
D03*
X3124Y4648D02*
D03*
X3404Y2743D02*
D03*
X3655Y3197D02*
D03*
X3518Y2756D02*
D03*
X3124Y4737D02*
D03*
X3188Y2908D02*
D03*
X5017Y3200D02*
D03*
X4775Y2870D02*
D03*
X4407Y4547D02*
D03*
X4661Y2870D02*
D03*
X3177Y4294D02*
D03*
X4001Y2856D02*
D03*
X3940Y4550D02*
D03*
X3200Y3794D02*
D03*
X3505Y4513D02*
D03*
X2705Y4559D02*
D03*
X3797D02*
D03*
X3670Y4470D02*
D03*
X3874Y4001D02*
D03*
X3569Y4839D02*
D03*
X4597Y2794D02*
D03*
X4600Y4511D02*
D03*
X5017Y3289D02*
D03*
X4367Y2680D02*
D03*
X3157Y4401D02*
D03*
X3518Y4204D02*
D03*
X5042Y4826D02*
D03*
X5347Y2794D02*
D03*
X3200Y3886D02*
D03*
X5144Y4610D02*
D03*
X4940Y4420D02*
D03*
X3226Y2413D02*
D03*
X5330Y4251D02*
D03*
X5321Y3823D02*
D03*
X3327Y2413D02*
D03*
X3619Y2679D02*
D03*
X4991Y3823D02*
D03*
X4445Y2743D02*
D03*
X5036Y2547D02*
D03*
X3251Y3531D02*
D03*
X3315Y3645D02*
D03*
X3124Y3721D02*
D03*
X3772Y2794D02*
D03*
X3773Y2705D02*
D03*
X3328Y2679D02*
D03*
X3172Y3296D02*
D03*
X2451Y3632D02*
D03*
X2476Y3531D02*
D03*
X2502Y3708D02*
D03*
X2353Y3446D02*
D03*
X4242Y4839D02*
D03*
X3609Y354D02*
D03*
X4813Y76D02*
D03*
X3721Y4221D02*
D03*
X4317Y4081D02*
D03*
X4318Y3747D02*
D03*
X3683Y3404D02*
D03*
X6731Y1359D02*
D03*
X5734Y7215D02*
D03*
X6718Y7366D02*
D03*
X4013Y1003D02*
D03*
X3778D02*
D03*
X4849Y1242D02*
D03*
X4762Y1170D02*
D03*
X3340Y940D02*
D03*
X3342Y831D02*
D03*
X4018Y1400D02*
D03*
X4483Y1105D02*
D03*
Y991D02*
D03*
X3778Y1399D02*
D03*
X3444Y1562D02*
D03*
Y1479D02*
D03*
X1346Y1664D02*
D03*
X1029Y317D02*
D03*
Y2413D02*
D03*
X1829Y2045D02*
D03*
X4978Y837D02*
D03*
X4193Y387D02*
D03*
X5384Y509D02*
D03*
X6909Y3632D02*
D03*
Y3785D02*
D03*
X4750Y1943D02*
D03*
X2007Y3975D02*
D03*
X2070Y3708D02*
D03*
X3987Y2413D02*
D03*
X4496Y2400D02*
D03*
X4661D02*
D03*
X4724Y2045D02*
D03*
X4890Y4839D02*
D03*
X4353Y2405D02*
D03*
X5512Y1308D02*
D03*
X3289Y5156D02*
D03*
X3683Y4839D02*
D03*
X1537Y3607D02*
D03*
X1321Y3238D02*
D03*
X1511Y3302D02*
D03*
X4360Y756D02*
D03*
X965Y4712D02*
D03*
X2007Y4102D02*
D03*
X1321Y6134D02*
D03*
X2946Y4623D02*
D03*
X2565Y4381D02*
D03*
X2285Y4431D02*
D03*
X1816Y4496D02*
D03*
X5791Y4394D02*
D03*
X5715Y6756D02*
D03*
X5334Y6604D02*
D03*
Y6756D02*
D03*
X5347Y6439D02*
D03*
X5512Y6909D02*
D03*
X5715Y6604D02*
D03*
X6096D02*
D03*
Y6756D02*
D03*
X7061Y7074D02*
D03*
X1575Y4204D02*
D03*
X1715D02*
D03*
X1753Y4736D02*
D03*
X1842Y4851D02*
D03*
X1791Y5029D02*
D03*
X5504Y1164D02*
D03*
X2591Y4648D02*
D03*
X2178Y4769D02*
D03*
X2273Y4725D02*
D03*
X3429Y4890D02*
D03*
X5807Y610D02*
D03*
X4547Y927D02*
D03*
Y1168D02*
D03*
X4826Y775D02*
D03*
X3895Y2409D02*
D03*
X5588Y1740D02*
D03*
X5891Y1335D02*
D03*
X5512Y952D02*
D03*
X4788Y965D02*
D03*
X4674Y1168D02*
D03*
X3899Y1194D02*
D03*
X804Y4873D02*
D03*
X826Y4483D02*
D03*
X673D02*
D03*
X1092Y4394D02*
D03*
X4939Y4115D02*
D03*
X6998Y1638D02*
D03*
Y1740D02*
D03*
X4356Y6134D02*
D03*
X6668Y1156D02*
D03*
X2870Y4229D02*
D03*
X6147Y2515D02*
D03*
X6403Y2142D02*
D03*
X6507Y1944D02*
D03*
X6083Y1778D02*
D03*
X6185Y1624D02*
D03*
X3238Y4559D02*
D03*
X760Y6141D02*
D03*
X1014D02*
D03*
X2464Y6096D02*
D03*
X2210D02*
D03*
X4851Y6756D02*
D03*
Y6655D02*
D03*
X4585Y4839D02*
D03*
X2172Y4902D02*
D03*
X4521Y6934D02*
D03*
X1164Y4288D02*
D03*
X1297Y4253D02*
D03*
X1896Y4427D02*
D03*
X1232Y4381D02*
D03*
X2591Y4765D02*
D03*
X2591Y4896D02*
D03*
X1473Y4089D02*
D03*
X1359Y4178D02*
D03*
X5365Y1765D02*
D03*
X2807Y923D02*
D03*
X2896Y826D02*
D03*
X5245Y2400D02*
D03*
X5093D02*
D03*
X2727Y6108D02*
D03*
X4089Y4839D02*
D03*
X3763Y5909D02*
D03*
X3150Y5156D02*
D03*
X1956Y6096D02*
D03*
X3683Y5220D02*
D03*
X3124Y6172D02*
D03*
X2984Y4890D02*
D03*
X965Y4585D02*
D03*
X2172Y5029D02*
D03*
X6185Y1727D02*
D03*
X5882Y1187D02*
D03*
X3454Y2286D02*
D03*
X6268Y1339D02*
D03*
X3342Y1568D02*
D03*
X6279Y882D02*
D03*
X6287Y1041D02*
D03*
X533Y3645D02*
D03*
X4394Y4839D02*
D03*
X4737D02*
D03*
X5918Y2007D02*
D03*
X6287Y1549D02*
D03*
X5524Y381D02*
D03*
X6726Y1620D02*
D03*
X6414Y1397D02*
D03*
X6580Y2373D02*
D03*
X6274Y1181D02*
D03*
X6223Y3785D02*
D03*
Y3632D02*
D03*
X3645Y470D02*
D03*
X4877Y2210D02*
D03*
X3073Y2286D02*
D03*
X4966Y76D02*
D03*
X5118D02*
D03*
X5283D02*
D03*
X508Y1168D02*
D03*
Y1067D02*
D03*
Y1575D02*
D03*
Y1473D02*
D03*
X2807Y840D02*
D03*
X1856Y907D02*
D03*
X1869Y666D02*
D03*
X2896Y940D02*
D03*
X2898Y1466D02*
D03*
Y1568D02*
D03*
X2809Y1558D02*
D03*
Y1475D02*
D03*
X2193Y3446D02*
D03*
X2858Y3556D02*
D03*
Y3708D02*
D03*
X3302Y5906D02*
D03*
X559Y6096D02*
D03*
X3273Y6519D02*
D03*
X4068Y6938D02*
D03*
X3806Y6938D02*
D03*
X4068Y6455D02*
D03*
X3806Y6461D02*
D03*
X3342Y1466D02*
D03*
X4356Y601D02*
D03*
X5891Y1030D02*
D03*
X2197Y3175D02*
D03*
X4242Y5220D02*
D03*
X2197Y3327D02*
D03*
X6401Y2807D02*
D03*
Y3035D02*
D03*
X6223Y2159D02*
D03*
X6794Y2324D02*
D03*
X5131Y6706D02*
D03*
X533Y3073D02*
D03*
X457Y3937D02*
D03*
X1664Y3302D02*
D03*
X521Y4483D02*
D03*
X673Y4877D02*
D03*
X521D02*
D03*
D114*
X5588Y1580D02*
D03*
X6998Y1460D02*
D03*
Y1905D02*
D03*
X3442Y926D02*
D03*
Y852D02*
D03*
D115*
X5133Y1040D02*
D03*
Y1160D02*
D03*
D116*
X7049Y4407D02*
D03*
X6845Y5055D02*
D03*
X6236Y5067D02*
D03*
D117*
X1358Y4767D02*
D03*
X1485Y4907D02*
D03*
Y4653D02*
D03*
X1231Y4907D02*
D03*
Y4653D02*
D03*
M02*
