G04*
G04 #@! TF.GenerationSoftware,Altium Limited,Altium Designer,21.2.0 (30)*
G04*
G04 Layer_Color=16711935*
%FSLAX42Y42*%
%MOMM*%
G71*
G04*
G04 #@! TF.SameCoordinates,D999A20B-9D91-44AD-AEE9-92838A49E7E3*
G04*
G04*
G04 #@! TF.FilePolarity,Positive*
G04*
G01*
G75*
%ADD17C,0.10*%
%ADD182C,0.05*%
D17*
X7284Y1085D02*
Y1403D01*
X7094D02*
X7284D01*
X7094D02*
Y1493D01*
X7284D01*
Y1685D01*
Y1877D01*
X7094D02*
X7284D01*
X7094D02*
Y1967D01*
X7284D01*
Y2285D01*
X878Y6145D02*
X961D01*
X978Y6161D01*
Y6195D01*
X961Y6211D01*
X878D01*
X978Y6295D02*
X878D01*
X928Y6245D01*
Y6311D01*
X995Y6345D02*
Y6411D01*
X878Y6445D02*
X961D01*
X978Y6461D01*
Y6495D01*
X961Y6511D01*
X878D01*
X995Y6545D02*
Y6611D01*
X878Y6645D02*
X978D01*
Y6695D01*
X961Y6711D01*
X895D01*
X878Y6695D01*
Y6645D01*
X895Y6811D02*
X878Y6795D01*
Y6761D01*
X895Y6745D01*
X961D01*
X978Y6761D01*
Y6795D01*
X961Y6811D01*
X878Y6845D02*
Y6878D01*
Y6861D01*
X978D01*
Y6845D01*
Y6878D01*
X995Y6928D02*
Y6995D01*
X878Y7028D02*
Y7094D01*
Y7061D01*
X978D01*
X895Y7194D02*
X878Y7178D01*
Y7144D01*
X895Y7128D01*
X961D01*
X978Y7144D01*
Y7178D01*
X961Y7194D01*
X978Y7228D02*
X911D01*
X878Y7261D01*
X911Y7294D01*
X978D01*
X928D01*
Y7228D01*
X978Y7328D02*
X878D01*
X978Y7394D01*
X878D01*
X995Y7428D02*
Y7494D01*
X978Y7528D02*
Y7561D01*
Y7544D01*
X878D01*
X895Y7528D01*
X2275Y6145D02*
X2358D01*
X2375Y6161D01*
Y6195D01*
X2358Y6211D01*
X2275D01*
X2375Y6295D02*
X2275D01*
X2325Y6245D01*
Y6311D01*
X2392Y6345D02*
Y6411D01*
X2275Y6445D02*
X2358D01*
X2375Y6461D01*
Y6495D01*
X2358Y6511D01*
X2275D01*
X2392Y6545D02*
Y6611D01*
X2275Y6645D02*
X2375D01*
Y6695D01*
X2358Y6711D01*
X2292D01*
X2275Y6695D01*
Y6645D01*
X2292Y6811D02*
X2275Y6795D01*
Y6761D01*
X2292Y6745D01*
X2358D01*
X2375Y6761D01*
Y6795D01*
X2358Y6811D01*
X2275Y6845D02*
Y6878D01*
Y6861D01*
X2375D01*
Y6845D01*
Y6878D01*
X2392Y6928D02*
Y6995D01*
X2275Y7028D02*
Y7094D01*
Y7061D01*
X2375D01*
X2292Y7194D02*
X2275Y7178D01*
Y7144D01*
X2292Y7128D01*
X2358D01*
X2375Y7144D01*
Y7178D01*
X2358Y7194D01*
X2375Y7228D02*
X2308D01*
X2275Y7261D01*
X2308Y7294D01*
X2375D01*
X2325D01*
Y7228D01*
X2375Y7328D02*
X2275D01*
X2375Y7394D01*
X2275D01*
X2392Y7428D02*
Y7494D01*
X2375Y7594D02*
Y7528D01*
X2308Y7594D01*
X2292D01*
X2275Y7578D01*
Y7544D01*
X2292Y7528D01*
D182*
X7250Y2244D02*
X7270D01*
Y2254D01*
X7267Y2257D01*
X7264D01*
X7260Y2254D01*
Y2244D01*
Y2254D01*
X7257Y2257D01*
X7254D01*
X7250Y2254D01*
Y2244D01*
X7270Y2267D02*
Y2274D01*
X7267Y2277D01*
X7260D01*
X7257Y2274D01*
Y2267D01*
X7260Y2264D01*
X7267D01*
X7270Y2267D01*
X7257Y2287D02*
Y2294D01*
X7260Y2297D01*
X7270D01*
Y2287D01*
X7267Y2284D01*
X7264Y2287D01*
Y2297D01*
X7257Y2304D02*
X7270D01*
X7264D01*
X7260Y2307D01*
X7257Y2311D01*
Y2314D01*
X7250Y2337D02*
X7270D01*
Y2327D01*
X7267Y2324D01*
X7260D01*
X7257Y2327D01*
Y2337D01*
X7270Y2374D02*
Y2367D01*
X7267Y2364D01*
X7260D01*
X7257Y2367D01*
Y2374D01*
X7260Y2377D01*
X7264D01*
Y2364D01*
X7250Y2397D02*
X7270D01*
Y2387D01*
X7267Y2384D01*
X7260D01*
X7257Y2387D01*
Y2397D01*
X7277Y2411D02*
Y2414D01*
X7274Y2417D01*
X7257D01*
Y2407D01*
X7260Y2404D01*
X7267D01*
X7270Y2407D01*
Y2417D01*
Y2434D02*
Y2427D01*
X7267Y2424D01*
X7260D01*
X7257Y2427D01*
Y2434D01*
X7260Y2437D01*
X7264D01*
Y2424D01*
M02*
