G04*
G04 #@! TF.GenerationSoftware,Altium Limited,Altium Designer,21.2.0 (30)*
G04*
G04 Layer_Physical_Order=6*
G04 Layer_Color=16711680*
%FSLAX42Y42*%
%MOMM*%
G71*
G04*
G04 #@! TF.SameCoordinates,ABD0CF57-3E98-4FB8-AFFA-8217F09E1CE7*
G04*
G04*
G04 #@! TF.FilePolarity,Positive*
G04*
G01*
G75*
%ADD116C,1.50*%
%ADD135C,3.50*%
%ADD136C,1.20*%
%ADD137R,1.40X1.40*%
%ADD138C,1.40*%
%ADD139C,2.10*%
%ADD140R,1.50X1.50*%
%ADD141R,1.50X1.50*%
%ADD142O,1.25X1.05*%
%ADD143R,1.90X1.40*%
%ADD144C,0.68*%
%ADD145C,0.58*%
%ADD146C,0.88*%
%ADD147C,0.66*%
%ADD148C,1.38*%
%ADD149C,1.27*%
G36*
X7379Y2413D02*
X7214D01*
Y2170D01*
X7027D01*
Y2000D01*
X7036D01*
Y1947D01*
X7023Y1942D01*
X7023Y1942D01*
X7006Y1949D01*
X6989D01*
X6973Y1942D01*
X6960Y1930D01*
X6954Y1914D01*
Y1896D01*
X6960Y1880D01*
X6973Y1868D01*
X6989Y1861D01*
X7006D01*
X7023Y1868D01*
X7023Y1868D01*
X7036Y1863D01*
Y1829D01*
X7214D01*
Y1549D01*
X7201Y1537D01*
X7036D01*
Y1503D01*
X7023Y1497D01*
X7023Y1498D01*
X7006Y1505D01*
X6989D01*
X6973Y1498D01*
X6960Y1485D01*
X6954Y1469D01*
Y1452D01*
X6960Y1436D01*
X6973Y1423D01*
X6989Y1416D01*
X7006D01*
X7023Y1423D01*
X7023Y1424D01*
X7036Y1418D01*
Y1370D01*
X7027D01*
Y1200D01*
X7226D01*
Y952D01*
X7379D01*
Y0D01*
X51D01*
Y7493D01*
X127Y7569D01*
X184D01*
X187Y7557D01*
X164Y7547D01*
X133Y7526D01*
X106Y7500D01*
X86Y7469D01*
X71Y7434D01*
X64Y7397D01*
Y7360D01*
X71Y7323D01*
X86Y7289D01*
X106Y7258D01*
X133Y7231D01*
X164Y7210D01*
X199Y7196D01*
X235Y7189D01*
X273D01*
X309Y7196D01*
X344Y7210D01*
X375Y7231D01*
X402Y7258D01*
X422Y7289D01*
X437Y7323D01*
X444Y7360D01*
Y7397D01*
X437Y7434D01*
X422Y7469D01*
X402Y7500D01*
X375Y7526D01*
X344Y7547D01*
X321Y7557D01*
X324Y7569D01*
X7379D01*
Y2413D01*
D02*
G37*
%LPC*%
G36*
X6731Y7425D02*
Y7379D01*
X6777D01*
X6769Y7400D01*
X6752Y7416D01*
X6731Y7425D01*
D02*
G37*
G36*
X6706D02*
X6685Y7416D01*
X6668Y7400D01*
X6659Y7379D01*
X6706D01*
Y7425D01*
D02*
G37*
G36*
X6777Y7353D02*
X6731D01*
Y7307D01*
X6752Y7316D01*
X6769Y7332D01*
X6777Y7353D01*
D02*
G37*
G36*
X6706D02*
X6659D01*
X6668Y7332D01*
X6685Y7316D01*
X6706Y7307D01*
Y7353D01*
D02*
G37*
G36*
X2730Y7418D02*
X2706D01*
X2683Y7412D01*
X2663Y7400D01*
X2646Y7383D01*
X2634Y7363D01*
X2628Y7340D01*
Y7316D01*
X2634Y7293D01*
X2646Y7273D01*
X2663Y7256D01*
X2683Y7244D01*
X2706Y7238D01*
X2730D01*
X2753Y7244D01*
X2773Y7256D01*
X2790Y7273D01*
X2802Y7293D01*
X2808Y7316D01*
Y7340D01*
X2802Y7363D01*
X2790Y7383D01*
X2773Y7400D01*
X2753Y7412D01*
X2730Y7418D01*
D02*
G37*
G36*
X2476D02*
X2452D01*
X2429Y7412D01*
X2409Y7400D01*
X2392Y7383D01*
X2380Y7363D01*
X2374Y7340D01*
Y7316D01*
X2380Y7293D01*
X2392Y7273D01*
X2409Y7256D01*
X2429Y7244D01*
X2452Y7238D01*
X2476D01*
X2499Y7244D01*
X2519Y7256D01*
X2536Y7273D01*
X2548Y7293D01*
X2554Y7316D01*
Y7340D01*
X2548Y7363D01*
X2536Y7383D01*
X2519Y7400D01*
X2499Y7412D01*
X2476Y7418D01*
D02*
G37*
G36*
X2222D02*
X2198D01*
X2175Y7412D01*
X2155Y7400D01*
X2138Y7383D01*
X2126Y7363D01*
X2120Y7340D01*
Y7316D01*
X2126Y7293D01*
X2138Y7273D01*
X2155Y7256D01*
X2175Y7244D01*
X2198Y7238D01*
X2222D01*
X2245Y7244D01*
X2265Y7256D01*
X2282Y7273D01*
X2294Y7293D01*
X2300Y7316D01*
Y7340D01*
X2294Y7363D01*
X2282Y7383D01*
X2265Y7400D01*
X2245Y7412D01*
X2222Y7418D01*
D02*
G37*
G36*
X2046D02*
X1866D01*
Y7238D01*
X2046D01*
Y7418D01*
D02*
G37*
G36*
X1345D02*
X1322D01*
X1299Y7412D01*
X1278Y7400D01*
X1261Y7383D01*
X1250Y7363D01*
X1244Y7340D01*
Y7316D01*
X1250Y7293D01*
X1261Y7273D01*
X1278Y7256D01*
X1299Y7244D01*
X1322Y7238D01*
X1345D01*
X1368Y7244D01*
X1389Y7256D01*
X1406Y7273D01*
X1417Y7293D01*
X1423Y7316D01*
Y7340D01*
X1417Y7363D01*
X1406Y7383D01*
X1389Y7400D01*
X1368Y7412D01*
X1345Y7418D01*
D02*
G37*
G36*
X1091D02*
X1068D01*
X1045Y7412D01*
X1024Y7400D01*
X1007Y7383D01*
X996Y7363D01*
X990Y7340D01*
Y7316D01*
X996Y7293D01*
X1007Y7273D01*
X1024Y7256D01*
X1045Y7244D01*
X1068Y7238D01*
X1091D01*
X1114Y7244D01*
X1135Y7256D01*
X1152Y7273D01*
X1163Y7293D01*
X1169Y7316D01*
Y7340D01*
X1163Y7363D01*
X1152Y7383D01*
X1135Y7400D01*
X1114Y7412D01*
X1091Y7418D01*
D02*
G37*
G36*
X837D02*
X814D01*
X791Y7412D01*
X770Y7400D01*
X753Y7383D01*
X742Y7363D01*
X736Y7340D01*
Y7316D01*
X742Y7293D01*
X753Y7273D01*
X770Y7256D01*
X791Y7244D01*
X814Y7238D01*
X837D01*
X860Y7244D01*
X881Y7256D01*
X898Y7273D01*
X909Y7293D01*
X915Y7316D01*
Y7340D01*
X909Y7363D01*
X898Y7383D01*
X881Y7400D01*
X860Y7412D01*
X837Y7418D01*
D02*
G37*
G36*
X661D02*
X482D01*
Y7238D01*
X661D01*
Y7418D01*
D02*
G37*
G36*
X5746Y7274D02*
Y7227D01*
X5793D01*
X5784Y7248D01*
X5767Y7265D01*
X5746Y7274D01*
D02*
G37*
G36*
X5721D02*
X5700Y7265D01*
X5683Y7248D01*
X5675Y7227D01*
X5721D01*
Y7274D01*
D02*
G37*
G36*
X7194Y7556D02*
X7157D01*
X7120Y7549D01*
X7086Y7534D01*
X7054Y7514D01*
X7028Y7487D01*
X7007Y7456D01*
X6993Y7421D01*
X6986Y7385D01*
Y7347D01*
X6993Y7311D01*
X7007Y7276D01*
X7028Y7245D01*
X7054Y7218D01*
X7086Y7198D01*
X7120Y7183D01*
X7157Y7176D01*
X7194D01*
X7231Y7183D01*
X7265Y7198D01*
X7297Y7218D01*
X7323Y7245D01*
X7344Y7276D01*
X7358Y7311D01*
X7365Y7347D01*
Y7385D01*
X7358Y7421D01*
X7344Y7456D01*
X7323Y7487D01*
X7297Y7514D01*
X7265Y7534D01*
X7231Y7549D01*
X7194Y7556D01*
D02*
G37*
G36*
X5793Y7202D02*
X5746D01*
Y7156D01*
X5767Y7164D01*
X5784Y7181D01*
X5793Y7202D01*
D02*
G37*
G36*
X5721D02*
X5675D01*
X5683Y7181D01*
X5700Y7164D01*
X5721Y7156D01*
Y7202D01*
D02*
G37*
G36*
X7074Y7133D02*
Y7087D01*
X7120D01*
X7112Y7108D01*
X7095Y7124D01*
X7074Y7133D01*
D02*
G37*
G36*
X7049D02*
X7028Y7124D01*
X7011Y7108D01*
X7002Y7087D01*
X7049D01*
Y7133D01*
D02*
G37*
G36*
X7120Y7061D02*
X7074D01*
Y7015D01*
X7095Y7024D01*
X7112Y7040D01*
X7120Y7061D01*
D02*
G37*
G36*
X7049D02*
X7002D01*
X7011Y7040D01*
X7028Y7024D01*
X7049Y7015D01*
Y7061D01*
D02*
G37*
G36*
X4080Y6997D02*
Y6950D01*
X4127D01*
X4118Y6971D01*
X4101Y6988D01*
X4080Y6997D01*
D02*
G37*
G36*
X4055D02*
X4034Y6988D01*
X4017Y6971D01*
X4009Y6950D01*
X4055D01*
Y6997D01*
D02*
G37*
G36*
X3816Y6987D02*
X3797D01*
X3779Y6979D01*
X3765Y6966D01*
X3757Y6948D01*
Y6928D01*
X3765Y6910D01*
X3779Y6896D01*
X3797Y6889D01*
X3816D01*
X3834Y6896D01*
X3848Y6910D01*
X3855Y6928D01*
Y6948D01*
X3848Y6966D01*
X3834Y6979D01*
X3816Y6987D01*
D02*
G37*
G36*
X4531Y6983D02*
X4511D01*
X4493Y6976D01*
X4480Y6962D01*
X4472Y6944D01*
Y6924D01*
X4480Y6906D01*
X4493Y6893D01*
X4511Y6885D01*
X4531D01*
X4549Y6893D01*
X4563Y6906D01*
X4570Y6924D01*
Y6944D01*
X4563Y6962D01*
X4549Y6976D01*
X4531Y6983D01*
D02*
G37*
G36*
X4127Y6925D02*
X4080D01*
Y6879D01*
X4101Y6887D01*
X4118Y6904D01*
X4127Y6925D01*
D02*
G37*
G36*
X4055D02*
X4009D01*
X4017Y6904D01*
X4034Y6887D01*
X4055Y6879D01*
Y6925D01*
D02*
G37*
G36*
X5522Y6958D02*
X5502D01*
X5484Y6950D01*
X5470Y6937D01*
X5463Y6919D01*
Y6899D01*
X5470Y6881D01*
X5484Y6867D01*
X5502Y6860D01*
X5522D01*
X5540Y6867D01*
X5553Y6881D01*
X5561Y6899D01*
Y6919D01*
X5553Y6937D01*
X5540Y6950D01*
X5522Y6958D01*
D02*
G37*
G36*
X6210Y6850D02*
X6196Y6846D01*
X6180Y6837D01*
X6167Y6824D01*
X6158Y6809D01*
X6156Y6798D01*
X6142Y6795D01*
X6130Y6807D01*
X6109Y6815D01*
Y6756D01*
Y6697D01*
X6130Y6706D01*
X6146Y6723D01*
X6153Y6739D01*
X6167Y6740D01*
X6167Y6739D01*
X6180Y6726D01*
X6196Y6717D01*
X6210Y6713D01*
Y6782D01*
Y6850D01*
D02*
G37*
G36*
X6236D02*
Y6794D01*
X6291D01*
X6288Y6809D01*
X6279Y6824D01*
X6266Y6837D01*
X6250Y6846D01*
X6236Y6850D01*
D02*
G37*
G36*
X6083Y6815D02*
X6062Y6807D01*
X6046Y6790D01*
X6037Y6769D01*
X6083D01*
Y6815D01*
D02*
G37*
G36*
X5347D02*
Y6769D01*
X5393D01*
X5384Y6790D01*
X5368Y6807D01*
X5347Y6815D01*
D02*
G37*
G36*
X5321D02*
X5300Y6807D01*
X5284Y6790D01*
X5275Y6769D01*
X5321D01*
Y6815D01*
D02*
G37*
G36*
X5144Y6765D02*
Y6718D01*
X5190D01*
X5181Y6739D01*
X5164Y6756D01*
X5144Y6765D01*
D02*
G37*
G36*
X5118D02*
X5097Y6756D01*
X5080Y6739D01*
X5072Y6718D01*
X5118D01*
Y6765D01*
D02*
G37*
G36*
X6291Y6769D02*
X6236D01*
Y6713D01*
X6250Y6717D01*
X6266Y6726D01*
X6279Y6739D01*
X6288Y6755D01*
X6291Y6769D01*
D02*
G37*
G36*
X5725Y6805D02*
X5705D01*
X5687Y6798D01*
X5673Y6784D01*
X5666Y6766D01*
Y6747D01*
X5673Y6729D01*
X5687Y6715D01*
X5705Y6707D01*
X5725D01*
X5743Y6715D01*
X5757Y6729D01*
X5764Y6747D01*
Y6766D01*
X5757Y6784D01*
X5743Y6798D01*
X5725Y6805D01*
D02*
G37*
G36*
X6083Y6744D02*
X6037D01*
X6046Y6723D01*
X6062Y6706D01*
X6083Y6697D01*
Y6744D01*
D02*
G37*
G36*
X5393D02*
X5347D01*
Y6697D01*
X5368Y6706D01*
X5384Y6723D01*
X5393Y6744D01*
D02*
G37*
G36*
X5321D02*
X5275D01*
X5284Y6723D01*
X5300Y6706D01*
X5321Y6697D01*
Y6744D01*
D02*
G37*
G36*
X5190Y6693D02*
X5144D01*
Y6647D01*
X5164Y6655D01*
X5181Y6672D01*
X5190Y6693D01*
D02*
G37*
G36*
X5118D02*
X5072D01*
X5080Y6672D01*
X5097Y6655D01*
X5118Y6647D01*
Y6693D01*
D02*
G37*
G36*
X6109Y6663D02*
Y6617D01*
X6155D01*
X6146Y6638D01*
X6130Y6654D01*
X6109Y6663D01*
D02*
G37*
G36*
X6083D02*
X6062Y6654D01*
X6046Y6638D01*
X6037Y6617D01*
X6083D01*
Y6663D01*
D02*
G37*
G36*
X5347D02*
Y6617D01*
X5393D01*
X5384Y6638D01*
X5368Y6654D01*
X5347Y6663D01*
D02*
G37*
G36*
X5321D02*
X5300Y6654D01*
X5284Y6638D01*
X5275Y6617D01*
X5321D01*
Y6663D01*
D02*
G37*
G36*
X4861Y6805D02*
X4842D01*
X4824Y6798D01*
X4810Y6784D01*
X4802Y6766D01*
Y6747D01*
X4810Y6729D01*
X4824Y6715D01*
X4829Y6712D01*
Y6699D01*
X4824Y6696D01*
X4810Y6683D01*
X4802Y6665D01*
Y6645D01*
X4810Y6627D01*
X4824Y6613D01*
X4842Y6606D01*
X4861D01*
X4879Y6613D01*
X4893Y6627D01*
X4900Y6645D01*
Y6665D01*
X4893Y6683D01*
X4879Y6696D01*
X4873Y6699D01*
Y6712D01*
X4879Y6715D01*
X4893Y6729D01*
X4900Y6747D01*
Y6766D01*
X4893Y6784D01*
X4879Y6798D01*
X4861Y6805D01*
D02*
G37*
G36*
X5725Y6653D02*
X5705D01*
X5687Y6646D01*
X5673Y6632D01*
X5666Y6614D01*
Y6594D01*
X5673Y6576D01*
X5687Y6562D01*
X5705Y6555D01*
X5725D01*
X5743Y6562D01*
X5757Y6576D01*
X5764Y6594D01*
Y6614D01*
X5757Y6632D01*
X5743Y6646D01*
X5725Y6653D01*
D02*
G37*
G36*
X6155Y6591D02*
X6109D01*
Y6545D01*
X6130Y6554D01*
X6146Y6570D01*
X6155Y6591D01*
D02*
G37*
G36*
X6083D02*
X6037D01*
X6046Y6570D01*
X6062Y6554D01*
X6083Y6545D01*
Y6591D01*
D02*
G37*
G36*
X5393D02*
X5347D01*
Y6545D01*
X5368Y6554D01*
X5384Y6570D01*
X5393Y6591D01*
D02*
G37*
G36*
X5321D02*
X5275D01*
X5284Y6570D01*
X5300Y6554D01*
X5321Y6545D01*
Y6591D01*
D02*
G37*
G36*
X3285Y6578D02*
Y6532D01*
X3332D01*
X3323Y6553D01*
X3306Y6569D01*
X3285Y6578D01*
D02*
G37*
G36*
X3260D02*
X3239Y6569D01*
X3222Y6553D01*
X3214Y6532D01*
X3260D01*
Y6578D01*
D02*
G37*
G36*
X4080Y6514D02*
Y6468D01*
X4127D01*
X4118Y6489D01*
X4101Y6506D01*
X4080Y6514D01*
D02*
G37*
G36*
X4055D02*
X4034Y6506D01*
X4017Y6489D01*
X4009Y6468D01*
X4055D01*
Y6514D01*
D02*
G37*
G36*
X3332Y6506D02*
X3285D01*
Y6460D01*
X3306Y6469D01*
X3323Y6485D01*
X3332Y6506D01*
D02*
G37*
G36*
X3260D02*
X3214D01*
X3222Y6485D01*
X3239Y6469D01*
X3260Y6460D01*
Y6506D01*
D02*
G37*
G36*
X5359Y6498D02*
Y6452D01*
X5406D01*
X5397Y6473D01*
X5380Y6489D01*
X5359Y6498D01*
D02*
G37*
G36*
X5334D02*
X5313Y6489D01*
X5296Y6473D01*
X5288Y6452D01*
X5334D01*
Y6498D01*
D02*
G37*
G36*
X3816Y6510D02*
X3797D01*
X3779Y6502D01*
X3765Y6488D01*
X3757Y6470D01*
Y6451D01*
X3765Y6433D01*
X3779Y6419D01*
X3797Y6412D01*
X3816D01*
X3834Y6419D01*
X3848Y6433D01*
X3855Y6451D01*
Y6470D01*
X3848Y6488D01*
X3834Y6502D01*
X3816Y6510D01*
D02*
G37*
G36*
X4127Y6443D02*
X4080D01*
Y6396D01*
X4101Y6405D01*
X4118Y6422D01*
X4127Y6443D01*
D02*
G37*
G36*
X4055D02*
X4009D01*
X4017Y6422D01*
X4034Y6405D01*
X4055Y6396D01*
Y6443D01*
D02*
G37*
G36*
X5406Y6426D02*
X5359D01*
Y6380D01*
X5380Y6389D01*
X5397Y6405D01*
X5406Y6426D01*
D02*
G37*
G36*
X5334D02*
X5288D01*
X5296Y6405D01*
X5313Y6389D01*
X5334Y6380D01*
Y6426D01*
D02*
G37*
G36*
X3137Y6231D02*
Y6185D01*
X3183D01*
X3175Y6206D01*
X3158Y6223D01*
X3137Y6231D01*
D02*
G37*
G36*
X3111D02*
X3091Y6223D01*
X3074Y6206D01*
X3065Y6185D01*
X3111D01*
Y6231D01*
D02*
G37*
G36*
X6810Y6298D02*
X6791D01*
X6772Y6293D01*
X6755Y6283D01*
X6741Y6269D01*
X6731Y6252D01*
X6726Y6233D01*
Y6213D01*
X6731Y6194D01*
X6741Y6177D01*
X6755Y6163D01*
X6772Y6153D01*
X6791Y6148D01*
X6810D01*
X6830Y6153D01*
X6847Y6163D01*
X6861Y6177D01*
X6870Y6194D01*
X6876Y6213D01*
Y6233D01*
X6870Y6252D01*
X6861Y6269D01*
X6847Y6283D01*
X6830Y6293D01*
X6810Y6298D01*
D02*
G37*
G36*
X6366D02*
X6346D01*
X6327Y6293D01*
X6310Y6283D01*
X6296Y6269D01*
X6286Y6252D01*
X6281Y6233D01*
Y6213D01*
X6286Y6194D01*
X6296Y6177D01*
X6310Y6163D01*
X6327Y6153D01*
X6346Y6148D01*
X6366D01*
X6385Y6153D01*
X6402Y6163D01*
X6416Y6177D01*
X6426Y6194D01*
X6431Y6213D01*
Y6233D01*
X6426Y6252D01*
X6416Y6269D01*
X6402Y6283D01*
X6385Y6293D01*
X6366Y6298D01*
D02*
G37*
G36*
X4369Y6193D02*
Y6147D01*
X4415D01*
X4406Y6168D01*
X4390Y6184D01*
X4369Y6193D01*
D02*
G37*
G36*
X4343D02*
X4322Y6184D01*
X4306Y6168D01*
X4297Y6147D01*
X4343D01*
Y6193D01*
D02*
G37*
G36*
X1334D02*
Y6147D01*
X1380D01*
X1371Y6168D01*
X1354Y6184D01*
X1334Y6193D01*
D02*
G37*
G36*
X1308D02*
X1287Y6184D01*
X1270Y6168D01*
X1262Y6147D01*
X1308D01*
Y6193D01*
D02*
G37*
G36*
X2739Y6167D02*
Y6120D01*
X2786D01*
X2777Y6141D01*
X2760Y6158D01*
X2739Y6167D01*
D02*
G37*
G36*
X2714D02*
X2693Y6158D01*
X2676Y6141D01*
X2668Y6120D01*
X2714D01*
Y6167D01*
D02*
G37*
G36*
X3183Y6160D02*
X3137D01*
Y6113D01*
X3158Y6122D01*
X3175Y6139D01*
X3183Y6160D01*
D02*
G37*
G36*
X3111D02*
X3065D01*
X3074Y6139D01*
X3091Y6122D01*
X3111Y6113D01*
Y6160D01*
D02*
G37*
G36*
X1024Y6190D02*
X1004D01*
X986Y6183D01*
X972Y6169D01*
X965Y6151D01*
Y6131D01*
X972Y6113D01*
X986Y6100D01*
X1004Y6092D01*
X1024D01*
X1042Y6100D01*
X1055Y6113D01*
X1063Y6131D01*
Y6151D01*
X1055Y6169D01*
X1042Y6183D01*
X1024Y6190D01*
D02*
G37*
G36*
X770D02*
X750D01*
X732Y6183D01*
X718Y6169D01*
X711Y6151D01*
Y6131D01*
X718Y6113D01*
X732Y6100D01*
X750Y6092D01*
X770D01*
X788Y6100D01*
X801Y6113D01*
X809Y6131D01*
Y6151D01*
X801Y6169D01*
X788Y6183D01*
X770Y6190D01*
D02*
G37*
G36*
X4415Y6121D02*
X4369D01*
Y6075D01*
X4390Y6084D01*
X4406Y6100D01*
X4415Y6121D01*
D02*
G37*
G36*
X4343D02*
X4297D01*
X4306Y6100D01*
X4322Y6084D01*
X4343Y6075D01*
Y6121D01*
D02*
G37*
G36*
X1380D02*
X1334D01*
Y6075D01*
X1354Y6084D01*
X1371Y6100D01*
X1380Y6121D01*
D02*
G37*
G36*
X1308D02*
X1262D01*
X1270Y6100D01*
X1287Y6084D01*
X1308Y6075D01*
Y6121D01*
D02*
G37*
G36*
X2786Y6095D02*
X2739D01*
Y6049D01*
X2760Y6057D01*
X2777Y6074D01*
X2786Y6095D01*
D02*
G37*
G36*
X2714D02*
X2668D01*
X2676Y6074D01*
X2693Y6057D01*
X2714Y6049D01*
Y6095D01*
D02*
G37*
G36*
X2474Y6145D02*
X2454D01*
X2436Y6138D01*
X2422Y6124D01*
X2415Y6106D01*
Y6086D01*
X2422Y6068D01*
X2436Y6054D01*
X2454Y6047D01*
X2474D01*
X2492Y6054D01*
X2505Y6068D01*
X2513Y6086D01*
Y6106D01*
X2505Y6124D01*
X2492Y6138D01*
X2474Y6145D01*
D02*
G37*
G36*
X2220D02*
X2200D01*
X2182Y6138D01*
X2168Y6124D01*
X2161Y6106D01*
Y6086D01*
X2168Y6068D01*
X2182Y6054D01*
X2200Y6047D01*
X2220D01*
X2238Y6054D01*
X2251Y6068D01*
X2259Y6086D01*
Y6106D01*
X2251Y6124D01*
X2238Y6138D01*
X2220Y6145D01*
D02*
G37*
G36*
X1966D02*
X1946D01*
X1928Y6138D01*
X1914Y6124D01*
X1907Y6106D01*
Y6086D01*
X1914Y6068D01*
X1928Y6054D01*
X1946Y6047D01*
X1966D01*
X1984Y6054D01*
X1997Y6068D01*
X2005Y6086D01*
Y6106D01*
X1997Y6124D01*
X1984Y6138D01*
X1966Y6145D01*
D02*
G37*
G36*
X569D02*
X549D01*
X531Y6138D01*
X517Y6124D01*
X510Y6106D01*
Y6086D01*
X517Y6068D01*
X531Y6054D01*
X549Y6047D01*
X569D01*
X587Y6054D01*
X600Y6068D01*
X608Y6086D01*
Y6106D01*
X600Y6124D01*
X587Y6138D01*
X569Y6145D01*
D02*
G37*
G36*
X3773Y5958D02*
X3753D01*
X3735Y5951D01*
X3721Y5937D01*
X3714Y5919D01*
Y5900D01*
X3721Y5882D01*
X3735Y5868D01*
X3753Y5860D01*
X3773D01*
X3791Y5868D01*
X3805Y5882D01*
X3812Y5900D01*
Y5919D01*
X3805Y5937D01*
X3791Y5951D01*
X3773Y5958D01*
D02*
G37*
G36*
X3312Y5954D02*
X3292D01*
X3274Y5947D01*
X3260Y5933D01*
X3253Y5915D01*
Y5896D01*
X3260Y5878D01*
X3274Y5864D01*
X3292Y5856D01*
X3312D01*
X3330Y5864D01*
X3344Y5878D01*
X3351Y5896D01*
Y5915D01*
X3344Y5933D01*
X3330Y5947D01*
X3312Y5954D01*
D02*
G37*
G36*
X4524Y5948D02*
X4501D01*
X4479Y5939D01*
X4462Y5922D01*
X4453Y5901D01*
Y5877D01*
X4462Y5856D01*
X4479Y5839D01*
X4501Y5830D01*
X4524D01*
X4546Y5839D01*
X4562Y5856D01*
X4571Y5877D01*
Y5901D01*
X4562Y5922D01*
X4546Y5939D01*
X4524Y5948D01*
D02*
G37*
G36*
X6810Y5790D02*
X6791D01*
X6772Y5785D01*
X6755Y5775D01*
X6741Y5761D01*
X6731Y5744D01*
X6726Y5725D01*
Y5705D01*
X6731Y5686D01*
X6741Y5669D01*
X6755Y5655D01*
X6772Y5645D01*
X6791Y5640D01*
X6810D01*
X6830Y5645D01*
X6847Y5655D01*
X6861Y5669D01*
X6870Y5686D01*
X6876Y5705D01*
Y5725D01*
X6870Y5744D01*
X6861Y5761D01*
X6847Y5775D01*
X6830Y5785D01*
X6810Y5790D01*
D02*
G37*
G36*
X6366D02*
X6346D01*
X6327Y5785D01*
X6310Y5775D01*
X6296Y5761D01*
X6286Y5744D01*
X6281Y5725D01*
Y5705D01*
X6286Y5686D01*
X6296Y5669D01*
X6310Y5655D01*
X6327Y5645D01*
X6346Y5640D01*
X6366D01*
X6385Y5645D01*
X6402Y5655D01*
X6416Y5669D01*
X6426Y5686D01*
X6431Y5705D01*
Y5725D01*
X6426Y5744D01*
X6416Y5761D01*
X6402Y5775D01*
X6385Y5785D01*
X6366Y5790D01*
D02*
G37*
G36*
X2274Y5703D02*
X2094D01*
Y5523D01*
X2274D01*
Y5703D01*
D02*
G37*
G36*
X1942D02*
X1919D01*
X1896Y5697D01*
X1875Y5685D01*
X1858Y5669D01*
X1847Y5648D01*
X1840Y5625D01*
Y5602D01*
X1847Y5579D01*
X1858Y5558D01*
X1875Y5541D01*
X1896Y5530D01*
X1919Y5523D01*
X1942D01*
X1965Y5530D01*
X1986Y5541D01*
X2002Y5558D01*
X2014Y5579D01*
X2020Y5602D01*
Y5625D01*
X2014Y5648D01*
X2002Y5669D01*
X1986Y5685D01*
X1965Y5697D01*
X1942Y5703D01*
D02*
G37*
G36*
X1688D02*
X1665D01*
X1642Y5697D01*
X1621Y5685D01*
X1604Y5669D01*
X1593Y5648D01*
X1586Y5625D01*
Y5602D01*
X1593Y5579D01*
X1604Y5558D01*
X1621Y5541D01*
X1642Y5530D01*
X1665Y5523D01*
X1688D01*
X1711Y5530D01*
X1732Y5541D01*
X1748Y5558D01*
X1760Y5579D01*
X1766Y5602D01*
Y5625D01*
X1760Y5648D01*
X1748Y5669D01*
X1732Y5685D01*
X1711Y5697D01*
X1688Y5703D01*
D02*
G37*
G36*
X1434D02*
X1411D01*
X1388Y5697D01*
X1367Y5685D01*
X1350Y5669D01*
X1339Y5648D01*
X1332Y5625D01*
Y5602D01*
X1339Y5579D01*
X1350Y5558D01*
X1367Y5541D01*
X1388Y5530D01*
X1411Y5523D01*
X1434D01*
X1457Y5530D01*
X1478Y5541D01*
X1494Y5558D01*
X1506Y5579D01*
X1512Y5602D01*
Y5625D01*
X1506Y5648D01*
X1494Y5669D01*
X1478Y5685D01*
X1457Y5697D01*
X1434Y5703D01*
D02*
G37*
G36*
X1180D02*
X1157D01*
X1134Y5697D01*
X1113Y5685D01*
X1096Y5669D01*
X1085Y5648D01*
X1078Y5625D01*
Y5602D01*
X1085Y5579D01*
X1096Y5558D01*
X1113Y5541D01*
X1134Y5530D01*
X1157Y5523D01*
X1180D01*
X1203Y5530D01*
X1224Y5541D01*
X1240Y5558D01*
X1252Y5579D01*
X1258Y5602D01*
Y5625D01*
X1252Y5648D01*
X1240Y5669D01*
X1224Y5685D01*
X1203Y5697D01*
X1180Y5703D01*
D02*
G37*
G36*
X926D02*
X903D01*
X880Y5697D01*
X859Y5685D01*
X842Y5669D01*
X831Y5648D01*
X824Y5625D01*
Y5602D01*
X831Y5579D01*
X842Y5558D01*
X859Y5541D01*
X880Y5530D01*
X903Y5523D01*
X926D01*
X949Y5530D01*
X970Y5541D01*
X986Y5558D01*
X998Y5579D01*
X1004Y5602D01*
Y5625D01*
X998Y5648D01*
X986Y5669D01*
X970Y5685D01*
X949Y5697D01*
X926Y5703D01*
D02*
G37*
G36*
X672D02*
X649D01*
X626Y5697D01*
X605Y5685D01*
X588Y5669D01*
X577Y5648D01*
X570Y5625D01*
Y5602D01*
X577Y5579D01*
X588Y5558D01*
X605Y5541D01*
X626Y5530D01*
X649Y5523D01*
X672D01*
X695Y5530D01*
X716Y5541D01*
X732Y5558D01*
X744Y5579D01*
X750Y5602D01*
Y5625D01*
X744Y5648D01*
X732Y5669D01*
X716Y5685D01*
X695Y5697D01*
X672Y5703D01*
D02*
G37*
G36*
X418D02*
X395D01*
X372Y5697D01*
X351Y5685D01*
X334Y5669D01*
X323Y5648D01*
X316Y5625D01*
Y5602D01*
X323Y5579D01*
X334Y5558D01*
X351Y5541D01*
X372Y5530D01*
X395Y5523D01*
X418D01*
X441Y5530D01*
X462Y5541D01*
X478Y5558D01*
X490Y5579D01*
X496Y5602D01*
Y5625D01*
X490Y5648D01*
X478Y5669D01*
X462Y5685D01*
X441Y5697D01*
X418Y5703D01*
D02*
G37*
G36*
X5598Y5564D02*
X5578D01*
X5559Y5559D01*
X5542Y5549D01*
X5528Y5535D01*
X5518Y5518D01*
X5513Y5499D01*
Y5480D01*
X5518Y5460D01*
X5528Y5443D01*
X5542Y5429D01*
X5559Y5420D01*
X5578Y5414D01*
X5598D01*
X5617Y5420D01*
X5634Y5429D01*
X5648Y5443D01*
X5658Y5460D01*
X5663Y5480D01*
Y5499D01*
X5658Y5518D01*
X5648Y5535D01*
X5634Y5549D01*
X5617Y5559D01*
X5598Y5564D01*
D02*
G37*
G36*
X3633Y5472D02*
X3632D01*
Y5385D01*
X3720D01*
Y5385D01*
X3713Y5411D01*
X3700Y5434D01*
X3681Y5452D01*
X3658Y5466D01*
X3633Y5472D01*
D02*
G37*
G36*
X3607D02*
X3606D01*
X3581Y5466D01*
X3558Y5452D01*
X3539Y5434D01*
X3526Y5411D01*
X3519Y5385D01*
Y5385D01*
X3607D01*
Y5472D01*
D02*
G37*
G36*
X4979Y5462D02*
X4799D01*
Y5282D01*
X4979D01*
Y5462D01*
D02*
G37*
G36*
X4647D02*
X4624D01*
X4601Y5456D01*
X4580Y5444D01*
X4563Y5427D01*
X4552Y5407D01*
X4546Y5384D01*
Y5360D01*
X4552Y5337D01*
X4563Y5317D01*
X4580Y5300D01*
X4601Y5288D01*
X4624Y5282D01*
X4647D01*
X4670Y5288D01*
X4691Y5300D01*
X4708Y5317D01*
X4719Y5337D01*
X4726Y5360D01*
Y5384D01*
X4719Y5407D01*
X4708Y5427D01*
X4691Y5444D01*
X4670Y5456D01*
X4647Y5462D01*
D02*
G37*
G36*
X4393D02*
X4370D01*
X4347Y5456D01*
X4326Y5444D01*
X4309Y5427D01*
X4298Y5407D01*
X4292Y5384D01*
Y5360D01*
X4298Y5337D01*
X4309Y5317D01*
X4326Y5300D01*
X4347Y5288D01*
X4370Y5282D01*
X4393D01*
X4416Y5288D01*
X4437Y5300D01*
X4454Y5317D01*
X4465Y5337D01*
X4472Y5360D01*
Y5384D01*
X4465Y5407D01*
X4454Y5427D01*
X4437Y5444D01*
X4416Y5456D01*
X4393Y5462D01*
D02*
G37*
G36*
X4139D02*
X4116D01*
X4093Y5456D01*
X4072Y5444D01*
X4055Y5427D01*
X4044Y5407D01*
X4038Y5384D01*
Y5360D01*
X4044Y5337D01*
X4055Y5317D01*
X4072Y5300D01*
X4093Y5288D01*
X4116Y5282D01*
X4139D01*
X4162Y5288D01*
X4183Y5300D01*
X4200Y5317D01*
X4211Y5337D01*
X4217Y5360D01*
Y5384D01*
X4211Y5407D01*
X4200Y5427D01*
X4183Y5444D01*
X4162Y5456D01*
X4139Y5462D01*
D02*
G37*
G36*
X3885D02*
X3862D01*
X3839Y5456D01*
X3818Y5444D01*
X3801Y5427D01*
X3790Y5407D01*
X3783Y5384D01*
Y5360D01*
X3790Y5337D01*
X3801Y5317D01*
X3818Y5300D01*
X3839Y5288D01*
X3862Y5282D01*
X3885D01*
X3908Y5288D01*
X3929Y5300D01*
X3946Y5317D01*
X3957Y5337D01*
X3963Y5360D01*
Y5384D01*
X3957Y5407D01*
X3946Y5427D01*
X3929Y5444D01*
X3908Y5456D01*
X3885Y5462D01*
D02*
G37*
G36*
X3607Y5359D02*
X3519D01*
Y5359D01*
X3526Y5333D01*
X3539Y5310D01*
X3558Y5292D01*
X3581Y5279D01*
X3606Y5272D01*
X3607D01*
Y5359D01*
D02*
G37*
G36*
X2196Y5449D02*
X2173D01*
X2150Y5443D01*
X2129Y5431D01*
X2112Y5415D01*
X2101Y5394D01*
X2094Y5371D01*
Y5348D01*
X2101Y5325D01*
X2112Y5304D01*
X2129Y5287D01*
X2150Y5276D01*
X2173Y5269D01*
X2196D01*
X2219Y5276D01*
X2240Y5287D01*
X2256Y5304D01*
X2268Y5325D01*
X2274Y5348D01*
Y5371D01*
X2268Y5394D01*
X2256Y5415D01*
X2240Y5431D01*
X2219Y5443D01*
X2196Y5449D01*
D02*
G37*
G36*
X1942D02*
X1919D01*
X1896Y5443D01*
X1875Y5431D01*
X1858Y5415D01*
X1847Y5394D01*
X1840Y5371D01*
Y5348D01*
X1847Y5325D01*
X1858Y5304D01*
X1875Y5287D01*
X1896Y5276D01*
X1919Y5269D01*
X1942D01*
X1965Y5276D01*
X1986Y5287D01*
X2002Y5304D01*
X2014Y5325D01*
X2020Y5348D01*
Y5371D01*
X2014Y5394D01*
X2002Y5415D01*
X1986Y5431D01*
X1965Y5443D01*
X1942Y5449D01*
D02*
G37*
G36*
X1688D02*
X1665D01*
X1642Y5443D01*
X1621Y5431D01*
X1604Y5415D01*
X1593Y5394D01*
X1586Y5371D01*
Y5348D01*
X1593Y5325D01*
X1604Y5304D01*
X1621Y5287D01*
X1642Y5276D01*
X1665Y5269D01*
X1688D01*
X1711Y5276D01*
X1732Y5287D01*
X1748Y5304D01*
X1760Y5325D01*
X1766Y5348D01*
Y5371D01*
X1760Y5394D01*
X1748Y5415D01*
X1732Y5431D01*
X1711Y5443D01*
X1688Y5449D01*
D02*
G37*
G36*
X1434D02*
X1411D01*
X1388Y5443D01*
X1367Y5431D01*
X1350Y5415D01*
X1339Y5394D01*
X1332Y5371D01*
Y5348D01*
X1339Y5325D01*
X1350Y5304D01*
X1367Y5287D01*
X1388Y5276D01*
X1411Y5269D01*
X1434D01*
X1457Y5276D01*
X1478Y5287D01*
X1494Y5304D01*
X1506Y5325D01*
X1512Y5348D01*
Y5371D01*
X1506Y5394D01*
X1494Y5415D01*
X1478Y5431D01*
X1457Y5443D01*
X1434Y5449D01*
D02*
G37*
G36*
X1180D02*
X1157D01*
X1134Y5443D01*
X1113Y5431D01*
X1096Y5415D01*
X1085Y5394D01*
X1078Y5371D01*
Y5348D01*
X1085Y5325D01*
X1096Y5304D01*
X1113Y5287D01*
X1134Y5276D01*
X1157Y5269D01*
X1180D01*
X1203Y5276D01*
X1224Y5287D01*
X1240Y5304D01*
X1252Y5325D01*
X1258Y5348D01*
Y5371D01*
X1252Y5394D01*
X1240Y5415D01*
X1224Y5431D01*
X1203Y5443D01*
X1180Y5449D01*
D02*
G37*
G36*
X926D02*
X903D01*
X880Y5443D01*
X859Y5431D01*
X842Y5415D01*
X831Y5394D01*
X824Y5371D01*
Y5348D01*
X831Y5325D01*
X842Y5304D01*
X859Y5287D01*
X880Y5276D01*
X903Y5269D01*
X926D01*
X949Y5276D01*
X970Y5287D01*
X986Y5304D01*
X998Y5325D01*
X1004Y5348D01*
Y5371D01*
X998Y5394D01*
X986Y5415D01*
X970Y5431D01*
X949Y5443D01*
X926Y5449D01*
D02*
G37*
G36*
X672D02*
X649D01*
X626Y5443D01*
X605Y5431D01*
X588Y5415D01*
X577Y5394D01*
X570Y5371D01*
Y5348D01*
X577Y5325D01*
X588Y5304D01*
X605Y5287D01*
X626Y5276D01*
X649Y5269D01*
X672D01*
X695Y5276D01*
X716Y5287D01*
X732Y5304D01*
X744Y5325D01*
X750Y5348D01*
Y5371D01*
X744Y5394D01*
X732Y5415D01*
X716Y5431D01*
X695Y5443D01*
X672Y5449D01*
D02*
G37*
G36*
X418D02*
X395D01*
X372Y5443D01*
X351Y5431D01*
X334Y5415D01*
X323Y5394D01*
X316Y5371D01*
Y5348D01*
X323Y5325D01*
X334Y5304D01*
X351Y5287D01*
X372Y5276D01*
X395Y5269D01*
X418D01*
X441Y5276D01*
X462Y5287D01*
X478Y5304D01*
X490Y5325D01*
X496Y5348D01*
Y5371D01*
X490Y5394D01*
X478Y5415D01*
X462Y5431D01*
X441Y5443D01*
X418Y5449D01*
D02*
G37*
G36*
X4254Y5279D02*
Y5232D01*
X4301D01*
X4292Y5253D01*
X4275Y5270D01*
X4254Y5279D01*
D02*
G37*
G36*
X4229D02*
X4208Y5270D01*
X4191Y5253D01*
X4183Y5232D01*
X4229D01*
Y5279D01*
D02*
G37*
G36*
X3720Y5359D02*
X3632D01*
Y5272D01*
X3633D01*
X3633Y5272D01*
X3640Y5260D01*
X3633Y5253D01*
X3624Y5232D01*
X3742D01*
X3733Y5253D01*
X3717Y5270D01*
X3695Y5279D01*
X3685D01*
X3681Y5292D01*
X3681Y5292D01*
X3700Y5310D01*
X3713Y5333D01*
X3720Y5359D01*
Y5359D01*
D02*
G37*
G36*
X3302Y5215D02*
Y5169D01*
X3348D01*
X3340Y5190D01*
X3323Y5207D01*
X3302Y5215D01*
D02*
G37*
G36*
X3277D02*
X3256Y5207D01*
X3239Y5190D01*
X3230Y5169D01*
X3277D01*
Y5215D01*
D02*
G37*
G36*
X3162D02*
Y5169D01*
X3209D01*
X3200Y5190D01*
X3183Y5207D01*
X3162Y5215D01*
D02*
G37*
G36*
X3137D02*
X3116Y5207D01*
X3099Y5190D01*
X3091Y5169D01*
X3137D01*
Y5215D01*
D02*
G37*
G36*
X2781Y5225D02*
Y5169D01*
X2837D01*
X2833Y5183D01*
X2824Y5199D01*
X2811Y5212D01*
X2795Y5221D01*
X2781Y5225D01*
D02*
G37*
G36*
X2756D02*
X2742Y5221D01*
X2726Y5212D01*
X2713Y5199D01*
X2704Y5183D01*
X2700Y5169D01*
X2756D01*
Y5225D01*
D02*
G37*
G36*
X4301Y5207D02*
X4254D01*
Y5161D01*
X4275Y5169D01*
X4292Y5186D01*
X4301Y5207D01*
D02*
G37*
G36*
X4229D02*
X4183D01*
X4191Y5186D01*
X4208Y5169D01*
X4229Y5161D01*
Y5207D01*
D02*
G37*
G36*
X3742D02*
X3696D01*
Y5161D01*
X3717Y5169D01*
X3733Y5186D01*
X3742Y5207D01*
D02*
G37*
G36*
X3670D02*
X3624D01*
X3633Y5186D01*
X3649Y5169D01*
X3670Y5161D01*
Y5207D01*
D02*
G37*
G36*
X3348Y5144D02*
X3302D01*
Y5097D01*
X3323Y5106D01*
X3340Y5123D01*
X3348Y5144D01*
D02*
G37*
G36*
X3277D02*
X3230D01*
X3239Y5123D01*
X3256Y5106D01*
X3277Y5097D01*
Y5144D01*
D02*
G37*
G36*
X3209D02*
X3162D01*
Y5097D01*
X3183Y5106D01*
X3200Y5123D01*
X3209Y5144D01*
D02*
G37*
G36*
X3137D02*
X3091D01*
X3099Y5123D01*
X3116Y5106D01*
X3137Y5097D01*
Y5144D01*
D02*
G37*
G36*
X2837D02*
X2781D01*
Y5088D01*
X2795Y5092D01*
X2811Y5101D01*
X2824Y5114D01*
X2833Y5129D01*
X2837Y5144D01*
D02*
G37*
G36*
X2756D02*
X2700D01*
X2704Y5129D01*
X2713Y5114D01*
X2726Y5101D01*
X2742Y5092D01*
X2756Y5088D01*
Y5144D01*
D02*
G37*
G36*
X6248Y5162D02*
Y5080D01*
X6330D01*
X6324Y5104D01*
X6311Y5125D01*
X6294Y5143D01*
X6272Y5155D01*
X6248Y5162D01*
D02*
G37*
G36*
X6223D02*
X6199Y5155D01*
X6178Y5143D01*
X6160Y5125D01*
X6148Y5104D01*
X6141Y5080D01*
X6223D01*
Y5162D01*
D02*
G37*
G36*
X6858Y5149D02*
Y5067D01*
X6940D01*
X6933Y5091D01*
X6921Y5113D01*
X6903Y5130D01*
X6882Y5143D01*
X6858Y5149D01*
D02*
G37*
G36*
X6833D02*
X6809Y5143D01*
X6787Y5130D01*
X6770Y5113D01*
X6757Y5091D01*
X6751Y5067D01*
X6833D01*
Y5149D01*
D02*
G37*
G36*
X2181Y5078D02*
X2162D01*
X2144Y5071D01*
X2130Y5057D01*
X2123Y5039D01*
Y5019D01*
X2130Y5001D01*
X2144Y4988D01*
X2162Y4980D01*
X2181D01*
X2199Y4988D01*
X2213Y5001D01*
X2221Y5019D01*
Y5039D01*
X2213Y5057D01*
X2199Y5071D01*
X2181Y5078D01*
D02*
G37*
G36*
X1800D02*
X1781D01*
X1763Y5071D01*
X1749Y5057D01*
X1742Y5039D01*
Y5019D01*
X1749Y5001D01*
X1763Y4988D01*
X1781Y4980D01*
X1800D01*
X1818Y4988D01*
X1832Y5001D01*
X1840Y5019D01*
Y5039D01*
X1832Y5057D01*
X1818Y5071D01*
X1800Y5078D01*
D02*
G37*
G36*
X6330Y5055D02*
X6248D01*
Y4973D01*
X6272Y4979D01*
X6294Y4992D01*
X6311Y5009D01*
X6324Y5031D01*
X6330Y5055D01*
D02*
G37*
G36*
X6223D02*
X6141D01*
X6148Y5031D01*
X6160Y5009D01*
X6178Y4992D01*
X6199Y4979D01*
X6223Y4973D01*
Y5055D01*
D02*
G37*
G36*
X6940Y5042D02*
X6858D01*
Y4960D01*
X6882Y4967D01*
X6903Y4979D01*
X6921Y4997D01*
X6933Y5018D01*
X6940Y5042D01*
D02*
G37*
G36*
X6833D02*
X6751D01*
X6757Y5018D01*
X6770Y4997D01*
X6787Y4979D01*
X6809Y4967D01*
X6833Y4960D01*
Y5042D01*
D02*
G37*
G36*
X1498Y4995D02*
Y4919D01*
X1574D01*
X1568Y4941D01*
X1557Y4961D01*
X1540Y4978D01*
X1520Y4989D01*
X1498Y4995D01*
D02*
G37*
G36*
X1473D02*
X1451Y4989D01*
X1431Y4978D01*
X1414Y4961D01*
X1403Y4941D01*
X1397Y4919D01*
X1473D01*
Y4995D01*
D02*
G37*
G36*
X1244D02*
Y4919D01*
X1320D01*
X1314Y4941D01*
X1303Y4961D01*
X1286Y4978D01*
X1266Y4989D01*
X1244Y4995D01*
D02*
G37*
G36*
X1219D02*
X1197Y4989D01*
X1177Y4978D01*
X1160Y4961D01*
X1149Y4941D01*
X1143Y4919D01*
X1219D01*
Y4995D01*
D02*
G37*
G36*
X5598Y5056D02*
X5578D01*
X5559Y5051D01*
X5542Y5041D01*
X5528Y5027D01*
X5518Y5010D01*
X5513Y4991D01*
Y4972D01*
X5518Y4952D01*
X5528Y4935D01*
X5542Y4921D01*
X5559Y4912D01*
X5578Y4906D01*
X5598D01*
X5617Y4912D01*
X5634Y4921D01*
X5648Y4935D01*
X5658Y4952D01*
X5663Y4972D01*
Y4991D01*
X5658Y5010D01*
X5648Y5027D01*
X5634Y5041D01*
X5617Y5051D01*
X5598Y5056D01*
D02*
G37*
G36*
X2181Y4951D02*
X2162D01*
X2144Y4944D01*
X2130Y4930D01*
X2123Y4912D01*
Y4892D01*
X2130Y4874D01*
X2144Y4861D01*
X2162Y4853D01*
X2181D01*
X2199Y4861D01*
X2213Y4874D01*
X2221Y4892D01*
Y4912D01*
X2213Y4930D01*
X2199Y4944D01*
X2181Y4951D01*
D02*
G37*
G36*
X2601Y4945D02*
X2581D01*
X2563Y4938D01*
X2549Y4924D01*
X2542Y4906D01*
Y4886D01*
X2549Y4868D01*
X2563Y4855D01*
X2581Y4847D01*
X2601D01*
X2619Y4855D01*
X2632Y4868D01*
X2640Y4886D01*
Y4906D01*
X2632Y4924D01*
X2619Y4938D01*
X2601Y4945D01*
D02*
G37*
G36*
X1473Y4894D02*
X1397D01*
X1403Y4872D01*
X1414Y4852D01*
X1414Y4852D01*
X1407Y4842D01*
X1393Y4850D01*
X1371Y4856D01*
Y4780D01*
X1447D01*
X1441Y4801D01*
X1430Y4821D01*
X1429Y4822D01*
X1437Y4832D01*
X1451Y4824D01*
X1473Y4818D01*
Y4894D01*
D02*
G37*
G36*
X3439Y4938D02*
X3419D01*
X3401Y4931D01*
X3387Y4917D01*
X3380Y4899D01*
Y4880D01*
X3387Y4862D01*
X3401Y4848D01*
X3419Y4840D01*
X3439D01*
X3457Y4848D01*
X3471Y4862D01*
X3478Y4880D01*
Y4899D01*
X3471Y4917D01*
X3457Y4931D01*
X3439Y4938D01*
D02*
G37*
G36*
X2994D02*
X2975D01*
X2957Y4931D01*
X2943Y4917D01*
X2935Y4899D01*
Y4880D01*
X2943Y4862D01*
X2957Y4848D01*
X2975Y4840D01*
X2994D01*
X3012Y4848D01*
X3026Y4862D01*
X3033Y4880D01*
Y4899D01*
X3026Y4917D01*
X3012Y4931D01*
X2994Y4938D01*
D02*
G37*
G36*
X683Y4926D02*
X663D01*
X645Y4918D01*
X632Y4905D01*
X624Y4887D01*
Y4867D01*
X632Y4849D01*
X645Y4835D01*
X663Y4828D01*
X683D01*
X701Y4835D01*
X715Y4849D01*
X722Y4867D01*
Y4887D01*
X715Y4905D01*
X701Y4918D01*
X683Y4926D01*
D02*
G37*
G36*
X530D02*
X511D01*
X493Y4918D01*
X479Y4905D01*
X472Y4887D01*
Y4867D01*
X479Y4849D01*
X493Y4835D01*
X511Y4828D01*
X530D01*
X548Y4835D01*
X562Y4849D01*
X570Y4867D01*
Y4887D01*
X562Y4905D01*
X548Y4918D01*
X530Y4926D01*
D02*
G37*
G36*
X813Y4922D02*
X794D01*
X776Y4915D01*
X762Y4901D01*
X755Y4883D01*
Y4864D01*
X762Y4846D01*
X776Y4832D01*
X794Y4824D01*
X813D01*
X831Y4832D01*
X845Y4846D01*
X853Y4864D01*
Y4883D01*
X845Y4901D01*
X831Y4915D01*
X813Y4922D01*
D02*
G37*
G36*
X1574Y4894D02*
X1498D01*
Y4818D01*
X1520Y4824D01*
X1540Y4835D01*
X1557Y4852D01*
X1568Y4872D01*
X1574Y4894D01*
D02*
G37*
G36*
X1219D02*
X1143D01*
X1149Y4872D01*
X1160Y4852D01*
X1177Y4835D01*
X1197Y4824D01*
X1219Y4818D01*
Y4894D01*
D02*
G37*
G36*
X1851Y4900D02*
X1832D01*
X1814Y4893D01*
X1800Y4879D01*
X1792Y4861D01*
Y4842D01*
X1800Y4824D01*
X1814Y4810D01*
X1832Y4802D01*
X1851D01*
X1869Y4810D01*
X1883Y4824D01*
X1891Y4842D01*
Y4861D01*
X1883Y4879D01*
X1869Y4893D01*
X1851Y4900D01*
D02*
G37*
G36*
X4899Y4888D02*
X4880D01*
X4862Y4880D01*
X4848Y4866D01*
X4840Y4848D01*
Y4829D01*
X4848Y4811D01*
X4862Y4797D01*
X4880Y4790D01*
X4899D01*
X4917Y4797D01*
X4931Y4811D01*
X4938Y4829D01*
Y4848D01*
X4931Y4866D01*
X4917Y4880D01*
X4899Y4888D01*
D02*
G37*
G36*
X4747D02*
X4727D01*
X4709Y4880D01*
X4696Y4866D01*
X4688Y4848D01*
Y4829D01*
X4696Y4811D01*
X4709Y4797D01*
X4727Y4790D01*
X4747D01*
X4765Y4797D01*
X4779Y4811D01*
X4786Y4829D01*
Y4848D01*
X4779Y4866D01*
X4765Y4880D01*
X4747Y4888D01*
D02*
G37*
G36*
X4594D02*
X4575D01*
X4557Y4880D01*
X4543Y4866D01*
X4536Y4848D01*
Y4829D01*
X4543Y4811D01*
X4557Y4797D01*
X4575Y4790D01*
X4594D01*
X4612Y4797D01*
X4626Y4811D01*
X4634Y4829D01*
Y4848D01*
X4626Y4866D01*
X4612Y4880D01*
X4594Y4888D01*
D02*
G37*
G36*
X4404D02*
X4384D01*
X4366Y4880D01*
X4353Y4866D01*
X4345Y4848D01*
Y4829D01*
X4353Y4811D01*
X4366Y4797D01*
X4384Y4790D01*
X4404D01*
X4422Y4797D01*
X4436Y4811D01*
X4443Y4829D01*
Y4848D01*
X4436Y4866D01*
X4422Y4880D01*
X4404Y4888D01*
D02*
G37*
G36*
X4252D02*
X4232D01*
X4214Y4880D01*
X4200Y4866D01*
X4193Y4848D01*
Y4829D01*
X4200Y4811D01*
X4214Y4797D01*
X4232Y4790D01*
X4252D01*
X4270Y4797D01*
X4283Y4811D01*
X4291Y4829D01*
Y4848D01*
X4283Y4866D01*
X4270Y4880D01*
X4252Y4888D01*
D02*
G37*
G36*
X4099D02*
X4080D01*
X4062Y4880D01*
X4048Y4866D01*
X4040Y4848D01*
Y4829D01*
X4048Y4811D01*
X4062Y4797D01*
X4080Y4790D01*
X4099D01*
X4117Y4797D01*
X4131Y4811D01*
X4138Y4829D01*
Y4848D01*
X4131Y4866D01*
X4117Y4880D01*
X4099Y4888D01*
D02*
G37*
G36*
X3693D02*
X3673D01*
X3655Y4880D01*
X3641Y4866D01*
X3634Y4848D01*
Y4829D01*
X3641Y4811D01*
X3655Y4797D01*
X3673Y4790D01*
X3693D01*
X3711Y4797D01*
X3725Y4811D01*
X3732Y4829D01*
Y4848D01*
X3725Y4866D01*
X3711Y4880D01*
X3693Y4888D01*
D02*
G37*
G36*
X3578D02*
X3559D01*
X3541Y4880D01*
X3527Y4866D01*
X3520Y4848D01*
Y4829D01*
X3527Y4811D01*
X3541Y4797D01*
X3559Y4790D01*
X3578D01*
X3596Y4797D01*
X3610Y4811D01*
X3618Y4829D01*
Y4848D01*
X3610Y4866D01*
X3596Y4880D01*
X3578Y4888D01*
D02*
G37*
G36*
X1320Y4894D02*
X1244D01*
Y4818D01*
X1266Y4824D01*
X1280Y4832D01*
X1287Y4822D01*
X1287Y4821D01*
X1276Y4801D01*
X1270Y4780D01*
X1346D01*
Y4856D01*
X1324Y4850D01*
X1310Y4842D01*
X1302Y4852D01*
X1303Y4852D01*
X1314Y4872D01*
X1320Y4894D01*
D02*
G37*
G36*
X5052Y4875D02*
X5032D01*
X5014Y4868D01*
X5000Y4854D01*
X4993Y4836D01*
Y4816D01*
X5000Y4798D01*
X5014Y4784D01*
X5032Y4777D01*
X5052D01*
X5070Y4784D01*
X5083Y4798D01*
X5091Y4816D01*
Y4836D01*
X5083Y4854D01*
X5070Y4868D01*
X5052Y4875D01*
D02*
G37*
G36*
X1346Y4754D02*
X1270D01*
X1272Y4746D01*
X1270Y4744D01*
X1261Y4737D01*
X1244Y4741D01*
Y4665D01*
X1320D01*
X1318Y4673D01*
X1319Y4676D01*
X1328Y4683D01*
X1346Y4678D01*
Y4754D01*
D02*
G37*
G36*
X2601Y4813D02*
X2581D01*
X2563Y4806D01*
X2549Y4792D01*
X2542Y4774D01*
Y4755D01*
X2549Y4737D01*
X2563Y4723D01*
X2581Y4715D01*
X2601D01*
X2619Y4723D01*
X2632Y4737D01*
X2640Y4755D01*
Y4774D01*
X2632Y4792D01*
X2619Y4806D01*
X2601Y4813D01*
D02*
G37*
G36*
X1762Y4785D02*
X1743D01*
X1725Y4777D01*
X1711Y4764D01*
X1704Y4746D01*
Y4726D01*
X1711Y4708D01*
X1725Y4694D01*
X1743Y4687D01*
X1762D01*
X1780Y4694D01*
X1794Y4708D01*
X1802Y4726D01*
Y4746D01*
X1794Y4764D01*
X1780Y4777D01*
X1762Y4785D01*
D02*
G37*
G36*
X2187Y4818D02*
X2168D01*
X2150Y4811D01*
X2136Y4797D01*
X2129Y4779D01*
Y4760D01*
X2136Y4742D01*
X2150Y4728D01*
X2168Y4720D01*
X2187D01*
X2205Y4728D01*
X2211Y4733D01*
X2224Y4728D01*
Y4715D01*
X2231Y4697D01*
X2245Y4684D01*
X2263Y4676D01*
X2282D01*
X2300Y4684D01*
X2314Y4697D01*
X2322Y4715D01*
Y4735D01*
X2314Y4753D01*
X2300Y4767D01*
X2282Y4774D01*
X2263D01*
X2245Y4767D01*
X2239Y4761D01*
X2227Y4766D01*
Y4779D01*
X2219Y4797D01*
X2205Y4811D01*
X2187Y4818D01*
D02*
G37*
G36*
X1498Y4741D02*
Y4665D01*
X1574D01*
X1568Y4687D01*
X1557Y4707D01*
X1540Y4724D01*
X1520Y4735D01*
X1498Y4741D01*
D02*
G37*
G36*
X1447Y4754D02*
X1371D01*
Y4678D01*
X1388Y4683D01*
X1397Y4676D01*
X1399Y4673D01*
X1397Y4665D01*
X1473D01*
Y4741D01*
X1455Y4737D01*
X1446Y4744D01*
X1445Y4746D01*
X1447Y4754D01*
D02*
G37*
G36*
X1219Y4741D02*
X1197Y4735D01*
X1177Y4724D01*
X1160Y4707D01*
X1149Y4687D01*
X1143Y4665D01*
X1219D01*
Y4741D01*
D02*
G37*
G36*
X975Y4761D02*
X955D01*
X937Y4753D01*
X924Y4739D01*
X916Y4721D01*
Y4702D01*
X924Y4684D01*
X937Y4670D01*
X955Y4663D01*
X975D01*
X993Y4670D01*
X1007Y4684D01*
X1014Y4702D01*
Y4721D01*
X1007Y4739D01*
X993Y4753D01*
X975Y4761D01*
D02*
G37*
G36*
X6857Y4848D02*
X6831D01*
X6807Y4841D01*
X6786Y4829D01*
X6768Y4811D01*
X6755Y4789D01*
X6749Y4765D01*
Y4740D01*
X6755Y4716D01*
X6768Y4694D01*
X6786Y4677D01*
X6807Y4664D01*
X6831Y4658D01*
X6857D01*
X6881Y4664D01*
X6902Y4677D01*
X6920Y4694D01*
X6933Y4716D01*
X6939Y4740D01*
Y4765D01*
X6933Y4789D01*
X6920Y4811D01*
X6902Y4829D01*
X6881Y4841D01*
X6857Y4848D01*
D02*
G37*
G36*
X6408Y4858D02*
X6380D01*
X6353Y4851D01*
X6330Y4837D01*
X6310Y4817D01*
X6296Y4793D01*
X6289Y4767D01*
Y4739D01*
X6296Y4712D01*
X6310Y4688D01*
X6330Y4669D01*
X6353Y4655D01*
X6380Y4648D01*
X6408D01*
X6435Y4655D01*
X6458Y4669D01*
X6478Y4688D01*
X6492Y4712D01*
X6499Y4739D01*
Y4767D01*
X6492Y4793D01*
X6478Y4817D01*
X6458Y4837D01*
X6435Y4851D01*
X6408Y4858D01*
D02*
G37*
G36*
X3134Y4786D02*
X3114D01*
X3096Y4779D01*
X3083Y4765D01*
X3075Y4747D01*
Y4727D01*
X3083Y4709D01*
X3091Y4701D01*
X3095Y4693D01*
X3091Y4684D01*
X3083Y4676D01*
X3075Y4658D01*
Y4638D01*
X3083Y4620D01*
X3096Y4607D01*
X3114Y4599D01*
X3134D01*
X3152Y4607D01*
X3166Y4620D01*
X3173Y4638D01*
Y4658D01*
X3166Y4676D01*
X3157Y4684D01*
X3153Y4693D01*
X3157Y4701D01*
X3166Y4709D01*
X3173Y4727D01*
Y4747D01*
X3166Y4765D01*
X3152Y4779D01*
X3134Y4786D01*
D02*
G37*
G36*
X2601Y4697D02*
X2581D01*
X2563Y4690D01*
X2549Y4676D01*
X2542Y4658D01*
Y4638D01*
X2549Y4620D01*
X2563Y4607D01*
X2581Y4599D01*
X2601D01*
X2619Y4607D01*
X2632Y4620D01*
X2640Y4638D01*
Y4658D01*
X2632Y4676D01*
X2619Y4690D01*
X2601Y4697D01*
D02*
G37*
G36*
X978Y4644D02*
Y4597D01*
X1024D01*
X1016Y4618D01*
X999Y4635D01*
X978Y4644D01*
D02*
G37*
G36*
X952D02*
X932Y4635D01*
X915Y4618D01*
X906Y4597D01*
X952D01*
Y4644D01*
D02*
G37*
G36*
X2956Y4672D02*
X2937D01*
X2919Y4664D01*
X2905Y4651D01*
X2897Y4633D01*
Y4613D01*
X2905Y4595D01*
X2919Y4581D01*
X2937Y4574D01*
X2956D01*
X2974Y4581D01*
X2988Y4595D01*
X2995Y4613D01*
Y4633D01*
X2988Y4651D01*
X2974Y4664D01*
X2956Y4672D01*
D02*
G37*
G36*
X1574Y4640D02*
X1498D01*
Y4564D01*
X1520Y4570D01*
X1540Y4581D01*
X1557Y4598D01*
X1568Y4618D01*
X1574Y4640D01*
D02*
G37*
G36*
X1473D02*
X1397D01*
X1403Y4618D01*
X1414Y4598D01*
X1431Y4581D01*
X1451Y4570D01*
X1473Y4564D01*
Y4640D01*
D02*
G37*
G36*
X1320D02*
X1244D01*
Y4564D01*
X1266Y4570D01*
X1286Y4581D01*
X1303Y4598D01*
X1314Y4618D01*
X1320Y4640D01*
D02*
G37*
G36*
X1219D02*
X1143D01*
X1149Y4618D01*
X1160Y4598D01*
X1177Y4581D01*
X1197Y4570D01*
X1219Y4564D01*
Y4640D01*
D02*
G37*
G36*
X3952Y4609D02*
Y4563D01*
X3999D01*
X3990Y4584D01*
X3973Y4601D01*
X3952Y4609D01*
D02*
G37*
G36*
X3927D02*
X3906Y4601D01*
X3889Y4584D01*
X3881Y4563D01*
X3927D01*
Y4609D01*
D02*
G37*
G36*
X5153Y4659D02*
X5134D01*
X5116Y4652D01*
X5102Y4638D01*
X5094Y4620D01*
Y4600D01*
X5102Y4582D01*
X5116Y4569D01*
X5134Y4561D01*
X5153D01*
X5171Y4569D01*
X5185Y4582D01*
X5192Y4600D01*
Y4620D01*
X5185Y4638D01*
X5171Y4652D01*
X5153Y4659D01*
D02*
G37*
G36*
X4420Y4606D02*
Y4559D01*
X4466D01*
X4457Y4580D01*
X4441Y4597D01*
X4420Y4606D01*
D02*
G37*
G36*
X4394D02*
X4373Y4597D01*
X4357Y4580D01*
X4348Y4559D01*
X4394D01*
Y4606D01*
D02*
G37*
G36*
X1024Y4572D02*
X978D01*
Y4526D01*
X999Y4534D01*
X1016Y4551D01*
X1024Y4572D01*
D02*
G37*
G36*
X952D02*
X906D01*
X915Y4551D01*
X932Y4534D01*
X952Y4526D01*
Y4572D01*
D02*
G37*
G36*
X3518Y4572D02*
Y4525D01*
X3564D01*
X3556Y4546D01*
X3539Y4563D01*
X3518Y4572D01*
D02*
G37*
G36*
X3492D02*
X3472Y4563D01*
X3455Y4546D01*
X3446Y4525D01*
X3492D01*
Y4572D01*
D02*
G37*
G36*
X3807Y4608D02*
X3788D01*
X3770Y4601D01*
X3756Y4587D01*
X3748Y4569D01*
Y4550D01*
X3756Y4532D01*
X3770Y4518D01*
X3788Y4510D01*
X3807D01*
X3825Y4518D01*
X3839Y4532D01*
X3846Y4550D01*
Y4569D01*
X3839Y4587D01*
X3825Y4601D01*
X3807Y4608D01*
D02*
G37*
G36*
X3248D02*
X3229D01*
X3211Y4601D01*
X3197Y4587D01*
X3190Y4569D01*
Y4550D01*
X3197Y4532D01*
X3211Y4518D01*
X3229Y4510D01*
X3248D01*
X3266Y4518D01*
X3280Y4532D01*
X3288Y4550D01*
Y4569D01*
X3280Y4587D01*
X3266Y4601D01*
X3248Y4608D01*
D02*
G37*
G36*
X2715D02*
X2695D01*
X2677Y4601D01*
X2664Y4587D01*
X2656Y4569D01*
Y4550D01*
X2664Y4532D01*
X2677Y4518D01*
X2695Y4510D01*
X2715D01*
X2733Y4518D01*
X2747Y4532D01*
X2754Y4550D01*
Y4569D01*
X2747Y4587D01*
X2733Y4601D01*
X2715Y4608D01*
D02*
G37*
G36*
X838Y4542D02*
Y4496D01*
X885D01*
X876Y4517D01*
X859Y4533D01*
X838Y4542D01*
D02*
G37*
G36*
X813D02*
X792Y4533D01*
X775Y4517D01*
X766Y4496D01*
X813D01*
Y4542D01*
D02*
G37*
G36*
X686D02*
Y4496D01*
X732D01*
X723Y4517D01*
X707Y4533D01*
X686Y4542D01*
D02*
G37*
G36*
X660D02*
X639Y4533D01*
X623Y4517D01*
X614Y4496D01*
X660D01*
Y4542D01*
D02*
G37*
G36*
X533D02*
Y4496D01*
X580D01*
X571Y4517D01*
X554Y4533D01*
X533Y4542D01*
D02*
G37*
G36*
X508D02*
X487Y4533D01*
X470Y4517D01*
X462Y4496D01*
X508D01*
Y4542D01*
D02*
G37*
G36*
X3999Y4537D02*
X3952D01*
Y4491D01*
X3973Y4500D01*
X3990Y4517D01*
X3999Y4537D01*
D02*
G37*
G36*
X3927D02*
X3881D01*
X3889Y4517D01*
X3906Y4500D01*
X3927Y4491D01*
Y4537D01*
D02*
G37*
G36*
X4466Y4534D02*
X4420D01*
Y4488D01*
X4441Y4496D01*
X4457Y4513D01*
X4466Y4534D01*
D02*
G37*
G36*
X4394D02*
X4348D01*
X4357Y4513D01*
X4373Y4496D01*
X4394Y4488D01*
Y4534D01*
D02*
G37*
G36*
X4609Y4560D02*
X4590D01*
X4572Y4552D01*
X4558Y4538D01*
X4551Y4520D01*
Y4501D01*
X4558Y4483D01*
X4572Y4469D01*
X4590Y4462D01*
X4609D01*
X4627Y4469D01*
X4641Y4483D01*
X4649Y4501D01*
Y4520D01*
X4641Y4538D01*
X4627Y4552D01*
X4609Y4560D01*
D02*
G37*
G36*
X4761Y4559D02*
X4742D01*
X4724Y4552D01*
X4710Y4538D01*
X4703Y4520D01*
Y4501D01*
X4710Y4483D01*
X4724Y4469D01*
X4742Y4461D01*
X4761D01*
X4779Y4469D01*
X4793Y4483D01*
X4801Y4501D01*
Y4520D01*
X4793Y4538D01*
X4779Y4552D01*
X4761Y4559D01*
D02*
G37*
G36*
X3564Y4500D02*
X3518D01*
Y4454D01*
X3539Y4462D01*
X3556Y4479D01*
X3564Y4500D01*
D02*
G37*
G36*
X3492D02*
X3446D01*
X3455Y4479D01*
X3472Y4462D01*
X3492Y4454D01*
Y4500D01*
D02*
G37*
G36*
X4953Y4479D02*
Y4432D01*
X4999D01*
X4991Y4453D01*
X4974Y4470D01*
X4953Y4479D01*
D02*
G37*
G36*
X4928D02*
X4907Y4470D01*
X4890Y4453D01*
X4881Y4432D01*
X4928D01*
Y4479D01*
D02*
G37*
G36*
X885Y4470D02*
X838D01*
Y4424D01*
X859Y4433D01*
X876Y4449D01*
X885Y4470D01*
D02*
G37*
G36*
X813D02*
X766D01*
X775Y4449D01*
X792Y4433D01*
X813Y4424D01*
Y4470D01*
D02*
G37*
G36*
X732D02*
X686D01*
Y4424D01*
X707Y4433D01*
X723Y4449D01*
X732Y4470D01*
D02*
G37*
G36*
X660D02*
X614D01*
X623Y4449D01*
X639Y4433D01*
X660Y4424D01*
Y4470D01*
D02*
G37*
G36*
X580D02*
X533D01*
Y4424D01*
X554Y4433D01*
X571Y4449D01*
X580Y4470D01*
D02*
G37*
G36*
X508D02*
X462D01*
X470Y4449D01*
X487Y4433D01*
X508Y4424D01*
Y4470D01*
D02*
G37*
G36*
X3680Y4519D02*
X3661D01*
X3643Y4512D01*
X3629Y4498D01*
X3621Y4480D01*
Y4461D01*
X3629Y4443D01*
X3643Y4429D01*
X3661Y4421D01*
X3680D01*
X3698Y4429D01*
X3712Y4443D01*
X3719Y4461D01*
Y4480D01*
X3712Y4498D01*
X3698Y4512D01*
X3680Y4519D01*
D02*
G37*
G36*
X5804Y4453D02*
Y4407D01*
X5850D01*
X5842Y4428D01*
X5825Y4445D01*
X5804Y4453D01*
D02*
G37*
G36*
X5778D02*
X5758Y4445D01*
X5741Y4428D01*
X5732Y4407D01*
X5778D01*
Y4453D01*
D02*
G37*
G36*
X2578Y4441D02*
Y4394D01*
X2624D01*
X2616Y4415D01*
X2599Y4432D01*
X2578Y4441D01*
D02*
G37*
G36*
X2553D02*
X2532Y4432D01*
X2515Y4415D01*
X2506Y4394D01*
X2553D01*
Y4441D01*
D02*
G37*
G36*
X2295Y4480D02*
X2275D01*
X2257Y4473D01*
X2243Y4459D01*
X2236Y4441D01*
Y4421D01*
X2243Y4403D01*
X2257Y4390D01*
X2275Y4382D01*
X2295D01*
X2313Y4390D01*
X2326Y4403D01*
X2334Y4421D01*
Y4441D01*
X2326Y4459D01*
X2313Y4473D01*
X2295Y4480D01*
D02*
G37*
G36*
X1826Y4545D02*
X1806D01*
X1788Y4537D01*
X1775Y4524D01*
X1767Y4506D01*
Y4486D01*
X1775Y4468D01*
X1788Y4454D01*
X1806Y4447D01*
X1826D01*
X1840Y4453D01*
X1850Y4444D01*
X1847Y4436D01*
Y4417D01*
X1855Y4399D01*
X1868Y4385D01*
X1886Y4378D01*
X1906D01*
X1924Y4385D01*
X1938Y4399D01*
X1945Y4417D01*
Y4436D01*
X1938Y4454D01*
X1924Y4468D01*
X1906Y4476D01*
X1886D01*
X1872Y4470D01*
X1862Y4478D01*
X1865Y4486D01*
Y4506D01*
X1858Y4524D01*
X1844Y4537D01*
X1826Y4545D01*
D02*
G37*
G36*
X1737Y4469D02*
X1717D01*
X1699Y4461D01*
X1686Y4447D01*
X1678Y4429D01*
Y4410D01*
X1686Y4392D01*
X1699Y4378D01*
X1717Y4371D01*
X1737D01*
X1755Y4378D01*
X1769Y4392D01*
X1776Y4410D01*
Y4429D01*
X1769Y4447D01*
X1755Y4461D01*
X1737Y4469D01*
D02*
G37*
G36*
X2880Y4456D02*
X2860D01*
X2842Y4448D01*
X2829Y4435D01*
X2821Y4417D01*
Y4397D01*
X2829Y4379D01*
X2842Y4365D01*
X2860Y4358D01*
X2880D01*
X2898Y4365D01*
X2912Y4379D01*
X2919Y4397D01*
Y4417D01*
X2912Y4435D01*
X2898Y4448D01*
X2880Y4456D01*
D02*
G37*
G36*
X1102Y4443D02*
X1082D01*
X1064Y4436D01*
X1051Y4422D01*
X1043Y4404D01*
Y4384D01*
X1051Y4366D01*
X1064Y4353D01*
X1082Y4345D01*
X1102D01*
X1120Y4353D01*
X1134Y4366D01*
X1141Y4384D01*
Y4404D01*
X1134Y4422D01*
X1120Y4436D01*
X1102Y4443D01*
D02*
G37*
G36*
X5850Y4381D02*
X5804D01*
Y4335D01*
X5825Y4344D01*
X5842Y4361D01*
X5850Y4381D01*
D02*
G37*
G36*
X5778D02*
X5732D01*
X5741Y4361D01*
X5758Y4344D01*
X5778Y4335D01*
Y4381D01*
D02*
G37*
G36*
X1242Y4431D02*
X1222D01*
X1204Y4423D01*
X1190Y4409D01*
X1183Y4391D01*
Y4372D01*
X1190Y4354D01*
X1204Y4340D01*
X1222Y4333D01*
X1242D01*
X1260Y4340D01*
X1273Y4354D01*
X1281Y4372D01*
Y4391D01*
X1273Y4409D01*
X1260Y4423D01*
X1242Y4431D01*
D02*
G37*
G36*
X7060Y4491D02*
X7037D01*
X7016Y4485D01*
X6997Y4474D01*
X6981Y4458D01*
X6970Y4439D01*
X6964Y4418D01*
Y4396D01*
X6970Y4374D01*
X6981Y4355D01*
X6997Y4340D01*
X7016Y4329D01*
X7037Y4323D01*
X7060D01*
X7081Y4329D01*
X7100Y4340D01*
X7116Y4355D01*
X7127Y4374D01*
X7132Y4396D01*
Y4418D01*
X7127Y4439D01*
X7116Y4458D01*
X7100Y4474D01*
X7081Y4485D01*
X7060Y4491D01*
D02*
G37*
G36*
X2624Y4369D02*
X2578D01*
Y4322D01*
X2599Y4331D01*
X2616Y4348D01*
X2624Y4369D01*
D02*
G37*
G36*
X2553D02*
X2506D01*
X2515Y4348D01*
X2532Y4331D01*
X2553Y4322D01*
Y4369D01*
D02*
G37*
G36*
X1905Y4339D02*
Y4293D01*
X1951D01*
X1943Y4314D01*
X1926Y4330D01*
X1905Y4339D01*
D02*
G37*
G36*
X1880D02*
X1859Y4330D01*
X1842Y4314D01*
X1833Y4293D01*
X1880D01*
Y4339D01*
D02*
G37*
G36*
X2295Y4335D02*
Y4289D01*
X2341D01*
X2333Y4310D01*
X2316Y4326D01*
X2295Y4335D01*
D02*
G37*
G36*
X2269D02*
X2249Y4326D01*
X2232Y4310D01*
X2223Y4289D01*
X2269D01*
Y4335D01*
D02*
G37*
G36*
X3167Y4450D02*
X3147D01*
X3129Y4443D01*
X3115Y4429D01*
X3108Y4411D01*
Y4392D01*
X3115Y4374D01*
X3129Y4360D01*
X3147Y4352D01*
X3156D01*
X3158Y4340D01*
X3149Y4336D01*
X3135Y4322D01*
X3128Y4304D01*
Y4285D01*
X3135Y4267D01*
X3149Y4253D01*
X3167Y4246D01*
X3187D01*
X3205Y4253D01*
X3218Y4267D01*
X3226Y4285D01*
Y4304D01*
X3218Y4322D01*
X3205Y4336D01*
X3187Y4344D01*
X3178D01*
X3176Y4356D01*
X3185Y4360D01*
X3198Y4374D01*
X3206Y4392D01*
Y4411D01*
X3198Y4429D01*
X3185Y4443D01*
X3167Y4450D01*
D02*
G37*
G36*
X1174Y4337D02*
X1154D01*
X1136Y4330D01*
X1122Y4316D01*
X1115Y4298D01*
Y4278D01*
X1122Y4260D01*
X1136Y4247D01*
X1154Y4239D01*
X1174D01*
X1192Y4247D01*
X1205Y4260D01*
X1213Y4278D01*
Y4298D01*
X1205Y4316D01*
X1192Y4330D01*
X1174Y4337D01*
D02*
G37*
G36*
X3733Y4280D02*
Y4233D01*
X3780D01*
X3771Y4254D01*
X3754Y4271D01*
X3733Y4280D01*
D02*
G37*
G36*
X3708D02*
X3687Y4271D01*
X3670Y4254D01*
X3662Y4233D01*
X3708D01*
Y4280D01*
D02*
G37*
G36*
X1951Y4267D02*
X1905D01*
Y4221D01*
X1926Y4230D01*
X1943Y4246D01*
X1951Y4267D01*
D02*
G37*
G36*
X1880D02*
X1833D01*
X1842Y4246D01*
X1859Y4230D01*
X1880Y4221D01*
Y4267D01*
D02*
G37*
G36*
X2341Y4263D02*
X2295D01*
Y4217D01*
X2316Y4226D01*
X2333Y4242D01*
X2341Y4263D01*
D02*
G37*
G36*
X2269D02*
X2223D01*
X2232Y4242D01*
X2249Y4226D01*
X2269Y4217D01*
Y4263D01*
D02*
G37*
G36*
X5340Y4300D02*
X5321D01*
X5303Y4293D01*
X5289Y4279D01*
X5281Y4261D01*
Y4242D01*
X5289Y4224D01*
X5303Y4210D01*
X5321Y4202D01*
X5340D01*
X5358Y4210D01*
X5372Y4224D01*
X5379Y4242D01*
Y4261D01*
X5372Y4279D01*
X5358Y4293D01*
X5340Y4300D01*
D02*
G37*
G36*
X2880Y4278D02*
X2860D01*
X2842Y4271D01*
X2829Y4257D01*
X2821Y4239D01*
Y4219D01*
X2829Y4201D01*
X2842Y4188D01*
X2860Y4180D01*
X2880D01*
X2898Y4188D01*
X2912Y4201D01*
X2919Y4219D01*
Y4239D01*
X2912Y4257D01*
X2898Y4271D01*
X2880Y4278D01*
D02*
G37*
G36*
X3780Y4208D02*
X3733D01*
Y4162D01*
X3754Y4170D01*
X3771Y4187D01*
X3780Y4208D01*
D02*
G37*
G36*
X3708D02*
X3662D01*
X3670Y4187D01*
X3687Y4170D01*
X3708Y4162D01*
Y4208D01*
D02*
G37*
G36*
X3528Y4253D02*
X3508D01*
X3490Y4245D01*
X3476Y4231D01*
X3469Y4213D01*
Y4194D01*
X3476Y4176D01*
X3490Y4162D01*
X3508Y4155D01*
X3528D01*
X3546Y4162D01*
X3559Y4176D01*
X3567Y4194D01*
Y4213D01*
X3559Y4231D01*
X3546Y4245D01*
X3528Y4253D01*
D02*
G37*
G36*
X1724Y4253D02*
X1705D01*
X1687Y4245D01*
X1673Y4231D01*
X1666Y4213D01*
Y4194D01*
X1673Y4176D01*
X1687Y4162D01*
X1705Y4155D01*
X1724D01*
X1742Y4162D01*
X1756Y4176D01*
X1764Y4194D01*
Y4213D01*
X1756Y4231D01*
X1742Y4245D01*
X1724Y4253D01*
D02*
G37*
G36*
X1585D02*
X1565D01*
X1547Y4245D01*
X1533Y4231D01*
X1526Y4213D01*
Y4194D01*
X1533Y4176D01*
X1547Y4162D01*
X1565Y4155D01*
X1585D01*
X1603Y4162D01*
X1616Y4176D01*
X1624Y4194D01*
Y4213D01*
X1616Y4231D01*
X1603Y4245D01*
X1585Y4253D01*
D02*
G37*
G36*
X826Y4196D02*
Y4140D01*
X881D01*
X877Y4154D01*
X868Y4170D01*
X855Y4183D01*
X840Y4192D01*
X826Y4196D01*
D02*
G37*
G36*
X800D02*
X786Y4192D01*
X770Y4183D01*
X757Y4170D01*
X748Y4154D01*
X744Y4140D01*
X800D01*
Y4196D01*
D02*
G37*
G36*
X1307Y4302D02*
X1288D01*
X1269Y4294D01*
X1256Y4280D01*
X1248Y4262D01*
Y4243D01*
X1256Y4225D01*
X1269Y4211D01*
X1288Y4204D01*
X1303D01*
X1310Y4195D01*
X1312Y4192D01*
X1310Y4188D01*
Y4169D01*
X1317Y4151D01*
X1331Y4137D01*
X1349Y4129D01*
X1369D01*
X1387Y4137D01*
X1400Y4151D01*
X1408Y4169D01*
Y4188D01*
X1400Y4206D01*
X1387Y4220D01*
X1369Y4227D01*
X1354D01*
X1346Y4236D01*
X1345Y4239D01*
X1346Y4243D01*
Y4262D01*
X1339Y4280D01*
X1325Y4294D01*
X1307Y4302D01*
D02*
G37*
G36*
X4999Y4407D02*
X4881D01*
X4890Y4386D01*
X4906Y4370D01*
X4890Y4354D01*
X4881Y4333D01*
Y4309D01*
X4890Y4288D01*
X4900Y4278D01*
X4906Y4269D01*
X4900Y4261D01*
X4890Y4251D01*
X4881Y4230D01*
Y4206D01*
X4890Y4185D01*
X4899Y4175D01*
X4905Y4166D01*
X4899Y4159D01*
X4889Y4148D01*
X4880Y4128D01*
X4998D01*
X4990Y4148D01*
X4980Y4158D01*
X4974Y4167D01*
X4980Y4175D01*
X4990Y4185D01*
X4999Y4206D01*
Y4230D01*
X4990Y4251D01*
X4981Y4261D01*
X4975Y4269D01*
X4981Y4278D01*
X4990Y4288D01*
X4999Y4309D01*
Y4333D01*
X4990Y4354D01*
X4975Y4370D01*
X4991Y4386D01*
X4999Y4407D01*
D02*
G37*
G36*
X2019Y4161D02*
Y4115D01*
X2066D01*
X2057Y4136D01*
X2040Y4152D01*
X2019Y4161D01*
D02*
G37*
G36*
X1994D02*
X1973Y4152D01*
X1956Y4136D01*
X1948Y4115D01*
X1994D01*
Y4161D01*
D02*
G37*
G36*
X4330Y4140D02*
Y4094D01*
X4376D01*
X4368Y4115D01*
X4351Y4131D01*
X4330Y4140D01*
D02*
G37*
G36*
X4305D02*
X4284Y4131D01*
X4267Y4115D01*
X4258Y4094D01*
X4305D01*
Y4140D01*
D02*
G37*
G36*
X5656Y4204D02*
X5632D01*
X5610Y4195D01*
X5594Y4179D01*
X5585Y4157D01*
Y4134D01*
X5594Y4112D01*
X5610Y4095D01*
X5632Y4086D01*
X5656D01*
X5677Y4095D01*
X5694Y4112D01*
X5703Y4134D01*
Y4157D01*
X5694Y4179D01*
X5677Y4195D01*
X5656Y4204D01*
D02*
G37*
G36*
X881Y4115D02*
X826D01*
Y4059D01*
X840Y4063D01*
X855Y4072D01*
X868Y4085D01*
X877Y4101D01*
X881Y4115D01*
D02*
G37*
G36*
X800D02*
X744D01*
X748Y4101D01*
X757Y4085D01*
X770Y4072D01*
X786Y4063D01*
X800Y4059D01*
Y4115D01*
D02*
G37*
G36*
X4998Y4102D02*
X4952D01*
Y4056D01*
X4973Y4064D01*
X4990Y4081D01*
X4998Y4102D01*
D02*
G37*
G36*
X4927D02*
X4880D01*
X4889Y4081D01*
X4906Y4064D01*
X4927Y4056D01*
Y4102D01*
D02*
G37*
G36*
X4376Y4068D02*
X4330D01*
Y4022D01*
X4351Y4030D01*
X4368Y4047D01*
X4376Y4068D01*
D02*
G37*
G36*
X4305D02*
X4258D01*
X4267Y4047D01*
X4284Y4030D01*
X4305Y4022D01*
Y4068D01*
D02*
G37*
G36*
X2066Y4089D02*
X1948D01*
X1956Y4068D01*
X1973Y4052D01*
X1988Y4045D01*
Y4032D01*
X1973Y4025D01*
X1956Y4009D01*
X1948Y3988D01*
X2066D01*
X2057Y4009D01*
X2040Y4025D01*
X2025Y4032D01*
Y4045D01*
X2040Y4052D01*
X2057Y4068D01*
X2066Y4089D01*
D02*
G37*
G36*
X3883Y4049D02*
X3864D01*
X3846Y4042D01*
X3832Y4028D01*
X3824Y4010D01*
Y3991D01*
X3832Y3973D01*
X3846Y3959D01*
X3864Y3951D01*
X3883D01*
X3901Y3959D01*
X3915Y3973D01*
X3922Y3991D01*
Y4010D01*
X3915Y4028D01*
X3901Y4042D01*
X3883Y4049D01*
D02*
G37*
G36*
X2066Y3962D02*
X2019D01*
Y3916D01*
X2040Y3925D01*
X2057Y3941D01*
X2066Y3962D01*
D02*
G37*
G36*
X1994D02*
X1948D01*
X1956Y3941D01*
X1973Y3925D01*
X1994Y3916D01*
Y3962D01*
D02*
G37*
G36*
X5016Y4034D02*
X4992D01*
X4970Y4025D01*
X4954Y4009D01*
X4945Y3987D01*
Y3963D01*
X4954Y3942D01*
X4970Y3925D01*
X4992Y3916D01*
X5016D01*
X5037Y3925D01*
X5054Y3942D01*
X5063Y3963D01*
Y3987D01*
X5054Y4009D01*
X5037Y4025D01*
X5016Y4034D01*
D02*
G37*
G36*
X6654Y3996D02*
X6630D01*
X6609Y3987D01*
X6592Y3970D01*
X6583Y3949D01*
Y3925D01*
X6592Y3904D01*
X6609Y3887D01*
X6630Y3878D01*
X6654D01*
X6676Y3887D01*
X6692Y3904D01*
X6701Y3925D01*
Y3949D01*
X6692Y3970D01*
X6676Y3987D01*
X6654Y3996D01*
D02*
G37*
G36*
X5004Y3882D02*
Y3835D01*
X5050D01*
X5041Y3856D01*
X5025Y3873D01*
X5004Y3882D01*
D02*
G37*
G36*
X4978D02*
X4957Y3873D01*
X4941Y3856D01*
X4932Y3835D01*
X4978D01*
Y3882D01*
D02*
G37*
G36*
X6921Y3844D02*
Y3797D01*
X6968D01*
X6959Y3818D01*
X6942Y3835D01*
X6921Y3844D01*
D02*
G37*
G36*
X6896D02*
X6875Y3835D01*
X6858Y3818D01*
X6850Y3797D01*
X6896D01*
Y3844D01*
D02*
G37*
G36*
X6236D02*
Y3797D01*
X6282D01*
X6273Y3818D01*
X6257Y3835D01*
X6236Y3844D01*
D02*
G37*
G36*
X6210D02*
X6189Y3835D01*
X6173Y3818D01*
X6164Y3797D01*
X6210D01*
Y3844D01*
D02*
G37*
G36*
X5331Y3872D02*
X5312D01*
X5294Y3864D01*
X5280Y3851D01*
X5272Y3833D01*
Y3813D01*
X5280Y3795D01*
X5294Y3781D01*
X5312Y3774D01*
X5331D01*
X5349Y3781D01*
X5363Y3795D01*
X5370Y3813D01*
Y3833D01*
X5363Y3851D01*
X5349Y3864D01*
X5331Y3872D01*
D02*
G37*
G36*
X5050Y3810D02*
X5004D01*
Y3764D01*
X5025Y3772D01*
X5041Y3789D01*
X5050Y3810D01*
D02*
G37*
G36*
X4978D02*
X4932D01*
X4941Y3789D01*
X4957Y3772D01*
X4978Y3764D01*
Y3810D01*
D02*
G37*
G36*
X4331Y3806D02*
Y3759D01*
X4377D01*
X4368Y3780D01*
X4352Y3797D01*
X4331Y3806D01*
D02*
G37*
G36*
X4305D02*
X4284Y3797D01*
X4268Y3780D01*
X4259Y3759D01*
X4305D01*
Y3806D01*
D02*
G37*
G36*
X1483Y4138D02*
X1463D01*
X1445Y4131D01*
X1432Y4117D01*
X1424Y4099D01*
Y4080D01*
X1432Y4062D01*
X1438Y4055D01*
X1433Y4042D01*
X330Y4042D01*
X319Y4037D01*
X217Y3936D01*
X212Y3924D01*
X212Y2832D01*
X217Y2821D01*
X319Y2719D01*
X330Y2714D01*
X1835D01*
X2097Y2452D01*
X2108Y2448D01*
X2769D01*
X2780Y2452D01*
X2818Y2490D01*
X2823Y2502D01*
Y2762D01*
X2915Y2854D01*
X3086D01*
X3098Y2859D01*
X3129Y2890D01*
X3144Y2887D01*
X3146Y2881D01*
X3160Y2867D01*
X3178Y2859D01*
X3197D01*
X3215Y2867D01*
X3229Y2881D01*
X3237Y2899D01*
Y2918D01*
X3229Y2936D01*
X3215Y2950D01*
X3197Y2957D01*
X3178D01*
X3160Y2950D01*
X3153Y2943D01*
X3140Y2948D01*
Y3023D01*
X3136Y3034D01*
X3098Y3072D01*
X3086Y3077D01*
X2032D01*
X2013Y3077D01*
X1870Y3220D01*
Y3664D01*
X1950Y3743D01*
X2006D01*
X2015Y3730D01*
X2011Y3721D01*
X2129D01*
X2125Y3730D01*
X2134Y3743D01*
X2438D01*
X2447Y3730D01*
X2443Y3721D01*
X2561D01*
X2557Y3730D01*
X2566Y3743D01*
X2806D01*
X2814Y3730D01*
X2808Y3718D01*
Y3699D01*
X2816Y3681D01*
X2830Y3667D01*
X2848Y3659D01*
X2867D01*
X2885Y3667D01*
X2899Y3681D01*
X2907Y3699D01*
Y3718D01*
X2901Y3730D01*
X2909Y3743D01*
X3058D01*
X3059Y3741D01*
X3063Y3734D01*
X3183D01*
X3182Y3736D01*
X3192Y3745D01*
X3210D01*
X3228Y3753D01*
X3242Y3766D01*
X3249Y3784D01*
Y3804D01*
X3242Y3822D01*
X3232Y3832D01*
X3229Y3840D01*
X3232Y3848D01*
X3242Y3858D01*
X3249Y3876D01*
Y3896D01*
X3242Y3914D01*
X3228Y3928D01*
X3210Y3935D01*
X3191D01*
X3173Y3928D01*
X3159Y3914D01*
X3151Y3896D01*
Y3876D01*
X3159Y3858D01*
X3169Y3848D01*
X3171Y3840D01*
X3169Y3832D01*
X3159Y3822D01*
X3153Y3808D01*
X3140Y3811D01*
Y3848D01*
X3136Y3860D01*
X3110Y3885D01*
X3099Y3890D01*
X1746D01*
X1580Y4038D01*
X1574Y4040D01*
X1569Y4042D01*
X1513D01*
X1508Y4055D01*
X1515Y4062D01*
X1522Y4080D01*
Y4099D01*
X1515Y4117D01*
X1501Y4131D01*
X1483Y4138D01*
D02*
G37*
G36*
X6968Y3772D02*
X6921D01*
Y3726D01*
X6942Y3734D01*
X6959Y3751D01*
X6968Y3772D01*
D02*
G37*
G36*
X6896D02*
X6850D01*
X6858Y3751D01*
X6875Y3734D01*
X6896Y3726D01*
Y3772D01*
D02*
G37*
G36*
X6282D02*
X6236D01*
Y3726D01*
X6257Y3734D01*
X6273Y3751D01*
X6282Y3772D01*
D02*
G37*
G36*
X6210D02*
X6164D01*
X6173Y3751D01*
X6189Y3734D01*
X6210Y3726D01*
Y3772D01*
D02*
G37*
G36*
X4377Y3734D02*
X4331D01*
Y3687D01*
X4352Y3696D01*
X4368Y3713D01*
X4377Y3734D01*
D02*
G37*
G36*
X4305D02*
X4259D01*
X4268Y3713D01*
X4284Y3696D01*
X4305Y3687D01*
Y3734D01*
D02*
G37*
G36*
X3183Y3708D02*
X3137D01*
Y3662D01*
X3158Y3671D01*
X3175Y3687D01*
X3183Y3708D01*
D02*
G37*
G36*
X3111D02*
X3065D01*
X3074Y3687D01*
X3091Y3671D01*
X3111Y3662D01*
Y3708D01*
D02*
G37*
G36*
X2129Y3696D02*
X2083D01*
Y3649D01*
X2104Y3658D01*
X2120Y3675D01*
X2129Y3696D01*
D02*
G37*
G36*
X2057D02*
X2011D01*
X2020Y3675D01*
X2036Y3658D01*
X2057Y3649D01*
Y3696D01*
D02*
G37*
G36*
X6921Y3691D02*
Y3645D01*
X6968D01*
X6959Y3666D01*
X6942Y3683D01*
X6921Y3691D01*
D02*
G37*
G36*
X6896D02*
X6875Y3683D01*
X6858Y3666D01*
X6850Y3645D01*
X6896D01*
Y3691D01*
D02*
G37*
G36*
X6236D02*
Y3645D01*
X6282D01*
X6273Y3666D01*
X6257Y3683D01*
X6236Y3691D01*
D02*
G37*
G36*
X6210D02*
X6189Y3683D01*
X6173Y3666D01*
X6164Y3645D01*
X6210D01*
Y3691D01*
D02*
G37*
G36*
X5511Y3831D02*
X5487D01*
X5466Y3822D01*
X5449Y3805D01*
X5440Y3784D01*
Y3760D01*
X5449Y3738D01*
X5466Y3722D01*
X5468Y3721D01*
Y3708D01*
X5466Y3708D01*
X5449Y3691D01*
X5440Y3669D01*
Y3646D01*
X5449Y3624D01*
X5466Y3608D01*
X5487Y3599D01*
X5511D01*
X5533Y3608D01*
X5549Y3624D01*
X5558Y3646D01*
Y3669D01*
X5549Y3691D01*
X5533Y3708D01*
X5531Y3708D01*
Y3721D01*
X5533Y3722D01*
X5549Y3738D01*
X5558Y3760D01*
Y3784D01*
X5549Y3805D01*
X5533Y3822D01*
X5511Y3831D01*
D02*
G37*
G36*
X3324Y3694D02*
X3305D01*
X3287Y3686D01*
X3273Y3673D01*
X3266Y3655D01*
Y3635D01*
X3273Y3617D01*
X3287Y3603D01*
X3305Y3596D01*
X3324D01*
X3342Y3603D01*
X3356Y3617D01*
X3364Y3635D01*
Y3655D01*
X3356Y3673D01*
X3342Y3686D01*
X3324Y3694D01*
D02*
G37*
G36*
X6968Y3619D02*
X6921D01*
Y3573D01*
X6942Y3582D01*
X6959Y3599D01*
X6968Y3619D01*
D02*
G37*
G36*
X6896D02*
X6850D01*
X6858Y3599D01*
X6875Y3582D01*
X6896Y3573D01*
Y3619D01*
D02*
G37*
G36*
X6282D02*
X6236D01*
Y3573D01*
X6257Y3582D01*
X6273Y3599D01*
X6282Y3619D01*
D02*
G37*
G36*
X6210D02*
X6164D01*
X6173Y3599D01*
X6189Y3582D01*
X6210Y3573D01*
Y3619D01*
D02*
G37*
G36*
X2561Y3696D02*
X2443D01*
X2446Y3688D01*
X2441Y3681D01*
X2423Y3674D01*
X2410Y3660D01*
X2402Y3642D01*
Y3622D01*
X2410Y3604D01*
X2423Y3591D01*
X2431Y3587D01*
X2434Y3572D01*
X2426Y3564D01*
X2417Y3543D01*
X2536D01*
X2527Y3564D01*
X2510Y3581D01*
X2494Y3588D01*
X2490Y3601D01*
X2490Y3602D01*
X2493Y3604D01*
X2500Y3622D01*
Y3642D01*
X2505Y3649D01*
X2514D01*
X2536Y3658D01*
X2552Y3675D01*
X2561Y3696D01*
D02*
G37*
G36*
X2867Y3605D02*
X2848D01*
X2830Y3598D01*
X2816Y3584D01*
X2808Y3566D01*
Y3546D01*
X2816Y3528D01*
X2830Y3514D01*
X2848Y3507D01*
X2867D01*
X2885Y3514D01*
X2899Y3528D01*
X2907Y3546D01*
Y3566D01*
X2899Y3584D01*
X2885Y3598D01*
X2867Y3605D01*
D02*
G37*
G36*
X3261Y3580D02*
X3241D01*
X3223Y3572D01*
X3210Y3558D01*
X3202Y3540D01*
Y3521D01*
X3210Y3503D01*
X3223Y3489D01*
X3241Y3482D01*
X3261D01*
X3279Y3489D01*
X3293Y3503D01*
X3300Y3521D01*
Y3540D01*
X3293Y3558D01*
X3279Y3572D01*
X3261Y3580D01*
D02*
G37*
G36*
X2536Y3518D02*
X2489D01*
Y3472D01*
X2510Y3480D01*
X2527Y3497D01*
X2536Y3518D01*
D02*
G37*
G36*
X2464D02*
X2417D01*
X2426Y3497D01*
X2443Y3480D01*
X2464Y3472D01*
Y3518D01*
D02*
G37*
G36*
X2206Y3505D02*
Y3458D01*
X2252D01*
X2244Y3479D01*
X2227Y3496D01*
X2206Y3505D01*
D02*
G37*
G36*
X2181D02*
X2160Y3496D01*
X2143Y3479D01*
X2134Y3458D01*
X2181D01*
Y3505D01*
D02*
G37*
G36*
X6033Y3510D02*
Y3454D01*
X6088D01*
X6084Y3468D01*
X6075Y3484D01*
X6062Y3497D01*
X6047Y3506D01*
X6033Y3510D01*
D02*
G37*
G36*
X6007D02*
X5993Y3506D01*
X5977Y3497D01*
X5964Y3484D01*
X5955Y3468D01*
X5951Y3454D01*
X6007D01*
Y3510D01*
D02*
G37*
G36*
X7112Y3497D02*
Y3442D01*
X7168D01*
X7164Y3456D01*
X7155Y3472D01*
X7142Y3485D01*
X7126Y3494D01*
X7112Y3497D01*
D02*
G37*
G36*
X7087D02*
X7073Y3494D01*
X7057Y3485D01*
X7044Y3472D01*
X7035Y3456D01*
X7031Y3442D01*
X7087D01*
Y3497D01*
D02*
G37*
G36*
X3696Y3463D02*
Y3416D01*
X3742D01*
X3733Y3437D01*
X3717Y3454D01*
X3696Y3463D01*
D02*
G37*
G36*
X3670D02*
X3649Y3454D01*
X3633Y3437D01*
X3624Y3416D01*
X3670D01*
Y3463D01*
D02*
G37*
G36*
X2363Y3494D02*
X2344D01*
X2326Y3487D01*
X2312Y3473D01*
X2304Y3455D01*
Y3436D01*
X2312Y3418D01*
X2326Y3404D01*
X2344Y3397D01*
X2363D01*
X2381Y3404D01*
X2395Y3418D01*
X2402Y3436D01*
Y3455D01*
X2395Y3473D01*
X2381Y3487D01*
X2363Y3494D01*
D02*
G37*
G36*
X6088Y3429D02*
X6033D01*
Y3373D01*
X6047Y3377D01*
X6062Y3386D01*
X6075Y3399D01*
X6084Y3415D01*
X6088Y3429D01*
D02*
G37*
G36*
X6007D02*
X5951D01*
X5955Y3415D01*
X5964Y3399D01*
X5977Y3386D01*
X5993Y3377D01*
X6007Y3373D01*
Y3429D01*
D02*
G37*
G36*
X7168Y3416D02*
X7112D01*
Y3361D01*
X7126Y3364D01*
X7142Y3373D01*
X7155Y3386D01*
X7164Y3402D01*
X7168Y3416D01*
D02*
G37*
G36*
X7087D02*
X7031D01*
X7035Y3402D01*
X7044Y3386D01*
X7057Y3373D01*
X7073Y3364D01*
X7087Y3361D01*
Y3416D01*
D02*
G37*
G36*
X3742Y3391D02*
X3696D01*
Y3345D01*
X3717Y3353D01*
X3733Y3370D01*
X3742Y3391D01*
D02*
G37*
G36*
X3670D02*
X3624D01*
X3633Y3370D01*
X3649Y3353D01*
X3670Y3345D01*
Y3391D01*
D02*
G37*
G36*
X2252Y3433D02*
X2134D01*
X2143Y3412D01*
X2160Y3395D01*
X2166Y3393D01*
Y3379D01*
X2163Y3378D01*
X2147Y3361D01*
X2138Y3340D01*
X2256D01*
X2247Y3361D01*
X2231Y3378D01*
X2224Y3380D01*
Y3394D01*
X2227Y3395D01*
X2244Y3412D01*
X2252Y3433D01*
D02*
G37*
G36*
X2256Y3315D02*
X2210D01*
Y3268D01*
X2231Y3277D01*
X2247Y3294D01*
X2256Y3315D01*
D02*
G37*
G36*
X2184D02*
X2138D01*
X2147Y3294D01*
X2163Y3277D01*
X2184Y3268D01*
Y3315D01*
D02*
G37*
G36*
X3182Y3345D02*
X3163D01*
X3145Y3337D01*
X3131Y3323D01*
X3123Y3305D01*
Y3286D01*
X3131Y3268D01*
X3145Y3254D01*
X3163Y3247D01*
X3182D01*
X3200Y3254D01*
X3214Y3268D01*
X3221Y3286D01*
Y3305D01*
X3214Y3323D01*
X3200Y3337D01*
X3182Y3345D01*
D02*
G37*
G36*
X7112Y3269D02*
Y3213D01*
X7168D01*
X7164Y3227D01*
X7155Y3243D01*
X7142Y3256D01*
X7126Y3265D01*
X7112Y3269D01*
D02*
G37*
G36*
X7087D02*
X7073Y3265D01*
X7057Y3256D01*
X7044Y3243D01*
X7035Y3227D01*
X7031Y3213D01*
X7087D01*
Y3269D01*
D02*
G37*
G36*
X6033D02*
Y3213D01*
X6088D01*
X6084Y3227D01*
X6075Y3243D01*
X6062Y3256D01*
X6047Y3265D01*
X6033Y3269D01*
D02*
G37*
G36*
X6007D02*
X5993Y3265D01*
X5977Y3256D01*
X5964Y3243D01*
X5955Y3227D01*
X5951Y3213D01*
X6007D01*
Y3269D01*
D02*
G37*
G36*
X5026Y3338D02*
X5007D01*
X4989Y3331D01*
X4975Y3317D01*
X4967Y3299D01*
Y3280D01*
X4975Y3262D01*
X4983Y3253D01*
X4983Y3251D01*
X4966Y3234D01*
X4957Y3213D01*
X5076D01*
X5067Y3234D01*
X5050Y3251D01*
X5050Y3253D01*
X5058Y3262D01*
X5065Y3280D01*
Y3299D01*
X5058Y3317D01*
X5044Y3331D01*
X5026Y3338D01*
D02*
G37*
G36*
X2210Y3234D02*
Y3188D01*
X2256D01*
X2247Y3209D01*
X2231Y3225D01*
X2210Y3234D01*
D02*
G37*
G36*
X2184D02*
X2163Y3225D01*
X2147Y3209D01*
X2138Y3188D01*
X2184D01*
Y3234D01*
D02*
G37*
G36*
X3664Y3246D02*
X3645D01*
X3627Y3239D01*
X3613Y3225D01*
X3606Y3207D01*
Y3188D01*
X3613Y3170D01*
X3627Y3156D01*
X3645Y3148D01*
X3664D01*
X3682Y3156D01*
X3696Y3170D01*
X3704Y3188D01*
Y3207D01*
X3696Y3225D01*
X3682Y3239D01*
X3664Y3246D01*
D02*
G37*
G36*
X5076Y3188D02*
X5029D01*
Y3141D01*
X5050Y3150D01*
X5067Y3167D01*
X5076Y3188D01*
D02*
G37*
G36*
X5004D02*
X4957D01*
X4966Y3167D01*
X4983Y3150D01*
X5004Y3141D01*
Y3188D01*
D02*
G37*
G36*
X7168D02*
X7112D01*
Y3132D01*
X7126Y3136D01*
X7142Y3145D01*
X7155Y3158D01*
X7164Y3174D01*
X7168Y3188D01*
D02*
G37*
G36*
X7087D02*
X7031D01*
X7035Y3174D01*
X7044Y3158D01*
X7057Y3145D01*
X7073Y3136D01*
X7087Y3132D01*
Y3188D01*
D02*
G37*
G36*
X6088D02*
X6033D01*
Y3132D01*
X6047Y3136D01*
X6062Y3145D01*
X6075Y3158D01*
X6084Y3174D01*
X6088Y3188D01*
D02*
G37*
G36*
X6007D02*
X5951D01*
X5955Y3174D01*
X5964Y3158D01*
X5977Y3145D01*
X5993Y3136D01*
X6007Y3132D01*
Y3188D01*
D02*
G37*
G36*
X2256Y3162D02*
X2210D01*
Y3116D01*
X2231Y3125D01*
X2247Y3141D01*
X2256Y3162D01*
D02*
G37*
G36*
X2184D02*
X2138D01*
X2147Y3141D01*
X2163Y3125D01*
X2184Y3116D01*
Y3162D01*
D02*
G37*
G36*
X6411Y3084D02*
X6391D01*
X6373Y3077D01*
X6359Y3063D01*
X6352Y3045D01*
Y3026D01*
X6359Y3008D01*
X6373Y2994D01*
X6391Y2986D01*
X6411D01*
X6429Y2994D01*
X6442Y3008D01*
X6450Y3026D01*
Y3045D01*
X6442Y3063D01*
X6429Y3077D01*
X6411Y3084D01*
D02*
G37*
G36*
X4111Y2905D02*
X4092D01*
X4074Y2898D01*
X4060Y2884D01*
X4058Y2879D01*
X4044D01*
X4042Y2884D01*
X4028Y2898D01*
X4010Y2905D01*
X3991D01*
X3973Y2898D01*
X3959Y2884D01*
X3951Y2866D01*
Y2846D01*
X3959Y2828D01*
X3973Y2815D01*
X3991Y2807D01*
X4010D01*
X4028Y2815D01*
X4042Y2828D01*
X4044Y2834D01*
X4058D01*
X4060Y2828D01*
X4074Y2815D01*
X4092Y2807D01*
X4111D01*
X4129Y2815D01*
X4143Y2828D01*
X4151Y2846D01*
Y2866D01*
X4143Y2884D01*
X4129Y2898D01*
X4111Y2905D01*
D02*
G37*
G36*
X4785Y2919D02*
X4765D01*
X4747Y2912D01*
X4734Y2898D01*
X4726Y2880D01*
Y2860D01*
X4734Y2842D01*
X4747Y2829D01*
X4765Y2821D01*
X4785D01*
X4803Y2829D01*
X4817Y2842D01*
X4824Y2860D01*
Y2880D01*
X4817Y2898D01*
X4803Y2912D01*
X4785Y2919D01*
D02*
G37*
G36*
X6411Y2856D02*
X6391D01*
X6373Y2848D01*
X6359Y2834D01*
X6352Y2816D01*
Y2797D01*
X6359Y2779D01*
X6373Y2765D01*
X6391Y2758D01*
X6411D01*
X6429Y2765D01*
X6442Y2779D01*
X6450Y2797D01*
Y2816D01*
X6442Y2834D01*
X6429Y2848D01*
X6411Y2856D01*
D02*
G37*
G36*
X5356Y2843D02*
X5337D01*
X5319Y2836D01*
X5305Y2822D01*
X5298Y2804D01*
Y2784D01*
X5305Y2766D01*
X5319Y2752D01*
X5337Y2745D01*
X5356D01*
X5374Y2752D01*
X5388Y2766D01*
X5396Y2784D01*
Y2804D01*
X5388Y2822D01*
X5374Y2836D01*
X5356Y2843D01*
D02*
G37*
G36*
X4671Y2919D02*
X4651D01*
X4633Y2912D01*
X4619Y2898D01*
X4612Y2880D01*
Y2860D01*
X4615Y2854D01*
X4611Y2848D01*
X4605Y2843D01*
X4588D01*
X4570Y2836D01*
X4556Y2822D01*
X4548Y2804D01*
Y2784D01*
X4556Y2766D01*
X4570Y2752D01*
X4588Y2745D01*
X4607D01*
X4625Y2752D01*
X4639Y2766D01*
X4646Y2784D01*
Y2804D01*
X4644Y2811D01*
X4647Y2816D01*
X4653Y2821D01*
X4671D01*
X4689Y2829D01*
X4702Y2842D01*
X4710Y2860D01*
Y2880D01*
X4702Y2898D01*
X4689Y2912D01*
X4671Y2919D01*
D02*
G37*
G36*
X3413Y2792D02*
X3394D01*
X3376Y2785D01*
X3362Y2771D01*
X3355Y2753D01*
Y2735D01*
X3350Y2730D01*
X3344Y2726D01*
X3338Y2728D01*
X3318D01*
X3300Y2721D01*
X3286Y2707D01*
X3279Y2689D01*
Y2669D01*
X3286Y2651D01*
X3300Y2638D01*
X3318Y2630D01*
X3338D01*
X3356Y2638D01*
X3369Y2651D01*
X3377Y2669D01*
Y2687D01*
X3381Y2692D01*
X3387Y2697D01*
X3394Y2694D01*
X3413D01*
X3431Y2702D01*
X3445Y2715D01*
X3453Y2733D01*
Y2753D01*
X3445Y2771D01*
X3431Y2785D01*
X3413Y2792D01*
D02*
G37*
G36*
X4455D02*
X4435D01*
X4417Y2785D01*
X4403Y2771D01*
X4396Y2753D01*
Y2735D01*
X4392Y2730D01*
X4386Y2725D01*
X4377Y2729D01*
X4358D01*
X4340Y2721D01*
X4326Y2707D01*
X4318Y2689D01*
Y2670D01*
X4326Y2652D01*
X4340Y2638D01*
X4358Y2631D01*
X4377D01*
X4395Y2638D01*
X4409Y2652D01*
X4416Y2670D01*
Y2688D01*
X4420Y2693D01*
X4427Y2698D01*
X4435Y2694D01*
X4455D01*
X4465Y2699D01*
X4478Y2690D01*
Y2681D01*
X4486Y2663D01*
X4499Y2649D01*
X4517Y2641D01*
X4537D01*
X4555Y2649D01*
X4569Y2663D01*
X4576Y2681D01*
Y2700D01*
X4569Y2718D01*
X4555Y2732D01*
X4537Y2739D01*
X4517D01*
X4507Y2735D01*
X4494Y2743D01*
Y2753D01*
X4487Y2771D01*
X4473Y2785D01*
X4455Y2792D01*
D02*
G37*
G36*
X3528Y2805D02*
X3508D01*
X3490Y2797D01*
X3476Y2784D01*
X3469Y2766D01*
Y2746D01*
X3476Y2728D01*
X3490Y2714D01*
X3508Y2707D01*
X3528D01*
X3546Y2714D01*
X3559Y2728D01*
X3567Y2746D01*
Y2766D01*
X3559Y2784D01*
X3546Y2797D01*
X3528Y2805D01*
D02*
G37*
G36*
X3782Y2843D02*
X3762D01*
X3744Y2836D01*
X3730Y2822D01*
X3723Y2804D01*
Y2784D01*
X3730Y2766D01*
X3739Y2757D01*
X3743Y2750D01*
X3739Y2741D01*
X3731Y2733D01*
X3724Y2715D01*
Y2695D01*
X3731Y2677D01*
X3745Y2664D01*
X3763Y2656D01*
X3783D01*
X3801Y2664D01*
X3814Y2677D01*
X3822Y2695D01*
Y2715D01*
X3814Y2733D01*
X3806Y2742D01*
X3802Y2749D01*
X3806Y2758D01*
X3813Y2766D01*
X3821Y2784D01*
Y2804D01*
X3813Y2822D01*
X3800Y2836D01*
X3782Y2843D01*
D02*
G37*
G36*
X3629Y2728D02*
X3609D01*
X3591Y2721D01*
X3577Y2707D01*
X3570Y2689D01*
Y2669D01*
X3577Y2651D01*
X3591Y2638D01*
X3609Y2630D01*
X3629D01*
X3647Y2638D01*
X3661Y2651D01*
X3668Y2669D01*
Y2689D01*
X3661Y2707D01*
X3647Y2721D01*
X3629Y2728D01*
D02*
G37*
G36*
X6160Y2574D02*
Y2527D01*
X6206D01*
X6197Y2548D01*
X6180Y2565D01*
X6160Y2574D01*
D02*
G37*
G36*
X6134D02*
X6113Y2565D01*
X6096Y2548D01*
X6088Y2527D01*
X6134D01*
Y2574D01*
D02*
G37*
G36*
X5046Y2596D02*
X5026D01*
X5008Y2589D01*
X4995Y2575D01*
X4987Y2557D01*
Y2537D01*
X4995Y2519D01*
X5008Y2505D01*
X5026Y2498D01*
X5046D01*
X5064Y2505D01*
X5078Y2519D01*
X5085Y2537D01*
Y2557D01*
X5078Y2575D01*
X5064Y2589D01*
X5046Y2596D01*
D02*
G37*
G36*
X6206Y2502D02*
X6160D01*
Y2456D01*
X6180Y2464D01*
X6197Y2481D01*
X6206Y2502D01*
D02*
G37*
G36*
X6134D02*
X6088D01*
X6096Y2481D01*
X6113Y2464D01*
X6134Y2456D01*
Y2502D01*
D02*
G37*
G36*
X3213Y2472D02*
X3192Y2463D01*
X3175Y2447D01*
X3167Y2426D01*
X3213D01*
Y2472D01*
D02*
G37*
G36*
X1041D02*
Y2426D01*
X1088D01*
X1079Y2447D01*
X1062Y2463D01*
X1041Y2472D01*
D02*
G37*
G36*
X1016D02*
X995Y2463D01*
X978Y2447D01*
X970Y2426D01*
X1016D01*
Y2472D01*
D02*
G37*
G36*
X3882Y2468D02*
X3861Y2460D01*
X3845Y2443D01*
X3836Y2422D01*
X3882D01*
Y2468D01*
D02*
G37*
G36*
X4365Y2464D02*
Y2417D01*
X4412D01*
X4403Y2438D01*
X4386Y2455D01*
X4365Y2464D01*
D02*
G37*
G36*
X4340D02*
X4319Y2455D01*
X4302Y2438D01*
X4294Y2417D01*
X4340D01*
Y2464D01*
D02*
G37*
G36*
X5258Y2459D02*
Y2413D01*
X5304D01*
X5295Y2434D01*
X5279Y2451D01*
X5258Y2459D01*
D02*
G37*
G36*
X5232D02*
X5211Y2451D01*
X5195Y2434D01*
X5186Y2413D01*
X5232D01*
Y2459D01*
D02*
G37*
G36*
X6593Y2432D02*
Y2386D01*
X6639D01*
X6631Y2407D01*
X6614Y2424D01*
X6593Y2432D01*
D02*
G37*
G36*
X6568D02*
X6547Y2424D01*
X6530Y2407D01*
X6521Y2386D01*
X6568D01*
Y2432D01*
D02*
G37*
G36*
X3238Y2472D02*
Y2413D01*
Y2354D01*
X3259Y2363D01*
X3276Y2379D01*
X3277Y2379D01*
X3290Y2381D01*
X3300Y2371D01*
X3318Y2364D01*
X3337D01*
X3355Y2371D01*
X3369Y2385D01*
X3376Y2403D01*
Y2423D01*
X3369Y2441D01*
X3355Y2455D01*
X3337Y2462D01*
X3318D01*
X3300Y2455D01*
X3290Y2445D01*
X3277Y2447D01*
X3276Y2447D01*
X3259Y2463D01*
X3238Y2472D01*
D02*
G37*
G36*
X3908Y2468D02*
Y2409D01*
Y2350D01*
X3929Y2359D01*
X3945Y2376D01*
X3953Y2377D01*
X3960Y2371D01*
X3978Y2364D01*
X3997D01*
X4015Y2371D01*
X4029Y2385D01*
X4036Y2403D01*
Y2422D01*
X4029Y2440D01*
X4015Y2454D01*
X3997Y2462D01*
X3978D01*
X3960Y2454D01*
X3948Y2442D01*
X3945Y2443D01*
X3929Y2460D01*
X3908Y2468D01*
D02*
G37*
G36*
X3213Y2400D02*
X3167D01*
X3175Y2379D01*
X3192Y2363D01*
X3213Y2354D01*
Y2400D01*
D02*
G37*
G36*
X1088D02*
X1041D01*
Y2354D01*
X1062Y2363D01*
X1079Y2379D01*
X1088Y2400D01*
D02*
G37*
G36*
X1016D02*
X970D01*
X978Y2379D01*
X995Y2363D01*
X1016Y2354D01*
Y2400D01*
D02*
G37*
G36*
X5102Y2449D02*
X5083D01*
X5065Y2442D01*
X5051Y2428D01*
X5044Y2410D01*
Y2391D01*
X5051Y2373D01*
X5065Y2359D01*
X5083Y2351D01*
X5102D01*
X5120Y2359D01*
X5134Y2373D01*
X5142Y2391D01*
Y2410D01*
X5134Y2428D01*
X5120Y2442D01*
X5102Y2449D01*
D02*
G37*
G36*
X4671D02*
X4651D01*
X4633Y2442D01*
X4619Y2428D01*
X4612Y2410D01*
Y2391D01*
X4619Y2373D01*
X4633Y2359D01*
X4651Y2351D01*
X4671D01*
X4689Y2359D01*
X4702Y2373D01*
X4710Y2391D01*
Y2410D01*
X4702Y2428D01*
X4689Y2442D01*
X4671Y2449D01*
D02*
G37*
G36*
X4506D02*
X4486D01*
X4468Y2442D01*
X4454Y2428D01*
X4447Y2410D01*
Y2391D01*
X4454Y2373D01*
X4468Y2359D01*
X4486Y2351D01*
X4506D01*
X4524Y2359D01*
X4537Y2373D01*
X4545Y2391D01*
Y2410D01*
X4537Y2428D01*
X4524Y2442D01*
X4506Y2449D01*
D02*
G37*
G36*
X3882Y2397D02*
X3836D01*
X3845Y2376D01*
X3861Y2359D01*
X3882Y2350D01*
Y2397D01*
D02*
G37*
G36*
X4412Y2392D02*
X4365D01*
Y2346D01*
X4386Y2354D01*
X4403Y2371D01*
X4412Y2392D01*
D02*
G37*
G36*
X4340D02*
X4294D01*
X4302Y2371D01*
X4319Y2354D01*
X4340Y2346D01*
Y2392D01*
D02*
G37*
G36*
X5304Y2388D02*
X5258D01*
Y2341D01*
X5279Y2350D01*
X5295Y2367D01*
X5304Y2388D01*
D02*
G37*
G36*
X5232D02*
X5186D01*
X5195Y2367D01*
X5211Y2350D01*
X5232Y2341D01*
Y2388D01*
D02*
G37*
G36*
X6639Y2361D02*
X6593D01*
Y2314D01*
X6614Y2323D01*
X6631Y2340D01*
X6639Y2361D01*
D02*
G37*
G36*
X6568D02*
X6521D01*
X6530Y2340D01*
X6547Y2323D01*
X6568Y2314D01*
Y2361D01*
D02*
G37*
G36*
X3086Y2345D02*
Y2299D01*
X3132D01*
X3124Y2320D01*
X3107Y2336D01*
X3086Y2345D01*
D02*
G37*
G36*
X3061D02*
X3040Y2336D01*
X3023Y2320D01*
X3014Y2299D01*
X3061D01*
Y2345D01*
D02*
G37*
G36*
X6804Y2373D02*
X6785D01*
X6767Y2366D01*
X6753Y2352D01*
X6746Y2334D01*
Y2314D01*
X6753Y2296D01*
X6767Y2283D01*
X6785Y2275D01*
X6804D01*
X6822Y2283D01*
X6836Y2296D01*
X6843Y2314D01*
Y2334D01*
X6836Y2352D01*
X6822Y2366D01*
X6804Y2373D01*
D02*
G37*
G36*
X3608Y2352D02*
X3588D01*
X3570Y2344D01*
X3557Y2330D01*
X3549Y2312D01*
Y2293D01*
X3557Y2275D01*
X3570Y2261D01*
X3588Y2254D01*
X3608D01*
X3626Y2261D01*
X3640Y2275D01*
X3647Y2293D01*
Y2312D01*
X3640Y2330D01*
X3626Y2344D01*
X3608Y2352D01*
D02*
G37*
G36*
X3464Y2335D02*
X3445D01*
X3427Y2328D01*
X3413Y2314D01*
X3405Y2296D01*
Y2276D01*
X3413Y2258D01*
X3427Y2244D01*
X3445Y2237D01*
X3464D01*
X3482Y2244D01*
X3496Y2258D01*
X3503Y2276D01*
Y2296D01*
X3496Y2314D01*
X3482Y2328D01*
X3464Y2335D01*
D02*
G37*
G36*
X3132Y2273D02*
X3086D01*
Y2227D01*
X3107Y2236D01*
X3124Y2252D01*
X3132Y2273D01*
D02*
G37*
G36*
X3061D02*
X3014D01*
X3023Y2252D01*
X3040Y2236D01*
X3061Y2227D01*
Y2273D01*
D02*
G37*
G36*
X4890Y2269D02*
Y2223D01*
X4936D01*
X4927Y2243D01*
X4910Y2260D01*
X4890Y2269D01*
D02*
G37*
G36*
X4864D02*
X4843Y2260D01*
X4826Y2243D01*
X4818Y2223D01*
X4864D01*
Y2269D01*
D02*
G37*
G36*
X6236Y2218D02*
Y2172D01*
X6282D01*
X6273Y2193D01*
X6257Y2209D01*
X6236Y2218D01*
D02*
G37*
G36*
X6210D02*
X6189Y2209D01*
X6173Y2193D01*
X6164Y2172D01*
X6210D01*
Y2218D01*
D02*
G37*
G36*
X4936Y2197D02*
X4890D01*
Y2151D01*
X4910Y2159D01*
X4927Y2176D01*
X4936Y2197D01*
D02*
G37*
G36*
X4864D02*
X4818D01*
X4826Y2176D01*
X4843Y2159D01*
X4864Y2151D01*
Y2197D01*
D02*
G37*
G36*
X3695Y2179D02*
Y2133D01*
X3742D01*
X3733Y2154D01*
X3716Y2171D01*
X3695Y2179D01*
D02*
G37*
G36*
X3670D02*
X3649Y2171D01*
X3632Y2154D01*
X3623Y2133D01*
X3670D01*
Y2179D01*
D02*
G37*
G36*
X6282Y2146D02*
X6236D01*
Y2100D01*
X6257Y2109D01*
X6273Y2125D01*
X6282Y2146D01*
D02*
G37*
G36*
X6210D02*
X6164D01*
X6173Y2125D01*
X6189Y2109D01*
X6210Y2100D01*
Y2146D01*
D02*
G37*
G36*
X6412Y2191D02*
X6393D01*
X6375Y2184D01*
X6361Y2170D01*
X6354Y2152D01*
Y2132D01*
X6361Y2114D01*
X6375Y2101D01*
X6393Y2093D01*
X6412D01*
X6430Y2101D01*
X6444Y2114D01*
X6452Y2132D01*
Y2152D01*
X6444Y2170D01*
X6430Y2184D01*
X6412Y2191D01*
D02*
G37*
G36*
X3742Y2108D02*
X3695D01*
Y2061D01*
X3716Y2070D01*
X3733Y2087D01*
X3742Y2108D01*
D02*
G37*
G36*
X3670D02*
X3623D01*
X3632Y2087D01*
X3649Y2070D01*
X3670Y2061D01*
Y2108D01*
D02*
G37*
G36*
X4737Y2104D02*
Y2057D01*
X4783D01*
X4775Y2078D01*
X4758Y2095D01*
X4737Y2104D01*
D02*
G37*
G36*
X4712D02*
X4691Y2095D01*
X4674Y2078D01*
X4665Y2057D01*
X4712D01*
Y2104D01*
D02*
G37*
G36*
X1842Y2104D02*
Y2057D01*
X1888D01*
X1879Y2078D01*
X1862Y2095D01*
X1842Y2104D01*
D02*
G37*
G36*
X1816D02*
X1795Y2095D01*
X1778Y2078D01*
X1770Y2057D01*
X1816D01*
Y2104D01*
D02*
G37*
G36*
X761Y2296D02*
X729D01*
X699Y2288D01*
X672Y2272D01*
X649Y2250D01*
X633Y2222D01*
X625Y2192D01*
Y2160D01*
X633Y2130D01*
X649Y2102D01*
X672Y2080D01*
X699Y2064D01*
X729Y2056D01*
X761D01*
X792Y2064D01*
X819Y2080D01*
X841Y2102D01*
X857Y2130D01*
X865Y2160D01*
Y2192D01*
X857Y2222D01*
X841Y2250D01*
X819Y2272D01*
X792Y2288D01*
X761Y2296D01*
D02*
G37*
G36*
X4407Y2040D02*
Y1994D01*
X4453D01*
X4445Y2015D01*
X4428Y2032D01*
X4407Y2040D01*
D02*
G37*
G36*
X4381D02*
X4361Y2032D01*
X4344Y2015D01*
X4335Y1994D01*
X4381D01*
Y2040D01*
D02*
G37*
G36*
X4267D02*
Y1994D01*
X4314D01*
X4305Y2015D01*
X4288Y2032D01*
X4267Y2040D01*
D02*
G37*
G36*
X4242D02*
X4221Y2032D01*
X4204Y2015D01*
X4195Y1994D01*
X4242D01*
Y2040D01*
D02*
G37*
G36*
X1888Y2032D02*
X1842D01*
Y1986D01*
X1862Y1994D01*
X1879Y2011D01*
X1888Y2032D01*
D02*
G37*
G36*
X1816D02*
X1770D01*
X1778Y2011D01*
X1795Y1994D01*
X1816Y1986D01*
Y2032D01*
D02*
G37*
G36*
X1328Y2134D02*
X1306D01*
X1284Y2128D01*
X1265Y2117D01*
X1249Y2101D01*
X1238Y2082D01*
X1232Y2060D01*
Y2038D01*
X1238Y2016D01*
X1249Y1997D01*
X1265Y1981D01*
X1284Y1970D01*
X1306Y1964D01*
X1328D01*
X1350Y1970D01*
X1369Y1981D01*
X1385Y1997D01*
X1396Y2016D01*
X1402Y2038D01*
Y2060D01*
X1396Y2082D01*
X1385Y2101D01*
X1369Y2117D01*
X1350Y2128D01*
X1328Y2134D01*
D02*
G37*
G36*
X5928Y2056D02*
X5908D01*
X5890Y2048D01*
X5877Y2034D01*
X5869Y2016D01*
Y1997D01*
X5877Y1979D01*
X5890Y1965D01*
X5908Y1958D01*
X5928D01*
X5946Y1965D01*
X5960Y1979D01*
X5967Y1997D01*
Y2016D01*
X5960Y2034D01*
X5946Y2048D01*
X5928Y2056D01*
D02*
G37*
G36*
X6520Y2003D02*
Y1956D01*
X6566D01*
X6558Y1977D01*
X6541Y1994D01*
X6520Y2003D01*
D02*
G37*
G36*
X6495D02*
X6474Y1994D01*
X6457Y1977D01*
X6448Y1956D01*
X6495D01*
Y2003D01*
D02*
G37*
G36*
X4453Y1968D02*
X4407D01*
Y1922D01*
X4428Y1931D01*
X4445Y1948D01*
X4453Y1968D01*
D02*
G37*
G36*
X4381D02*
X4335D01*
X4344Y1948D01*
X4361Y1931D01*
X4381Y1922D01*
Y1968D01*
D02*
G37*
G36*
X4314D02*
X4267D01*
Y1922D01*
X4288Y1931D01*
X4305Y1948D01*
X4314Y1968D01*
D02*
G37*
G36*
X4242D02*
X4195D01*
X4204Y1948D01*
X4221Y1931D01*
X4242Y1922D01*
Y1968D01*
D02*
G37*
G36*
X4783Y2032D02*
X4665D01*
X4674Y2011D01*
X4691Y1994D01*
X4707Y1988D01*
X4711Y1974D01*
X4711Y1973D01*
X4708Y1971D01*
X4701Y1953D01*
Y1933D01*
X4708Y1915D01*
X4722Y1902D01*
X4740Y1894D01*
X4760D01*
X4778Y1902D01*
X4791Y1915D01*
X4799Y1933D01*
Y1953D01*
X4791Y1971D01*
X4778Y1985D01*
X4770Y1988D01*
X4767Y2003D01*
X4775Y2011D01*
X4783Y2032D01*
D02*
G37*
G36*
X6566Y1931D02*
X6520D01*
Y1885D01*
X6541Y1893D01*
X6558Y1910D01*
X6566Y1931D01*
D02*
G37*
G36*
X6495D02*
X6448D01*
X6457Y1910D01*
X6474Y1893D01*
X6495Y1885D01*
Y1931D01*
D02*
G37*
G36*
X6847Y1976D02*
X6827D01*
X6810Y1974D01*
X6793Y1967D01*
X6779Y1956D01*
X6768Y1942D01*
X6762Y1925D01*
X6759Y1908D01*
X6762Y1890D01*
X6768Y1874D01*
X6779Y1860D01*
X6793Y1849D01*
X6810Y1842D01*
X6827Y1840D01*
X6847D01*
X6865Y1842D01*
X6881Y1849D01*
X6896Y1860D01*
X6906Y1874D01*
X6913Y1890D01*
X6915Y1908D01*
X6913Y1925D01*
X6906Y1942D01*
X6896Y1956D01*
X6881Y1967D01*
X6865Y1974D01*
X6847Y1976D01*
D02*
G37*
G36*
X5019Y1934D02*
X4999D01*
X4981Y1926D01*
X4968Y1913D01*
X4960Y1895D01*
Y1875D01*
X4968Y1857D01*
X4981Y1843D01*
X4999Y1836D01*
X5019D01*
X5037Y1843D01*
X5051Y1857D01*
X5058Y1875D01*
Y1895D01*
X5051Y1913D01*
X5037Y1926D01*
X5019Y1934D01*
D02*
G37*
G36*
X420Y2178D02*
X385D01*
X350Y2171D01*
X317Y2157D01*
X288Y2138D01*
X262Y2113D01*
X243Y2083D01*
X229Y2050D01*
X222Y2016D01*
Y1980D01*
X229Y1945D01*
X243Y1913D01*
X262Y1883D01*
X288Y1858D01*
X317Y1838D01*
X350Y1825D01*
X385Y1818D01*
X420D01*
X455Y1825D01*
X488Y1838D01*
X517Y1858D01*
X542Y1883D01*
X562Y1913D01*
X575Y1945D01*
X582Y1980D01*
Y2016D01*
X575Y2050D01*
X562Y2083D01*
X542Y2113D01*
X517Y2138D01*
X488Y2157D01*
X455Y2171D01*
X420Y2178D01*
D02*
G37*
G36*
X6071Y1837D02*
X6050Y1828D01*
X6033Y1812D01*
X6024Y1791D01*
X6071D01*
Y1837D01*
D02*
G37*
G36*
X1782Y1900D02*
X1758D01*
X1737Y1892D01*
X1720Y1875D01*
X1711Y1853D01*
Y1830D01*
X1720Y1808D01*
X1737Y1791D01*
X1758Y1783D01*
X1782D01*
X1804Y1791D01*
X1820Y1808D01*
X1829Y1830D01*
Y1853D01*
X1820Y1875D01*
X1804Y1892D01*
X1782Y1900D01*
D02*
G37*
G36*
X1328Y1905D02*
X1306D01*
X1284Y1899D01*
X1265Y1888D01*
X1249Y1872D01*
X1238Y1853D01*
X1232Y1831D01*
Y1809D01*
X1238Y1787D01*
X1249Y1768D01*
X1265Y1752D01*
X1284Y1741D01*
X1306Y1735D01*
X1328D01*
X1350Y1741D01*
X1369Y1752D01*
X1385Y1768D01*
X1396Y1787D01*
X1402Y1809D01*
Y1831D01*
X1396Y1853D01*
X1385Y1872D01*
X1369Y1888D01*
X1350Y1899D01*
X1328Y1905D01*
D02*
G37*
G36*
X6071Y1765D02*
X6024D01*
X6033Y1744D01*
X6050Y1728D01*
X6071Y1719D01*
Y1765D01*
D02*
G37*
G36*
X5375Y1814D02*
X5355D01*
X5337Y1807D01*
X5323Y1793D01*
X5316Y1775D01*
Y1756D01*
X5323Y1738D01*
X5337Y1724D01*
X5355Y1716D01*
X5375D01*
X5393Y1724D01*
X5406Y1738D01*
X5414Y1756D01*
Y1775D01*
X5406Y1793D01*
X5393Y1807D01*
X5375Y1814D01*
D02*
G37*
G36*
X5598Y1789D02*
X5578D01*
X5560Y1781D01*
X5546Y1768D01*
X5539Y1750D01*
Y1730D01*
X5546Y1712D01*
X5560Y1698D01*
X5578Y1691D01*
X5598D01*
X5616Y1698D01*
X5630Y1712D01*
X5637Y1730D01*
Y1750D01*
X5630Y1768D01*
X5616Y1781D01*
X5598Y1789D01*
D02*
G37*
G36*
X845Y1806D02*
X823D01*
X801Y1800D01*
X782Y1789D01*
X766Y1773D01*
X755Y1754D01*
X749Y1732D01*
Y1710D01*
X755Y1688D01*
X766Y1669D01*
X782Y1653D01*
X801Y1642D01*
X823Y1636D01*
X845D01*
X867Y1642D01*
X886Y1653D01*
X902Y1669D01*
X913Y1688D01*
X919Y1710D01*
Y1732D01*
X913Y1754D01*
X902Y1773D01*
X886Y1789D01*
X867Y1800D01*
X845Y1806D01*
D02*
G37*
G36*
X6096Y1837D02*
Y1778D01*
Y1719D01*
X6117Y1728D01*
X6123Y1734D01*
X6136Y1729D01*
Y1717D01*
X6143Y1699D01*
X6157Y1686D01*
X6165Y1683D01*
Y1669D01*
X6157Y1666D01*
X6143Y1652D01*
X6136Y1634D01*
Y1624D01*
X6123Y1619D01*
X6117Y1625D01*
X6096Y1634D01*
Y1575D01*
Y1516D01*
X6117Y1524D01*
X6134Y1541D01*
X6143Y1563D01*
Y1579D01*
X6155Y1584D01*
X6157Y1583D01*
X6175Y1575D01*
X6195D01*
X6213Y1583D01*
X6226Y1596D01*
X6234Y1614D01*
Y1634D01*
X6226Y1652D01*
X6213Y1666D01*
X6205Y1669D01*
Y1683D01*
X6213Y1686D01*
X6226Y1699D01*
X6234Y1717D01*
Y1737D01*
X6226Y1755D01*
X6213Y1769D01*
X6195Y1776D01*
X6175D01*
X6157Y1769D01*
X6155Y1767D01*
X6143Y1772D01*
Y1790D01*
X6134Y1812D01*
X6117Y1828D01*
X6096Y1837D01*
D02*
G37*
G36*
X1356Y1713D02*
X1336D01*
X1318Y1705D01*
X1305Y1691D01*
X1297Y1673D01*
Y1654D01*
X1305Y1636D01*
X1318Y1622D01*
X1336Y1615D01*
X1356D01*
X1374Y1622D01*
X1388Y1636D01*
X1395Y1654D01*
Y1673D01*
X1388Y1691D01*
X1374Y1705D01*
X1356Y1713D01*
D02*
G37*
G36*
X5014Y1636D02*
X4994D01*
X4976Y1629D01*
X4962Y1615D01*
X4960Y1610D01*
X4946D01*
X4944Y1615D01*
X4930Y1629D01*
X4912Y1636D01*
X4893D01*
X4875Y1629D01*
X4861Y1615D01*
X4857Y1605D01*
X4850Y1603D01*
X4843Y1604D01*
X4830Y1616D01*
X4812Y1624D01*
X4793D01*
X4775Y1616D01*
X4761Y1603D01*
X4753Y1585D01*
Y1565D01*
X4761Y1547D01*
X4775Y1533D01*
X4793Y1526D01*
X4812D01*
X4830Y1533D01*
X4844Y1547D01*
X4848Y1557D01*
X4855Y1558D01*
X4862Y1558D01*
X4875Y1545D01*
X4893Y1538D01*
X4912D01*
X4930Y1545D01*
X4944Y1559D01*
X4946Y1565D01*
X4960D01*
X4962Y1560D01*
X4976Y1546D01*
X4994Y1539D01*
X5014D01*
X5032Y1546D01*
X5045Y1560D01*
X5053Y1578D01*
Y1597D01*
X5045Y1615D01*
X5032Y1629D01*
X5014Y1636D01*
D02*
G37*
G36*
X667Y1704D02*
X645D01*
X623Y1698D01*
X604Y1687D01*
X588Y1671D01*
X577Y1652D01*
X571Y1630D01*
Y1611D01*
X559Y1608D01*
X558Y1608D01*
X542Y1625D01*
X521Y1634D01*
Y1575D01*
X508D01*
Y1562D01*
X449D01*
X458Y1541D01*
X466Y1532D01*
X474Y1524D01*
X466Y1516D01*
X458Y1507D01*
X449Y1486D01*
X567D01*
X558Y1507D01*
X550Y1516D01*
X542Y1524D01*
X550Y1532D01*
X558Y1541D01*
X567Y1563D01*
Y1577D01*
X580Y1581D01*
X588Y1567D01*
X604Y1551D01*
X623Y1540D01*
X645Y1534D01*
X667D01*
X689Y1540D01*
X708Y1551D01*
X724Y1567D01*
X735Y1586D01*
X741Y1608D01*
Y1630D01*
X735Y1652D01*
X724Y1671D01*
X708Y1687D01*
X689Y1698D01*
X667Y1704D01*
D02*
G37*
G36*
X2885Y1627D02*
X2864Y1618D01*
X2847Y1601D01*
X2834Y1601D01*
X2819Y1607D01*
X2799D01*
X2781Y1600D01*
X2767Y1586D01*
X2760Y1568D01*
Y1549D01*
X2767Y1531D01*
X2781Y1517D01*
X2767Y1503D01*
X2760Y1485D01*
Y1466D01*
X2767Y1448D01*
X2781Y1434D01*
X2799Y1426D01*
X2819D01*
X2834Y1433D01*
X2847Y1432D01*
X2864Y1416D01*
X2885Y1407D01*
Y1466D01*
X2898D01*
Y1479D01*
X2957D01*
X2948Y1500D01*
X2939Y1509D01*
X2932Y1517D01*
X2939Y1525D01*
X2948Y1534D01*
X2957Y1555D01*
X2898D01*
Y1568D01*
X2885D01*
Y1627D01*
D02*
G37*
G36*
X7007Y1789D02*
X6988D01*
X6970Y1781D01*
X6956Y1768D01*
X6949Y1750D01*
Y1730D01*
X6956Y1712D01*
X6970Y1698D01*
X6976Y1696D01*
Y1682D01*
X6970Y1680D01*
X6956Y1666D01*
X6949Y1648D01*
Y1629D01*
X6956Y1611D01*
X6970Y1597D01*
X6988Y1589D01*
X7007D01*
X7025Y1597D01*
X7039Y1611D01*
X7047Y1629D01*
Y1648D01*
X7039Y1666D01*
X7025Y1680D01*
X7020Y1682D01*
Y1696D01*
X7025Y1698D01*
X7039Y1712D01*
X7047Y1730D01*
Y1750D01*
X7039Y1768D01*
X7025Y1781D01*
X7007Y1789D01*
D02*
G37*
G36*
X6071Y1634D02*
X6050Y1625D01*
X6033Y1608D01*
X6024Y1588D01*
X6071D01*
Y1634D01*
D02*
G37*
G36*
X495Y1634D02*
X474Y1625D01*
X458Y1608D01*
X449Y1588D01*
X495D01*
Y1634D01*
D02*
G37*
G36*
X3330Y1627D02*
X3309Y1618D01*
X3292Y1601D01*
X3283Y1580D01*
X3330D01*
Y1627D01*
D02*
G37*
G36*
X2911D02*
Y1580D01*
X2957D01*
X2948Y1601D01*
X2931Y1618D01*
X2911Y1627D01*
D02*
G37*
G36*
X6735Y1669D02*
X6716D01*
X6698Y1662D01*
X6684Y1648D01*
X6677Y1630D01*
Y1611D01*
X6684Y1593D01*
X6698Y1579D01*
X6716Y1571D01*
X6735D01*
X6753Y1579D01*
X6767Y1593D01*
X6775Y1611D01*
Y1630D01*
X6767Y1648D01*
X6753Y1662D01*
X6735Y1669D01*
D02*
G37*
G36*
X5597Y1624D02*
X5579D01*
X5563Y1617D01*
X5551Y1605D01*
X5544Y1588D01*
Y1571D01*
X5551Y1555D01*
X5563Y1542D01*
X5579Y1536D01*
X5597D01*
X5613Y1542D01*
X5625Y1555D01*
X5632Y1571D01*
Y1588D01*
X5625Y1605D01*
X5613Y1617D01*
X5597Y1624D01*
D02*
G37*
G36*
X6071Y1562D02*
X6024D01*
X6033Y1541D01*
X6050Y1524D01*
X6071Y1516D01*
Y1562D01*
D02*
G37*
G36*
X6296Y1598D02*
X6277D01*
X6259Y1591D01*
X6245Y1577D01*
X6238Y1559D01*
Y1540D01*
X6245Y1522D01*
X6259Y1508D01*
X6277Y1500D01*
X6296D01*
X6314Y1508D01*
X6328Y1522D01*
X6335Y1540D01*
Y1559D01*
X6328Y1577D01*
X6314Y1591D01*
X6296Y1598D01*
D02*
G37*
G36*
X845Y1602D02*
X823D01*
X801Y1596D01*
X782Y1585D01*
X766Y1569D01*
X755Y1550D01*
X749Y1528D01*
Y1506D01*
X755Y1484D01*
X766Y1465D01*
X782Y1449D01*
X801Y1438D01*
X823Y1432D01*
X845D01*
X867Y1438D01*
X886Y1449D01*
X902Y1465D01*
X913Y1484D01*
X919Y1506D01*
Y1528D01*
X913Y1550D01*
X902Y1569D01*
X886Y1585D01*
X867Y1596D01*
X845Y1602D01*
D02*
G37*
G36*
X3355Y1627D02*
Y1568D01*
X3342D01*
Y1555D01*
X3283D01*
X3292Y1534D01*
X3301Y1525D01*
X3308Y1517D01*
X3301Y1509D01*
X3292Y1500D01*
X3283Y1479D01*
X3342D01*
Y1466D01*
X3355D01*
Y1407D01*
X3376Y1416D01*
X3393Y1432D01*
X3396Y1440D01*
X3411Y1443D01*
X3416Y1437D01*
X3434Y1430D01*
X3454D01*
X3472Y1437D01*
X3485Y1451D01*
X3493Y1469D01*
Y1489D01*
X3485Y1507D01*
X3472Y1520D01*
X3485Y1534D01*
X3493Y1552D01*
Y1572D01*
X3485Y1590D01*
X3472Y1603D01*
X3454Y1611D01*
X3434D01*
X3416Y1603D01*
X3409Y1596D01*
X3394Y1599D01*
X3393Y1601D01*
X3376Y1618D01*
X3355Y1627D01*
D02*
G37*
G36*
X567Y1460D02*
X521D01*
Y1414D01*
X542Y1423D01*
X558Y1440D01*
X567Y1460D01*
D02*
G37*
G36*
X495D02*
X449D01*
X458Y1440D01*
X474Y1423D01*
X495Y1414D01*
Y1460D01*
D02*
G37*
G36*
X6426Y1456D02*
Y1410D01*
X6473D01*
X6464Y1431D01*
X6447Y1447D01*
X6426Y1456D01*
D02*
G37*
G36*
X6401D02*
X6380Y1447D01*
X6363Y1431D01*
X6354Y1410D01*
X6401D01*
Y1456D01*
D02*
G37*
G36*
X3330Y1453D02*
X3283D01*
X3292Y1432D01*
X3309Y1416D01*
X3330Y1407D01*
Y1453D01*
D02*
G37*
G36*
X2957D02*
X2911D01*
Y1407D01*
X2931Y1416D01*
X2948Y1432D01*
X2957Y1453D01*
D02*
G37*
G36*
X5636Y1497D02*
X5616D01*
X5598Y1489D01*
X5585Y1476D01*
X5577Y1458D01*
Y1438D01*
X5585Y1420D01*
X5598Y1406D01*
X5616Y1399D01*
X5636D01*
X5654Y1406D01*
X5668Y1420D01*
X5675Y1438D01*
Y1458D01*
X5668Y1476D01*
X5654Y1489D01*
X5636Y1497D01*
D02*
G37*
G36*
X6847Y1531D02*
X6827D01*
X6810Y1529D01*
X6793Y1522D01*
X6779Y1511D01*
X6768Y1497D01*
X6762Y1480D01*
X6759Y1463D01*
X6762Y1445D01*
X6768Y1429D01*
X6779Y1415D01*
X6793Y1404D01*
X6810Y1397D01*
X6827Y1395D01*
X6847D01*
X6865Y1397D01*
X6881Y1404D01*
X6896Y1415D01*
X6906Y1429D01*
X6913Y1445D01*
X6915Y1463D01*
X6913Y1480D01*
X6906Y1497D01*
X6896Y1511D01*
X6881Y1522D01*
X6865Y1529D01*
X6847Y1531D01*
D02*
G37*
G36*
X6744Y1418D02*
Y1372D01*
X6790D01*
X6781Y1393D01*
X6765Y1409D01*
X6744Y1418D01*
D02*
G37*
G36*
X6718D02*
X6697Y1409D01*
X6681Y1393D01*
X6672Y1372D01*
X6718D01*
Y1418D01*
D02*
G37*
G36*
X4027Y1449D02*
X4008D01*
X3990Y1442D01*
X3976Y1428D01*
X3969Y1410D01*
Y1391D01*
X3976Y1373D01*
X3990Y1359D01*
X4008Y1351D01*
X4027D01*
X4045Y1359D01*
X4059Y1373D01*
X4067Y1391D01*
Y1410D01*
X4059Y1428D01*
X4045Y1442D01*
X4027Y1449D01*
D02*
G37*
G36*
X3787Y1448D02*
X3768D01*
X3750Y1441D01*
X3736Y1427D01*
X3729Y1409D01*
Y1389D01*
X3736Y1371D01*
X3750Y1358D01*
X3768Y1350D01*
X3787D01*
X3805Y1358D01*
X3819Y1371D01*
X3827Y1389D01*
Y1409D01*
X3819Y1427D01*
X3805Y1441D01*
X3787Y1448D01*
D02*
G37*
G36*
X4864Y1392D02*
Y1346D01*
X4910D01*
X4902Y1367D01*
X4885Y1384D01*
X4864Y1392D01*
D02*
G37*
G36*
X4839D02*
X4818Y1384D01*
X4801Y1367D01*
X4792Y1346D01*
X4839D01*
Y1392D01*
D02*
G37*
G36*
X6473Y1384D02*
X6426D01*
Y1338D01*
X6447Y1347D01*
X6464Y1363D01*
X6473Y1384D01*
D02*
G37*
G36*
X6401D02*
X6354D01*
X6363Y1363D01*
X6380Y1347D01*
X6401Y1338D01*
Y1384D01*
D02*
G37*
G36*
X667Y1500D02*
X645D01*
X623Y1494D01*
X604Y1483D01*
X588Y1467D01*
X577Y1448D01*
X571Y1426D01*
Y1404D01*
X577Y1382D01*
X588Y1363D01*
X604Y1347D01*
X623Y1336D01*
X645Y1330D01*
X667D01*
X689Y1336D01*
X708Y1347D01*
X724Y1363D01*
X735Y1382D01*
X741Y1404D01*
Y1426D01*
X735Y1448D01*
X724Y1467D01*
X708Y1483D01*
X689Y1494D01*
X667Y1500D01*
D02*
G37*
G36*
X6790Y1346D02*
X6744D01*
Y1300D01*
X6765Y1309D01*
X6781Y1325D01*
X6790Y1346D01*
D02*
G37*
G36*
X6718D02*
X6672D01*
X6681Y1325D01*
X6697Y1309D01*
X6718Y1300D01*
Y1346D01*
D02*
G37*
G36*
X6278Y1388D02*
X6258D01*
X6240Y1381D01*
X6227Y1367D01*
X6219Y1349D01*
Y1329D01*
X6227Y1311D01*
X6240Y1298D01*
X6258Y1290D01*
X6278D01*
X6296Y1298D01*
X6310Y1311D01*
X6317Y1329D01*
Y1349D01*
X6310Y1367D01*
X6296Y1381D01*
X6278Y1388D01*
D02*
G37*
G36*
X5901Y1384D02*
X5881D01*
X5863Y1377D01*
X5850Y1363D01*
X5842Y1345D01*
Y1326D01*
X5850Y1308D01*
X5863Y1294D01*
X5881Y1286D01*
X5901D01*
X5919Y1294D01*
X5933Y1308D01*
X5940Y1326D01*
Y1345D01*
X5933Y1363D01*
X5919Y1377D01*
X5901Y1384D01*
D02*
G37*
G36*
X5522Y1357D02*
X5502D01*
X5484Y1350D01*
X5470Y1336D01*
X5463Y1318D01*
Y1298D01*
X5470Y1280D01*
X5484Y1267D01*
X5502Y1259D01*
X5522D01*
X5540Y1267D01*
X5553Y1280D01*
X5561Y1298D01*
Y1318D01*
X5553Y1336D01*
X5540Y1350D01*
X5522Y1357D01*
D02*
G37*
G36*
X845Y1398D02*
X823D01*
X801Y1392D01*
X782Y1381D01*
X766Y1365D01*
X755Y1346D01*
X749Y1324D01*
Y1302D01*
X755Y1280D01*
X766Y1261D01*
X782Y1245D01*
X801Y1234D01*
X823Y1228D01*
X845D01*
X867Y1234D01*
X886Y1245D01*
X902Y1261D01*
X913Y1280D01*
X919Y1302D01*
Y1324D01*
X913Y1346D01*
X902Y1365D01*
X886Y1381D01*
X867Y1392D01*
X845Y1398D01*
D02*
G37*
G36*
X3912Y1253D02*
Y1206D01*
X3958D01*
X3949Y1227D01*
X3933Y1244D01*
X3912Y1253D01*
D02*
G37*
G36*
X3886D02*
X3865Y1244D01*
X3849Y1227D01*
X3840Y1206D01*
X3886D01*
Y1253D01*
D02*
G37*
G36*
X667Y1296D02*
X645D01*
X623Y1290D01*
X604Y1279D01*
X588Y1263D01*
X577Y1244D01*
X571Y1222D01*
Y1204D01*
X559Y1202D01*
X558Y1202D01*
X542Y1219D01*
X521Y1227D01*
Y1168D01*
X508D01*
Y1156D01*
X449D01*
X458Y1135D01*
X466Y1126D01*
X474Y1118D01*
X466Y1109D01*
X458Y1100D01*
X449Y1080D01*
X508D01*
Y1067D01*
X521D01*
Y1008D01*
X542Y1016D01*
X558Y1033D01*
X559Y1034D01*
X571Y1031D01*
Y922D01*
X741D01*
Y1078D01*
X754Y1080D01*
X755Y1076D01*
X766Y1057D01*
X782Y1041D01*
X801Y1030D01*
X823Y1024D01*
X845D01*
X867Y1030D01*
X886Y1041D01*
X902Y1057D01*
X913Y1076D01*
X919Y1098D01*
Y1120D01*
X913Y1142D01*
X902Y1161D01*
X886Y1177D01*
X867Y1188D01*
X845Y1194D01*
X823D01*
X801Y1188D01*
X782Y1177D01*
X766Y1161D01*
X755Y1142D01*
X749Y1120D01*
Y1101D01*
X744Y1095D01*
X738Y1092D01*
X576D01*
X571Y1092D01*
X560Y1096D01*
X558Y1100D01*
X550Y1109D01*
X542Y1118D01*
X550Y1126D01*
X558Y1135D01*
X567Y1157D01*
Y1169D01*
X580Y1173D01*
X588Y1159D01*
X604Y1143D01*
X623Y1132D01*
X645Y1126D01*
X667D01*
X689Y1132D01*
X708Y1143D01*
X724Y1159D01*
X735Y1178D01*
X741Y1200D01*
Y1222D01*
X735Y1244D01*
X724Y1263D01*
X708Y1279D01*
X689Y1290D01*
X667Y1296D01*
D02*
G37*
G36*
X5895Y1246D02*
Y1199D01*
X5941D01*
X5933Y1220D01*
X5916Y1237D01*
X5895Y1246D01*
D02*
G37*
G36*
X5870D02*
X5849Y1237D01*
X5832Y1220D01*
X5823Y1199D01*
X5870D01*
Y1246D01*
D02*
G37*
G36*
X4910Y1321D02*
X4792D01*
X4801Y1300D01*
X4818Y1283D01*
X4818Y1280D01*
X4808Y1270D01*
X4800Y1252D01*
Y1232D01*
X4808Y1214D01*
X4822Y1200D01*
X4840Y1193D01*
X4859D01*
X4877Y1200D01*
X4891Y1214D01*
X4898Y1232D01*
Y1252D01*
X4891Y1270D01*
X4884Y1277D01*
X4885Y1283D01*
X4902Y1300D01*
X4910Y1321D01*
D02*
G37*
G36*
X4661Y1227D02*
X4640Y1219D01*
X4623Y1202D01*
X4617Y1187D01*
X4603D01*
X4597Y1202D01*
X4580Y1219D01*
X4559Y1227D01*
Y1168D01*
Y1109D01*
X4580Y1118D01*
X4597Y1135D01*
X4603Y1150D01*
X4617D01*
X4623Y1135D01*
X4640Y1118D01*
X4661Y1109D01*
Y1168D01*
Y1227D01*
D02*
G37*
G36*
X4534D02*
X4513Y1219D01*
X4496Y1202D01*
X4488Y1181D01*
X4534D01*
Y1227D01*
D02*
G37*
G36*
X495D02*
X474Y1219D01*
X458Y1202D01*
X449Y1181D01*
X495D01*
Y1227D01*
D02*
G37*
G36*
X5146Y1218D02*
Y1173D01*
X5191D01*
X5183Y1194D01*
X5166Y1210D01*
X5146Y1218D01*
D02*
G37*
G36*
X5120D02*
X5100Y1210D01*
X5084Y1194D01*
X5075Y1173D01*
X5120D01*
Y1218D01*
D02*
G37*
G36*
X3958Y1181D02*
X3912D01*
Y1135D01*
X3933Y1143D01*
X3949Y1160D01*
X3958Y1181D01*
D02*
G37*
G36*
X3886D02*
X3840D01*
X3849Y1160D01*
X3865Y1143D01*
X3886Y1135D01*
Y1181D01*
D02*
G37*
G36*
X6284Y1230D02*
X6264D01*
X6246Y1223D01*
X6232Y1209D01*
X6225Y1191D01*
Y1171D01*
X6232Y1153D01*
X6246Y1140D01*
X6264Y1132D01*
X6284D01*
X6302Y1140D01*
X6315Y1153D01*
X6323Y1171D01*
Y1191D01*
X6315Y1209D01*
X6302Y1223D01*
X6284Y1230D01*
D02*
G37*
G36*
X5941Y1174D02*
X5895D01*
Y1128D01*
X5916Y1136D01*
X5933Y1153D01*
X5941Y1174D01*
D02*
G37*
G36*
X5870D02*
X5823D01*
X5832Y1153D01*
X5849Y1136D01*
X5870Y1128D01*
Y1174D01*
D02*
G37*
G36*
X4686Y1227D02*
Y1168D01*
Y1109D01*
X4707Y1118D01*
X4724Y1135D01*
X4727Y1135D01*
X4734Y1128D01*
X4752Y1121D01*
X4772D01*
X4790Y1128D01*
X4804Y1142D01*
X4811Y1160D01*
Y1179D01*
X4804Y1197D01*
X4790Y1211D01*
X4772Y1219D01*
X4752D01*
X4734Y1211D01*
X4725Y1202D01*
X4724Y1202D01*
X4707Y1219D01*
X4686Y1227D01*
D02*
G37*
G36*
X5514Y1213D02*
X5495D01*
X5477Y1206D01*
X5463Y1192D01*
X5455Y1174D01*
Y1154D01*
X5463Y1136D01*
X5477Y1123D01*
X5495Y1115D01*
X5514D01*
X5532Y1123D01*
X5546Y1136D01*
X5553Y1154D01*
Y1174D01*
X5546Y1192D01*
X5532Y1206D01*
X5514Y1213D01*
D02*
G37*
G36*
X6677Y1205D02*
X6658D01*
X6640Y1197D01*
X6626Y1183D01*
X6618Y1165D01*
Y1146D01*
X6626Y1128D01*
X6640Y1114D01*
X6658Y1107D01*
X6677D01*
X6695Y1114D01*
X6709Y1128D01*
X6717Y1146D01*
Y1165D01*
X6709Y1183D01*
X6695Y1197D01*
X6677Y1205D01*
D02*
G37*
G36*
X4534Y1156D02*
X4487D01*
X4485Y1154D01*
X4473D01*
X4455Y1146D01*
X4442Y1133D01*
X4434Y1115D01*
Y1095D01*
X4442Y1077D01*
X4455Y1063D01*
X4473Y1056D01*
X4493D01*
X4511Y1063D01*
X4525Y1077D01*
X4532Y1095D01*
Y1107D01*
X4534Y1108D01*
Y1156D01*
D02*
G37*
G36*
X5191Y1148D02*
X5075D01*
X5084Y1127D01*
X5100Y1111D01*
X5109Y1107D01*
Y1094D01*
X5100Y1090D01*
X5084Y1074D01*
X5075Y1053D01*
X5191D01*
X5183Y1074D01*
X5166Y1090D01*
X5157Y1094D01*
Y1107D01*
X5166Y1111D01*
X5183Y1127D01*
X5191Y1148D01*
D02*
G37*
G36*
X495Y1054D02*
X449D01*
X458Y1033D01*
X474Y1016D01*
X495Y1008D01*
Y1054D01*
D02*
G37*
G36*
X6296Y1090D02*
X6277D01*
X6259Y1083D01*
X6245Y1069D01*
X6238Y1051D01*
Y1032D01*
X6245Y1014D01*
X6259Y1000D01*
X6277Y992D01*
X6296D01*
X6314Y1000D01*
X6328Y1014D01*
X6335Y1032D01*
Y1051D01*
X6328Y1069D01*
X6314Y1083D01*
X6296Y1090D01*
D02*
G37*
G36*
X5191Y1028D02*
X5146D01*
Y983D01*
X5166Y991D01*
X5183Y1007D01*
X5191Y1028D01*
D02*
G37*
G36*
X5120D02*
X5075D01*
X5084Y1007D01*
X5100Y991D01*
X5120Y983D01*
Y1028D01*
D02*
G37*
G36*
X5901Y1079D02*
X5881D01*
X5863Y1072D01*
X5850Y1058D01*
X5842Y1040D01*
Y1021D01*
X5850Y1003D01*
X5863Y989D01*
X5881Y981D01*
X5901D01*
X5919Y989D01*
X5933Y1003D01*
X5940Y1021D01*
Y1040D01*
X5933Y1058D01*
X5919Y1072D01*
X5901Y1079D01*
D02*
G37*
G36*
X2883Y999D02*
X2862Y990D01*
X2845Y973D01*
X2844Y972D01*
X2829Y967D01*
X2816Y972D01*
X2797D01*
X2779Y965D01*
X2765Y951D01*
X2758Y933D01*
Y914D01*
X2765Y896D01*
X2779Y882D01*
X2765Y868D01*
X2758Y850D01*
Y831D01*
X2765Y813D01*
X2779Y799D01*
X2797Y791D01*
X2816D01*
X2829Y797D01*
X2845Y793D01*
X2845Y792D01*
X2862Y775D01*
X2883Y766D01*
Y826D01*
X2896D01*
Y838D01*
X2955D01*
X2946Y859D01*
X2929Y876D01*
X2928Y876D01*
Y889D01*
X2929Y889D01*
X2946Y906D01*
X2955Y927D01*
X2896D01*
Y940D01*
X2883D01*
Y999D01*
D02*
G37*
G36*
X4023Y1052D02*
X4003D01*
X3985Y1045D01*
X3972Y1031D01*
X3964Y1013D01*
Y994D01*
X3972Y976D01*
X3985Y962D01*
X4003Y954D01*
X4023D01*
X4041Y962D01*
X4055Y976D01*
X4062Y994D01*
Y1013D01*
X4055Y1031D01*
X4041Y1045D01*
X4023Y1052D01*
D02*
G37*
G36*
X3787D02*
X3768D01*
X3750Y1045D01*
X3736Y1031D01*
X3729Y1013D01*
Y994D01*
X3736Y976D01*
X3750Y962D01*
X3768Y954D01*
X3787D01*
X3805Y962D01*
X3819Y976D01*
X3827Y994D01*
Y1013D01*
X3819Y1031D01*
X3805Y1045D01*
X3787Y1052D01*
D02*
G37*
G36*
X3327Y999D02*
X3306Y990D01*
X3290Y973D01*
X3281Y952D01*
X3327D01*
Y999D01*
D02*
G37*
G36*
X2908D02*
Y952D01*
X2955D01*
X2946Y973D01*
X2929Y990D01*
X2908Y999D01*
D02*
G37*
G36*
X4559Y986D02*
Y940D01*
X4606D01*
X4597Y961D01*
X4580Y977D01*
X4559Y986D01*
D02*
G37*
G36*
X4493Y1040D02*
X4473D01*
X4455Y1032D01*
X4442Y1018D01*
X4434Y1000D01*
Y981D01*
X4442Y963D01*
X4455Y949D01*
X4473Y942D01*
X4485D01*
X4487Y940D01*
X4534D01*
Y987D01*
X4532Y988D01*
Y1000D01*
X4525Y1018D01*
X4511Y1032D01*
X4493Y1040D01*
D02*
G37*
G36*
X1869Y966D02*
Y920D01*
X1915D01*
X1907Y941D01*
X1890Y958D01*
X1869Y966D01*
D02*
G37*
G36*
X1844D02*
X1823Y958D01*
X1806Y941D01*
X1797Y920D01*
X1844D01*
Y966D01*
D02*
G37*
G36*
X4798Y1014D02*
X4778D01*
X4760Y1007D01*
X4746Y993D01*
X4739Y975D01*
Y955D01*
X4746Y937D01*
X4760Y924D01*
X4778Y916D01*
X4798D01*
X4816Y924D01*
X4829Y937D01*
X4837Y955D01*
Y975D01*
X4829Y993D01*
X4816Y1007D01*
X4798Y1014D01*
D02*
G37*
G36*
X5522Y1002D02*
X5502D01*
X5484Y994D01*
X5470Y980D01*
X5463Y962D01*
Y943D01*
X5470Y925D01*
X5484Y911D01*
X5502Y903D01*
X5522D01*
X5540Y911D01*
X5553Y925D01*
X5561Y943D01*
Y962D01*
X5553Y980D01*
X5540Y994D01*
X5522Y1002D01*
D02*
G37*
G36*
X4606Y914D02*
X4559D01*
Y868D01*
X4580Y877D01*
X4597Y893D01*
X4606Y914D01*
D02*
G37*
G36*
X4534D02*
X4488D01*
X4496Y893D01*
X4513Y877D01*
X4534Y868D01*
Y914D01*
D02*
G37*
G36*
X1915Y895D02*
X1869D01*
Y848D01*
X1890Y857D01*
X1907Y874D01*
X1915Y895D01*
D02*
G37*
G36*
X1844D02*
X1797D01*
X1806Y874D01*
X1823Y857D01*
X1844Y848D01*
Y895D01*
D02*
G37*
G36*
X6289Y931D02*
X6270D01*
X6252Y923D01*
X6238Y910D01*
X6230Y892D01*
Y872D01*
X6238Y854D01*
X6252Y840D01*
X6270Y833D01*
X6289D01*
X6307Y840D01*
X6321Y854D01*
X6328Y872D01*
Y892D01*
X6321Y910D01*
X6307Y923D01*
X6289Y931D01*
D02*
G37*
G36*
X1328Y991D02*
X1306D01*
X1284Y985D01*
X1265Y974D01*
X1249Y958D01*
X1238Y939D01*
X1232Y917D01*
Y895D01*
X1238Y873D01*
X1249Y854D01*
X1265Y838D01*
X1284Y827D01*
X1306Y821D01*
X1328D01*
X1350Y827D01*
X1369Y838D01*
X1385Y854D01*
X1396Y873D01*
X1402Y895D01*
Y917D01*
X1396Y939D01*
X1385Y958D01*
X1369Y974D01*
X1350Y985D01*
X1328Y991D01*
D02*
G37*
G36*
X3353Y999D02*
Y940D01*
X3340D01*
Y927D01*
X3281D01*
X3290Y906D01*
X3303Y893D01*
X3306Y887D01*
X3304Y877D01*
X3292Y865D01*
X3283Y844D01*
X3342D01*
Y831D01*
X3355D01*
Y772D01*
X3376Y781D01*
X3393Y797D01*
X3400Y814D01*
X3413Y818D01*
X3414Y818D01*
X3417Y815D01*
X3433Y808D01*
X3450D01*
X3467Y815D01*
X3479Y827D01*
X3486Y843D01*
Y861D01*
X3479Y877D01*
X3467Y889D01*
X3479Y901D01*
X3486Y917D01*
Y935D01*
X3479Y951D01*
X3467Y963D01*
X3450Y970D01*
X3433D01*
X3417Y963D01*
X3411Y957D01*
X3396Y960D01*
X3390Y973D01*
X3374Y990D01*
X3353Y999D01*
D02*
G37*
G36*
X4988Y886D02*
X4969D01*
X4951Y878D01*
X4937Y865D01*
X4929Y847D01*
Y827D01*
X4937Y809D01*
X4951Y795D01*
X4969Y788D01*
X4988D01*
X5006Y795D01*
X5020Y809D01*
X5027Y827D01*
Y847D01*
X5020Y865D01*
X5006Y878D01*
X4988Y886D01*
D02*
G37*
G36*
X3330Y818D02*
X3283D01*
X3292Y797D01*
X3309Y781D01*
X3330Y772D01*
Y818D01*
D02*
G37*
G36*
X4373Y815D02*
Y769D01*
X4419D01*
X4410Y790D01*
X4394Y807D01*
X4373Y815D01*
D02*
G37*
G36*
X4347D02*
X4326Y807D01*
X4310Y790D01*
X4301Y769D01*
X4347D01*
Y815D01*
D02*
G37*
G36*
X2955Y813D02*
X2908D01*
Y766D01*
X2929Y775D01*
X2946Y792D01*
X2955Y813D01*
D02*
G37*
G36*
X4836Y824D02*
X4816D01*
X4798Y816D01*
X4784Y802D01*
X4777Y784D01*
Y765D01*
X4784Y747D01*
X4798Y733D01*
X4816Y726D01*
X4836D01*
X4854Y733D01*
X4868Y747D01*
X4875Y765D01*
Y784D01*
X4868Y802D01*
X4854Y816D01*
X4836Y824D01*
D02*
G37*
G36*
X4419Y744D02*
X4373D01*
Y697D01*
X4394Y706D01*
X4410Y723D01*
X4419Y744D01*
D02*
G37*
G36*
X4347D02*
X4301D01*
X4310Y723D01*
X4326Y706D01*
X4347Y697D01*
Y744D01*
D02*
G37*
G36*
X1882Y725D02*
Y679D01*
X1928D01*
X1919Y700D01*
X1903Y716D01*
X1882Y725D01*
D02*
G37*
G36*
X1856D02*
X1835Y716D01*
X1819Y700D01*
X1810Y679D01*
X1856D01*
Y725D01*
D02*
G37*
G36*
X5820Y669D02*
Y622D01*
X5866D01*
X5858Y643D01*
X5841Y660D01*
X5820Y669D01*
D02*
G37*
G36*
X5795D02*
X5774Y660D01*
X5757Y643D01*
X5748Y622D01*
X5795D01*
Y669D01*
D02*
G37*
G36*
X4369Y660D02*
Y613D01*
X4415D01*
X4407Y634D01*
X4390Y651D01*
X4369Y660D01*
D02*
G37*
G36*
X4344D02*
X4323Y651D01*
X4306Y634D01*
X4297Y613D01*
X4344D01*
Y660D01*
D02*
G37*
G36*
X1928Y653D02*
X1882D01*
Y607D01*
X1903Y616D01*
X1919Y632D01*
X1928Y653D01*
D02*
G37*
G36*
X1856D02*
X1810D01*
X1819Y632D01*
X1835Y616D01*
X1856Y607D01*
Y653D01*
D02*
G37*
G36*
X1328Y762D02*
X1306D01*
X1284Y756D01*
X1265Y745D01*
X1249Y729D01*
X1238Y710D01*
X1232Y688D01*
Y666D01*
X1238Y644D01*
X1249Y625D01*
X1265Y609D01*
X1284Y598D01*
X1306Y592D01*
X1328D01*
X1350Y598D01*
X1369Y609D01*
X1385Y625D01*
X1396Y644D01*
X1402Y666D01*
Y688D01*
X1396Y710D01*
X1385Y729D01*
X1369Y745D01*
X1350Y756D01*
X1328Y762D01*
D02*
G37*
G36*
X5866Y597D02*
X5820D01*
Y551D01*
X5841Y559D01*
X5858Y576D01*
X5866Y597D01*
D02*
G37*
G36*
X5795D02*
X5748D01*
X5757Y576D01*
X5774Y559D01*
X5795Y551D01*
Y597D01*
D02*
G37*
G36*
X420Y908D02*
X385D01*
X350Y901D01*
X317Y887D01*
X288Y868D01*
X262Y843D01*
X243Y813D01*
X229Y780D01*
X222Y746D01*
Y710D01*
X229Y675D01*
X243Y643D01*
X262Y613D01*
X288Y588D01*
X317Y568D01*
X350Y555D01*
X385Y548D01*
X420D01*
X455Y555D01*
X488Y568D01*
X517Y588D01*
X542Y613D01*
X562Y643D01*
X575Y675D01*
X582Y710D01*
Y746D01*
X575Y780D01*
X562Y813D01*
X542Y843D01*
X517Y868D01*
X488Y887D01*
X455Y901D01*
X420Y908D01*
D02*
G37*
G36*
X4415Y588D02*
X4369D01*
Y542D01*
X4390Y550D01*
X4407Y567D01*
X4415Y588D01*
D02*
G37*
G36*
X4344D02*
X4297D01*
X4306Y567D01*
X4323Y550D01*
X4344Y542D01*
Y588D01*
D02*
G37*
G36*
X5397Y568D02*
Y521D01*
X5443D01*
X5435Y542D01*
X5418Y559D01*
X5397Y568D01*
D02*
G37*
G36*
X5371D02*
X5351Y559D01*
X5334Y542D01*
X5325Y521D01*
X5371D01*
Y568D01*
D02*
G37*
G36*
X3658Y529D02*
Y483D01*
X3704D01*
X3696Y504D01*
X3679Y521D01*
X3658Y529D01*
D02*
G37*
G36*
X3633D02*
X3612Y521D01*
X3595Y504D01*
X3586Y483D01*
X3633D01*
Y529D01*
D02*
G37*
G36*
X5443Y496D02*
X5397D01*
Y450D01*
X5418Y458D01*
X5435Y475D01*
X5443Y496D01*
D02*
G37*
G36*
X5371D02*
X5325D01*
X5334Y475D01*
X5351Y458D01*
X5371Y450D01*
Y496D01*
D02*
G37*
G36*
X761Y670D02*
X729D01*
X699Y662D01*
X672Y646D01*
X649Y624D01*
X633Y596D01*
X625Y566D01*
Y534D01*
X633Y504D01*
X649Y476D01*
X672Y454D01*
X699Y438D01*
X729Y430D01*
X761D01*
X792Y438D01*
X819Y454D01*
X841Y476D01*
X857Y504D01*
X865Y534D01*
Y566D01*
X857Y596D01*
X841Y624D01*
X819Y646D01*
X792Y662D01*
X761Y670D01*
D02*
G37*
G36*
X3704Y458D02*
X3658D01*
Y411D01*
X3679Y420D01*
X3696Y437D01*
X3704Y458D01*
D02*
G37*
G36*
X3633D02*
X3586D01*
X3595Y437D01*
X3612Y420D01*
X3633Y411D01*
Y458D01*
D02*
G37*
G36*
X4206Y446D02*
Y399D01*
X4252D01*
X4244Y420D01*
X4227Y437D01*
X4206Y446D01*
D02*
G37*
G36*
X4181D02*
X4160Y437D01*
X4143Y420D01*
X4134Y399D01*
X4181D01*
Y446D01*
D02*
G37*
G36*
X5534Y430D02*
X5515D01*
X5497Y423D01*
X5483Y409D01*
X5476Y391D01*
Y371D01*
X5483Y353D01*
X5497Y339D01*
X5515Y332D01*
X5534D01*
X5552Y339D01*
X5566Y353D01*
X5574Y371D01*
Y391D01*
X5566Y409D01*
X5552Y423D01*
X5534Y430D01*
D02*
G37*
G36*
X1041Y377D02*
Y330D01*
X1088D01*
X1079Y351D01*
X1062Y368D01*
X1041Y377D01*
D02*
G37*
G36*
X1016D02*
X995Y368D01*
X978Y351D01*
X970Y330D01*
X1016D01*
Y377D01*
D02*
G37*
G36*
X4252Y374D02*
X4206D01*
Y328D01*
X4227Y336D01*
X4244Y353D01*
X4252Y374D01*
D02*
G37*
G36*
X4181D02*
X4134D01*
X4143Y353D01*
X4160Y336D01*
X4181Y328D01*
Y374D01*
D02*
G37*
G36*
X3619Y403D02*
X3599D01*
X3581Y395D01*
X3567Y381D01*
X3560Y363D01*
Y344D01*
X3567Y326D01*
X3581Y312D01*
X3599Y305D01*
X3619D01*
X3637Y312D01*
X3650Y326D01*
X3658Y344D01*
Y363D01*
X3650Y381D01*
X3637Y395D01*
X3619Y403D01*
D02*
G37*
G36*
X1088Y305D02*
X1041D01*
Y258D01*
X1062Y267D01*
X1079Y284D01*
X1088Y305D01*
D02*
G37*
G36*
X1016D02*
X970D01*
X978Y284D01*
X995Y267D01*
X1016Y258D01*
Y305D01*
D02*
G37*
G36*
X5296Y135D02*
Y89D01*
X5342D01*
X5334Y110D01*
X5317Y127D01*
X5296Y135D01*
D02*
G37*
G36*
X5271D02*
X5250Y127D01*
X5233Y110D01*
X5224Y89D01*
X5271D01*
Y135D01*
D02*
G37*
G36*
X5131D02*
Y89D01*
X5177D01*
X5168Y110D01*
X5152Y127D01*
X5131Y135D01*
D02*
G37*
G36*
X5105D02*
X5084Y127D01*
X5068Y110D01*
X5059Y89D01*
X5105D01*
Y135D01*
D02*
G37*
G36*
X4826D02*
Y89D01*
X4872D01*
X4864Y110D01*
X4847Y127D01*
X4826Y135D01*
D02*
G37*
G36*
X4801D02*
X4780Y127D01*
X4763Y110D01*
X4754Y89D01*
X4801D01*
Y135D01*
D02*
G37*
G36*
X7194Y444D02*
X7157D01*
X7120Y437D01*
X7086Y422D01*
X7054Y402D01*
X7028Y375D01*
X7007Y344D01*
X6993Y309D01*
X6986Y273D01*
Y235D01*
X6993Y199D01*
X7007Y164D01*
X7028Y133D01*
X7054Y106D01*
X7086Y86D01*
X7120Y71D01*
X7157Y64D01*
X7194D01*
X7231Y71D01*
X7265Y86D01*
X7297Y106D01*
X7323Y133D01*
X7344Y164D01*
X7358Y199D01*
X7365Y235D01*
Y273D01*
X7358Y309D01*
X7344Y344D01*
X7323Y375D01*
X7297Y402D01*
X7265Y422D01*
X7231Y437D01*
X7194Y444D01*
D02*
G37*
G36*
X273D02*
X235D01*
X199Y437D01*
X164Y422D01*
X133Y402D01*
X106Y375D01*
X86Y344D01*
X71Y309D01*
X64Y273D01*
Y235D01*
X71Y199D01*
X86Y164D01*
X106Y133D01*
X133Y106D01*
X164Y86D01*
X199Y71D01*
X235Y64D01*
X273D01*
X309Y71D01*
X344Y86D01*
X375Y106D01*
X402Y133D01*
X422Y164D01*
X437Y199D01*
X444Y235D01*
Y273D01*
X437Y309D01*
X422Y344D01*
X402Y375D01*
X375Y402D01*
X344Y422D01*
X309Y437D01*
X273Y444D01*
D02*
G37*
G36*
X4975Y125D02*
X4956D01*
X4938Y118D01*
X4924Y104D01*
X4917Y86D01*
Y66D01*
X4924Y48D01*
X4938Y35D01*
X4956Y27D01*
X4975D01*
X4993Y35D01*
X5007Y48D01*
X5015Y66D01*
Y86D01*
X5007Y104D01*
X4993Y118D01*
X4975Y125D01*
D02*
G37*
G36*
X5342Y63D02*
X5296D01*
Y17D01*
X5317Y26D01*
X5334Y43D01*
X5342Y63D01*
D02*
G37*
G36*
X5271D02*
X5224D01*
X5233Y43D01*
X5250Y26D01*
X5271Y17D01*
Y63D01*
D02*
G37*
G36*
X5177D02*
X5131D01*
Y17D01*
X5152Y26D01*
X5168Y43D01*
X5177Y63D01*
D02*
G37*
G36*
X5105D02*
X5059D01*
X5068Y43D01*
X5084Y26D01*
X5105Y17D01*
Y63D01*
D02*
G37*
G36*
X4872D02*
X4826D01*
Y17D01*
X4847Y26D01*
X4864Y43D01*
X4872Y63D01*
D02*
G37*
G36*
X4801D02*
X4754D01*
X4763Y43D01*
X4780Y26D01*
X4801Y17D01*
Y63D01*
D02*
G37*
%LPD*%
G36*
X1740Y3874D02*
X3099D01*
X3124Y3848D01*
Y3785D01*
X3106Y3767D01*
X3096Y3763D01*
X3093Y3759D01*
X1943Y3759D01*
X1854Y3670D01*
Y3213D01*
X2007Y3061D01*
X2032Y3061D01*
X3086D01*
X3124Y3023D01*
Y2908D01*
X3086Y2870D01*
X2908D01*
X2807Y2769D01*
Y2502D01*
X2769Y2464D01*
X2108D01*
X1842Y2731D01*
X330D01*
X229Y2832D01*
X229Y3924D01*
X330Y4026D01*
X1569Y4026D01*
X1740Y3874D01*
D02*
G37*
%LPC*%
G36*
X470Y3996D02*
Y3950D01*
X516D01*
X508Y3971D01*
X491Y3987D01*
X470Y3996D01*
D02*
G37*
G36*
X445D02*
X424Y3987D01*
X407Y3971D01*
X398Y3950D01*
X445D01*
Y3996D01*
D02*
G37*
G36*
X516Y3924D02*
X470D01*
Y3878D01*
X491Y3887D01*
X508Y3903D01*
X516Y3924D01*
D02*
G37*
G36*
X445D02*
X398D01*
X407Y3903D01*
X424Y3887D01*
X445Y3878D01*
Y3924D01*
D02*
G37*
G36*
X1003Y3904D02*
Y3848D01*
X1059D01*
X1055Y3862D01*
X1046Y3878D01*
X1033Y3891D01*
X1017Y3900D01*
X1003Y3904D01*
D02*
G37*
G36*
X978D02*
X964Y3900D01*
X948Y3891D01*
X935Y3878D01*
X926Y3862D01*
X922Y3848D01*
X978D01*
Y3904D01*
D02*
G37*
G36*
X1059Y3823D02*
X1003D01*
Y3767D01*
X1017Y3771D01*
X1033Y3780D01*
X1046Y3793D01*
X1055Y3809D01*
X1059Y3823D01*
D02*
G37*
G36*
X978D02*
X922D01*
X926Y3809D01*
X935Y3793D01*
X948Y3780D01*
X964Y3771D01*
X978Y3767D01*
Y3823D01*
D02*
G37*
G36*
X546Y3704D02*
Y3658D01*
X592D01*
X584Y3679D01*
X567Y3695D01*
X546Y3704D01*
D02*
G37*
G36*
X521D02*
X500Y3695D01*
X483Y3679D01*
X474Y3658D01*
X521D01*
Y3704D01*
D02*
G37*
G36*
X592Y3632D02*
X546D01*
Y3586D01*
X567Y3595D01*
X584Y3611D01*
X592Y3632D01*
D02*
G37*
G36*
X521D02*
X474D01*
X483Y3611D01*
X500Y3595D01*
X521Y3586D01*
Y3632D01*
D02*
G37*
G36*
X1546Y3656D02*
X1527D01*
X1509Y3648D01*
X1495Y3635D01*
X1488Y3617D01*
Y3597D01*
X1495Y3579D01*
X1509Y3565D01*
X1527Y3558D01*
X1546D01*
X1564Y3565D01*
X1578Y3579D01*
X1586Y3597D01*
Y3617D01*
X1578Y3635D01*
X1564Y3648D01*
X1546Y3656D01*
D02*
G37*
G36*
X1003Y3536D02*
Y3480D01*
X1059D01*
X1055Y3494D01*
X1046Y3510D01*
X1033Y3523D01*
X1017Y3532D01*
X1003Y3536D01*
D02*
G37*
G36*
X978D02*
X964Y3532D01*
X948Y3523D01*
X935Y3510D01*
X926Y3494D01*
X922Y3480D01*
X978D01*
Y3536D01*
D02*
G37*
G36*
X1059Y3454D02*
X1003D01*
Y3399D01*
X1017Y3402D01*
X1033Y3412D01*
X1046Y3424D01*
X1055Y3440D01*
X1059Y3454D01*
D02*
G37*
G36*
X978D02*
X922D01*
X926Y3440D01*
X935Y3424D01*
X948Y3412D01*
X964Y3402D01*
X978Y3399D01*
Y3454D01*
D02*
G37*
G36*
X493Y3577D02*
X313D01*
Y3397D01*
X493D01*
Y3577D01*
D02*
G37*
G36*
X1524Y3361D02*
Y3315D01*
X1570D01*
X1562Y3336D01*
X1545Y3352D01*
X1524Y3361D01*
D02*
G37*
G36*
X1499D02*
X1478Y3352D01*
X1461Y3336D01*
X1452Y3315D01*
X1499D01*
Y3361D01*
D02*
G37*
G36*
X1673Y3351D02*
X1654D01*
X1636Y3344D01*
X1622Y3330D01*
X1615Y3312D01*
Y3292D01*
X1622Y3274D01*
X1636Y3260D01*
X1654Y3253D01*
X1673D01*
X1691Y3260D01*
X1705Y3274D01*
X1713Y3292D01*
Y3312D01*
X1705Y3330D01*
X1691Y3344D01*
X1673Y3351D01*
D02*
G37*
G36*
X1570Y3289D02*
X1524D01*
Y3243D01*
X1545Y3252D01*
X1562Y3268D01*
X1570Y3289D01*
D02*
G37*
G36*
X1499D02*
X1452D01*
X1461Y3268D01*
X1478Y3252D01*
X1499Y3243D01*
Y3289D01*
D02*
G37*
G36*
X1331Y3288D02*
X1311D01*
X1293Y3280D01*
X1279Y3266D01*
X1272Y3248D01*
Y3229D01*
X1279Y3211D01*
X1293Y3197D01*
X1311Y3190D01*
X1331D01*
X1349Y3197D01*
X1362Y3211D01*
X1370Y3229D01*
Y3248D01*
X1362Y3266D01*
X1349Y3280D01*
X1331Y3288D01*
D02*
G37*
G36*
X414Y3323D02*
X391D01*
X368Y3317D01*
X347Y3305D01*
X331Y3288D01*
X319Y3268D01*
X313Y3245D01*
Y3221D01*
X319Y3198D01*
X331Y3178D01*
X347Y3161D01*
X368Y3149D01*
X391Y3143D01*
X414D01*
X437Y3149D01*
X458Y3161D01*
X475Y3178D01*
X486Y3198D01*
X493Y3221D01*
Y3245D01*
X486Y3268D01*
X475Y3288D01*
X458Y3305D01*
X437Y3317D01*
X414Y3323D01*
D02*
G37*
G36*
X546Y3132D02*
Y3086D01*
X592D01*
X584Y3107D01*
X567Y3124D01*
X546Y3132D01*
D02*
G37*
G36*
X521D02*
X500Y3124D01*
X483Y3107D01*
X474Y3086D01*
X521D01*
Y3132D01*
D02*
G37*
G36*
X592Y3061D02*
X546D01*
Y3014D01*
X567Y3023D01*
X584Y3040D01*
X592Y3061D01*
D02*
G37*
G36*
X521D02*
X474D01*
X483Y3040D01*
X500Y3023D01*
X521Y3014D01*
Y3061D01*
D02*
G37*
G36*
X2565Y3015D02*
Y2959D01*
X2621D01*
X2617Y2973D01*
X2608Y2989D01*
X2595Y3002D01*
X2579Y3011D01*
X2565Y3015D01*
D02*
G37*
G36*
X2540D02*
X2526Y3011D01*
X2510Y3002D01*
X2497Y2989D01*
X2488Y2973D01*
X2484Y2959D01*
X2540D01*
Y3015D01*
D02*
G37*
G36*
X2621Y2934D02*
X2565D01*
Y2878D01*
X2579Y2882D01*
X2595Y2891D01*
X2608Y2904D01*
X2617Y2920D01*
X2621Y2934D01*
D02*
G37*
G36*
X2540D02*
X2484D01*
X2488Y2920D01*
X2497Y2904D01*
X2510Y2891D01*
X2526Y2882D01*
X2540Y2878D01*
Y2934D01*
D02*
G37*
G36*
X2463Y2826D02*
X2439D01*
X2418Y2817D01*
X2401Y2800D01*
X2392Y2779D01*
Y2755D01*
X2401Y2734D01*
X2418Y2717D01*
X2439Y2708D01*
X2463D01*
X2485Y2717D01*
X2501Y2734D01*
X2510Y2755D01*
Y2779D01*
X2501Y2800D01*
X2485Y2817D01*
X2463Y2826D01*
D02*
G37*
%LPD*%
D116*
X403Y3233D02*
D03*
X2184Y5359D02*
D03*
X1930Y5613D02*
D03*
Y5359D02*
D03*
X1676Y5613D02*
D03*
Y5359D02*
D03*
X1422Y5613D02*
D03*
Y5359D02*
D03*
X1168Y5613D02*
D03*
Y5359D02*
D03*
X914Y5613D02*
D03*
Y5359D02*
D03*
X660Y5613D02*
D03*
Y5359D02*
D03*
X406Y5613D02*
D03*
Y5359D02*
D03*
X826Y7328D02*
D03*
X1080D02*
D03*
X1334D02*
D03*
X2210D02*
D03*
X2464D02*
D03*
X2718D02*
D03*
X3874Y5372D02*
D03*
X4128D02*
D03*
X4381D02*
D03*
X4635D02*
D03*
X3619D02*
D03*
D135*
X254Y7379D02*
D03*
X7175Y254D02*
D03*
Y7366D02*
D03*
X254Y254D02*
D03*
D136*
X6356Y6223D02*
D03*
Y5715D02*
D03*
X6801Y6223D02*
D03*
Y5715D02*
D03*
X5588Y5489D02*
D03*
Y4981D02*
D03*
D137*
X656Y1007D02*
D03*
D138*
X834Y1109D02*
D03*
X656Y1211D02*
D03*
X834Y1313D02*
D03*
X656Y1415D02*
D03*
X834Y1517D02*
D03*
X656Y1619D02*
D03*
X834Y1721D02*
D03*
X1317Y906D02*
D03*
Y1820D02*
D03*
Y2049D02*
D03*
Y677D02*
D03*
D139*
X745Y550D02*
D03*
Y2176D02*
D03*
D140*
X403Y3487D02*
D03*
D141*
X2184Y5613D02*
D03*
X572Y7328D02*
D03*
X1956D02*
D03*
X4890Y5372D02*
D03*
D142*
X6837Y1908D02*
D03*
Y1463D02*
D03*
D143*
X7137Y1285D02*
D03*
Y2085D02*
D03*
D144*
X4851Y1333D02*
D03*
X4802Y1575D02*
D03*
X4903Y1587D02*
D03*
X5004Y1588D02*
D03*
X3598Y2303D02*
D03*
X4394Y1981D02*
D03*
X3683Y2120D02*
D03*
X5626Y1448D02*
D03*
X6083Y1575D02*
D03*
X5009Y1885D02*
D03*
X4254Y1981D02*
D03*
X4527Y2690D02*
D03*
X4102Y2856D02*
D03*
X4752Y4510D02*
D03*
X2870Y4407D02*
D03*
X3124Y4648D02*
D03*
X3404Y2743D02*
D03*
X3655Y3197D02*
D03*
X3518Y2756D02*
D03*
X3124Y4737D02*
D03*
X3188Y2908D02*
D03*
X5017Y3200D02*
D03*
X4775Y2870D02*
D03*
X4407Y4547D02*
D03*
X4661Y2870D02*
D03*
X3177Y4294D02*
D03*
X4001Y2856D02*
D03*
X3940Y4550D02*
D03*
X3200Y3794D02*
D03*
X3505Y4513D02*
D03*
X2705Y4559D02*
D03*
X3797D02*
D03*
X3670Y4470D02*
D03*
X3874Y4001D02*
D03*
X3569Y4839D02*
D03*
X4597Y2794D02*
D03*
X4600Y4511D02*
D03*
X5017Y3289D02*
D03*
X4367Y2680D02*
D03*
X3157Y4401D02*
D03*
X3518Y4204D02*
D03*
X5042Y4826D02*
D03*
X5347Y2794D02*
D03*
X3200Y3886D02*
D03*
X5144Y4610D02*
D03*
X4940Y4420D02*
D03*
X3226Y2413D02*
D03*
X5330Y4251D02*
D03*
X5321Y3823D02*
D03*
X3327Y2413D02*
D03*
X3619Y2679D02*
D03*
X4991Y3823D02*
D03*
X4445Y2743D02*
D03*
X5036Y2547D02*
D03*
X3251Y3531D02*
D03*
X3315Y3645D02*
D03*
X3124Y3721D02*
D03*
X3772Y2794D02*
D03*
X3773Y2705D02*
D03*
X3328Y2679D02*
D03*
X3172Y3296D02*
D03*
X2451Y3632D02*
D03*
X2476Y3531D02*
D03*
X2502Y3708D02*
D03*
X2353Y3446D02*
D03*
X4242Y4839D02*
D03*
X3609Y354D02*
D03*
X4813Y76D02*
D03*
X3721Y4221D02*
D03*
X4317Y4081D02*
D03*
X4318Y3747D02*
D03*
X3683Y3404D02*
D03*
X6731Y1359D02*
D03*
X5734Y7215D02*
D03*
X6718Y7366D02*
D03*
X4013Y1003D02*
D03*
X3778D02*
D03*
X4849Y1242D02*
D03*
X4762Y1170D02*
D03*
X3340Y940D02*
D03*
X3342Y831D02*
D03*
X4018Y1400D02*
D03*
X4483Y1105D02*
D03*
Y991D02*
D03*
X3778Y1399D02*
D03*
X3444Y1562D02*
D03*
Y1479D02*
D03*
X1346Y1664D02*
D03*
X1029Y317D02*
D03*
Y2413D02*
D03*
X1829Y2045D02*
D03*
X4978Y837D02*
D03*
X4193Y387D02*
D03*
X5384Y509D02*
D03*
X6909Y3632D02*
D03*
Y3785D02*
D03*
X4750Y1943D02*
D03*
X2007Y3975D02*
D03*
X2070Y3708D02*
D03*
X3987Y2413D02*
D03*
X4496Y2400D02*
D03*
X4661D02*
D03*
X4724Y2045D02*
D03*
X4890Y4839D02*
D03*
X4353Y2405D02*
D03*
X5512Y1308D02*
D03*
X3289Y5156D02*
D03*
X3683Y4839D02*
D03*
X1537Y3607D02*
D03*
X1321Y3238D02*
D03*
X1511Y3302D02*
D03*
X4360Y756D02*
D03*
X965Y4712D02*
D03*
X2007Y4102D02*
D03*
X1321Y6134D02*
D03*
X2946Y4623D02*
D03*
X2565Y4381D02*
D03*
X2285Y4431D02*
D03*
X1816Y4496D02*
D03*
X5791Y4394D02*
D03*
X5715Y6756D02*
D03*
X5334Y6604D02*
D03*
Y6756D02*
D03*
X5347Y6439D02*
D03*
X5512Y6909D02*
D03*
X5715Y6604D02*
D03*
X6096D02*
D03*
Y6756D02*
D03*
X7061Y7074D02*
D03*
X1727Y4420D02*
D03*
X1575Y4204D02*
D03*
X1715D02*
D03*
X1753Y4736D02*
D03*
X1842Y4851D02*
D03*
X1791Y5029D02*
D03*
X5504Y1164D02*
D03*
X2591Y4648D02*
D03*
X2178Y4769D02*
D03*
X2273Y4725D02*
D03*
X3429Y4890D02*
D03*
X5807Y610D02*
D03*
X4547Y927D02*
D03*
Y1168D02*
D03*
X4826Y775D02*
D03*
X3895Y2409D02*
D03*
X5588Y1740D02*
D03*
X5891Y1335D02*
D03*
X5512Y952D02*
D03*
X4788Y965D02*
D03*
X4674Y1168D02*
D03*
X3899Y1194D02*
D03*
X804Y4873D02*
D03*
X826Y4483D02*
D03*
X673D02*
D03*
X1092Y4394D02*
D03*
X4939Y4115D02*
D03*
X6998Y1638D02*
D03*
Y1740D02*
D03*
X4356Y6134D02*
D03*
X6668Y1156D02*
D03*
X2870Y4229D02*
D03*
X6147Y2515D02*
D03*
X6403Y2142D02*
D03*
X6507Y1944D02*
D03*
X6083Y1778D02*
D03*
X6185Y1624D02*
D03*
X3238Y4559D02*
D03*
X760Y6141D02*
D03*
X1014D02*
D03*
X2464Y6096D02*
D03*
X2210D02*
D03*
X4851Y6756D02*
D03*
Y6655D02*
D03*
X4585Y4839D02*
D03*
X2172Y4902D02*
D03*
X4521Y6934D02*
D03*
X1164Y4288D02*
D03*
X1297Y4253D02*
D03*
X1896Y4427D02*
D03*
X1892Y4280D02*
D03*
X1232Y4381D02*
D03*
X2591Y4765D02*
D03*
X2591Y4896D02*
D03*
X1473Y4089D02*
D03*
X1359Y4178D02*
D03*
X5365Y1765D02*
D03*
X2807Y923D02*
D03*
X2896Y826D02*
D03*
X5245Y2400D02*
D03*
X5093D02*
D03*
X2727Y6108D02*
D03*
X4089Y4839D02*
D03*
X3763Y5909D02*
D03*
X3150Y5156D02*
D03*
X1956Y6096D02*
D03*
X3683Y5220D02*
D03*
X3124Y6172D02*
D03*
X2984Y4890D02*
D03*
X2282Y4276D02*
D03*
X965Y4585D02*
D03*
X2172Y5029D02*
D03*
X6185Y1727D02*
D03*
X5882Y1187D02*
D03*
X3454Y2286D02*
D03*
X6268Y1339D02*
D03*
X3342Y1568D02*
D03*
X6279Y882D02*
D03*
X6287Y1041D02*
D03*
X533Y3645D02*
D03*
X4394Y4839D02*
D03*
X4737D02*
D03*
X5918Y2007D02*
D03*
X6287Y1549D02*
D03*
X5524Y381D02*
D03*
X6726Y1620D02*
D03*
X6414Y1397D02*
D03*
X6580Y2373D02*
D03*
X6274Y1181D02*
D03*
X6223Y3785D02*
D03*
Y3632D02*
D03*
X3645Y470D02*
D03*
X4877Y2210D02*
D03*
X3073Y2286D02*
D03*
X4966Y76D02*
D03*
X5118D02*
D03*
X5283D02*
D03*
X508Y1168D02*
D03*
Y1067D02*
D03*
Y1575D02*
D03*
Y1473D02*
D03*
X2807Y840D02*
D03*
X1856Y907D02*
D03*
X1869Y666D02*
D03*
X2896Y940D02*
D03*
X2898Y1466D02*
D03*
Y1568D02*
D03*
X2809Y1558D02*
D03*
Y1475D02*
D03*
X2193Y3446D02*
D03*
X2858Y3556D02*
D03*
Y3708D02*
D03*
X3302Y5906D02*
D03*
X559Y6096D02*
D03*
X3273Y6519D02*
D03*
X4068Y6938D02*
D03*
X3806Y6938D02*
D03*
X4068Y6455D02*
D03*
X3806Y6461D02*
D03*
X3342Y1466D02*
D03*
X4356Y601D02*
D03*
X5891Y1030D02*
D03*
X2197Y3175D02*
D03*
X4242Y5220D02*
D03*
X2197Y3327D02*
D03*
X6401Y2807D02*
D03*
Y3035D02*
D03*
X6223Y2159D02*
D03*
X6794Y2324D02*
D03*
X5131Y6706D02*
D03*
X533Y3073D02*
D03*
X457Y3937D02*
D03*
X1664Y3302D02*
D03*
X521Y4483D02*
D03*
X673Y4877D02*
D03*
X521D02*
D03*
D145*
X5588Y1580D02*
D03*
X6998Y1460D02*
D03*
Y1905D02*
D03*
X3442Y926D02*
D03*
Y852D02*
D03*
D146*
X5004Y3975D02*
D03*
X5499Y3658D02*
D03*
X4940Y4321D02*
D03*
Y4218D02*
D03*
X5499Y3772D02*
D03*
X4512Y5889D02*
D03*
X6642Y3937D02*
D03*
X5644Y4145D02*
D03*
X6223Y6782D02*
D03*
X813Y4128D02*
D03*
X2451Y2767D02*
D03*
X2553Y2946D02*
D03*
X1770Y1842D02*
D03*
X2769Y5156D02*
D03*
X991Y3835D02*
D03*
X6020Y3442D02*
D03*
Y3200D02*
D03*
X7099D02*
D03*
Y3429D02*
D03*
X991Y3467D02*
D03*
D147*
X5133Y1040D02*
D03*
Y1160D02*
D03*
D148*
X7049Y4407D02*
D03*
X6845Y5055D02*
D03*
X6236Y5067D02*
D03*
D149*
X1358Y4767D02*
D03*
X1485Y4907D02*
D03*
Y4653D02*
D03*
X1231Y4907D02*
D03*
Y4653D02*
D03*
M02*
