G04*
G04 #@! TF.GenerationSoftware,Altium Limited,Altium Designer,21.2.0 (30)*
G04*
G04 Layer_Physical_Order=3*
G04 Layer_Color=36540*
%FSLAX42Y42*%
%MOMM*%
G71*
G04*
G04 #@! TF.SameCoordinates,2206926D-CA63-4A2E-8DE4-A6F34C4AB1E6*
G04*
G04*
G04 #@! TF.FilePolarity,Positive*
G04*
G01*
G75*
%ADD116C,1.50*%
%ADD119C,0.80*%
%ADD120C,0.50*%
%ADD136C,1.20*%
%ADD138C,1.40*%
%ADD141R,1.50X1.50*%
%ADD144C,0.68*%
%ADD146C,0.88*%
%ADD148C,1.38*%
%ADD173C,0.29*%
%ADD174C,0.18*%
G36*
X1740Y3874D02*
X1744D01*
X1749Y3862D01*
X1543Y3656D01*
X1527D01*
X1509Y3648D01*
X1495Y3635D01*
X1488Y3617D01*
Y3597D01*
X1495Y3579D01*
X1509Y3565D01*
X1527Y3558D01*
X1546D01*
X1564Y3565D01*
X1578Y3579D01*
X1586Y3597D01*
Y3613D01*
X1835Y3863D01*
X3109D01*
X3124Y3848D01*
Y3827D01*
X1880D01*
X1868Y3825D01*
X1858Y3819D01*
X1327Y3288D01*
X1311D01*
X1293Y3280D01*
X1279Y3266D01*
X1272Y3248D01*
Y3229D01*
X1279Y3211D01*
X1293Y3197D01*
X1311Y3190D01*
X1331D01*
X1349Y3197D01*
X1362Y3211D01*
X1370Y3229D01*
Y3245D01*
X1892Y3767D01*
X1933D01*
X1938Y3754D01*
X1854Y3670D01*
Y3213D01*
X2007Y3061D01*
X2032Y3061D01*
X3086D01*
X3124Y3023D01*
Y2908D01*
X3086Y2870D01*
X2908D01*
X2807Y2769D01*
Y2502D01*
X2769Y2464D01*
X2108D01*
X1842Y2731D01*
X330D01*
X229Y2832D01*
X229Y3924D01*
X330Y4026D01*
X1569Y4026D01*
X1740Y3874D01*
D02*
G37*
%LPC*%
G36*
X493Y3577D02*
X313D01*
Y3397D01*
X493D01*
Y3577D01*
D02*
G37*
G36*
X1673Y3351D02*
X1654D01*
X1636Y3344D01*
X1622Y3330D01*
X1615Y3312D01*
Y3292D01*
X1622Y3274D01*
X1636Y3260D01*
X1654Y3253D01*
X1673D01*
X1691Y3260D01*
X1705Y3274D01*
X1713Y3292D01*
Y3312D01*
X1705Y3330D01*
X1691Y3344D01*
X1673Y3351D01*
D02*
G37*
G36*
X414Y3323D02*
X391D01*
X368Y3317D01*
X347Y3305D01*
X331Y3288D01*
X319Y3268D01*
X313Y3245D01*
Y3221D01*
X319Y3198D01*
X331Y3178D01*
X347Y3161D01*
X368Y3149D01*
X391Y3143D01*
X414D01*
X437Y3149D01*
X458Y3161D01*
X475Y3178D01*
X486Y3198D01*
X493Y3221D01*
Y3245D01*
X486Y3268D01*
X475Y3288D01*
X458Y3305D01*
X437Y3317D01*
X414Y3323D01*
D02*
G37*
G36*
X2463Y2826D02*
X2439D01*
X2418Y2817D01*
X2401Y2800D01*
X2392Y2779D01*
Y2755D01*
X2401Y2734D01*
X2418Y2717D01*
X2439Y2708D01*
X2463D01*
X2485Y2717D01*
X2501Y2734D01*
X2510Y2755D01*
Y2779D01*
X2501Y2800D01*
X2485Y2817D01*
X2463Y2826D01*
D02*
G37*
%LPD*%
D116*
X2184Y5359D02*
D03*
X1930Y5613D02*
D03*
X3874Y5372D02*
D03*
X4381D02*
D03*
D119*
X5644Y4145D02*
X6434D01*
X6642Y3937D01*
X6401Y2807D02*
Y3035D01*
Y2807D02*
X6403Y2805D01*
Y2142D02*
Y2805D01*
X5596Y5497D02*
X5630D01*
X6356Y6223D01*
X5588Y5489D02*
X5596Y5497D01*
X6356Y5715D02*
X6801D01*
X7049Y4407D02*
Y5467D01*
X6801Y5715D02*
X7049Y5467D01*
D120*
X6356Y6223D02*
Y6223D01*
D136*
D03*
Y5715D02*
D03*
X6801D02*
D03*
X5588Y5489D02*
D03*
D138*
X834Y1109D02*
D03*
Y1313D02*
D03*
Y1517D02*
D03*
Y1721D02*
D03*
X1317Y906D02*
D03*
Y1820D02*
D03*
D141*
X2184Y5613D02*
D03*
D144*
X5042Y4826D02*
D03*
X4018Y1400D02*
D03*
X4483Y1105D02*
D03*
Y991D02*
D03*
X3778Y1399D02*
D03*
X3444Y1562D02*
D03*
Y1479D02*
D03*
X1346Y1664D02*
D03*
X4978Y837D02*
D03*
X3773Y2705D02*
D03*
X3772Y2794D02*
D03*
X4750Y1943D02*
D03*
X5008Y1900D02*
D03*
X4802Y1575D02*
D03*
X3172Y3296D02*
D03*
X3200Y3886D02*
D03*
Y3794D02*
D03*
X4775Y2870D02*
D03*
X3340Y2680D02*
D03*
X3404Y2743D02*
D03*
X4527Y2690D02*
D03*
X2705Y4559D02*
D03*
X2870Y4407D02*
D03*
X3874Y4001D02*
D03*
X4367Y2680D02*
D03*
X3518Y4204D02*
D03*
X5347Y2794D02*
D03*
X3569Y4839D02*
D03*
X5330Y4251D02*
D03*
X4445Y2743D02*
D03*
X3670Y4470D02*
D03*
X5512Y1308D02*
D03*
X1537Y3607D02*
D03*
X1321Y3238D02*
D03*
X1511Y3302D02*
D03*
X1816Y4496D02*
D03*
X1727Y4420D02*
D03*
X1575Y4204D02*
D03*
X1715D02*
D03*
X1753Y4736D02*
D03*
X1842Y4851D02*
D03*
X1791Y5029D02*
D03*
X5504Y1164D02*
D03*
X2591Y4648D02*
D03*
X2178Y4769D02*
D03*
X4826Y775D02*
D03*
X5891Y1335D02*
D03*
X5512Y952D02*
D03*
X4788Y965D02*
D03*
X1092Y4394D02*
D03*
X6668Y1156D02*
D03*
X6403Y2142D02*
D03*
X4851Y6756D02*
D03*
Y6655D02*
D03*
X4585Y4839D02*
D03*
X2591Y4896D02*
D03*
X533Y3645D02*
D03*
X5918Y2007D02*
D03*
X6287Y1549D02*
D03*
X5524Y381D02*
D03*
X6726Y1620D02*
D03*
X6274Y1181D02*
D03*
X3302Y5906D02*
D03*
X5891Y1030D02*
D03*
X6401Y2807D02*
D03*
Y3035D02*
D03*
X533Y3073D02*
D03*
X457Y3937D02*
D03*
D146*
X4512Y5889D02*
D03*
X5004Y3975D02*
D03*
X5499Y3658D02*
D03*
Y3772D02*
D03*
X6642Y3937D02*
D03*
X5644Y4145D02*
D03*
X5613Y1562D02*
D03*
X2553Y2946D02*
D03*
X991Y3835D02*
D03*
Y3467D02*
D03*
D148*
X7049Y4407D02*
D03*
D173*
X5512Y952D02*
X5813D01*
X5891Y1030D01*
X4500Y5360D02*
X5034Y4826D01*
X5042D01*
X4394Y5360D02*
X4500D01*
X4381Y5372D02*
X4394Y5360D01*
X834Y1721D02*
X1289D01*
X834Y1517D02*
Y1721D01*
Y1313D02*
Y1517D01*
X1289Y1721D02*
X1346Y1664D01*
X834Y1109D02*
Y1313D01*
X4686Y381D02*
Y635D01*
X2947Y190D02*
X4496D01*
X4686Y381D01*
X2096Y127D02*
X4508D01*
X4734Y353D01*
Y593D01*
X4978Y837D01*
X4686Y635D02*
X4826Y775D01*
X3874Y5372D02*
X4390Y5889D01*
X4512D01*
X3871Y5370D02*
X3874Y5372D01*
X3772Y2794D02*
Y2794D01*
X3327Y2870D02*
X3696D01*
X3772Y2794D01*
X3657Y2819D02*
X3771Y2705D01*
X3773D01*
X3378Y2819D02*
X3657D01*
X4249Y2419D02*
X4686Y1981D01*
X3372Y3296D02*
X4249Y2419D01*
X3172Y3296D02*
X3372D01*
X4249Y2419D02*
Y2419D01*
X4686Y1981D02*
X4701D01*
X4739Y1943D01*
X4750D01*
X4977Y1880D02*
X4997Y1900D01*
X4206Y1880D02*
X4977D01*
X3408Y2678D02*
X4206Y1880D01*
X4997Y1900D02*
X5008D01*
X4802Y1577D02*
X5347Y2121D01*
X4802Y1575D02*
Y1577D01*
X5347Y2121D02*
Y2794D01*
X2888Y2431D02*
X3327Y2870D01*
X1880Y3797D02*
X3197D01*
X1321Y3238D02*
X1880Y3797D01*
X3197D02*
X3200Y3794D01*
X1823Y3893D02*
X3194D01*
X3200Y3886D01*
X1537Y3607D02*
X1823Y3893D01*
X3505Y4140D02*
X4775Y2870D01*
X2666Y4140D02*
X3505D01*
X4527Y2690D02*
Y2966D01*
X3401Y4092D02*
X4527Y2966D01*
X2601Y4092D02*
X3401D01*
X3375Y4031D02*
X4445Y2961D01*
X2437Y4031D02*
X3375D01*
X4445Y2743D02*
Y2961D01*
X3321Y3957D02*
X4367Y2911D01*
Y2680D02*
Y2911D01*
X2432Y3957D02*
X3321D01*
X3871Y5370D02*
X3874Y5367D01*
X2095Y2431D02*
X2888D01*
X2035Y2382D02*
X2941D01*
X3378Y2819D01*
X3408Y2678D02*
Y2739D01*
X3340Y2680D02*
X4565Y1454D01*
X5602D01*
X3404Y2743D02*
X3408Y2739D01*
X5613Y1562D02*
X5619Y1556D01*
X5602Y1454D02*
X5619Y1471D01*
Y1556D01*
X3365Y4356D02*
Y5245D01*
Y4356D02*
X3518Y4204D01*
X2196Y4610D02*
X2666Y4140D01*
X5521Y1308D02*
X5548Y1335D01*
X5512Y1308D02*
X5521D01*
X3302Y5309D02*
Y5906D01*
Y5309D02*
X3365Y5245D01*
X2353Y4340D02*
X2601Y4092D01*
X2502Y4635D02*
X2731Y4407D01*
X2870D01*
X1803Y4610D02*
X2196D01*
X2502Y4635D02*
Y4807D01*
X2057Y4496D02*
X2214Y4340D01*
X1816Y4496D02*
X2057D01*
X1575Y4381D02*
X1803Y4610D01*
X1575Y4204D02*
Y4381D01*
X1727Y4420D02*
Y4420D01*
Y4420D02*
X1798Y4348D01*
X1715Y4204D02*
X2186D01*
X2432Y3957D01*
X1753Y4736D02*
Y4890D01*
X2042Y5179D01*
X1842Y4851D02*
X2184Y5194D01*
X2042Y5179D02*
Y5471D01*
X1791Y5029D02*
Y5474D01*
X3493Y4647D02*
X3670Y4470D01*
X3493Y4647D02*
Y4924D01*
X5548Y1335D02*
X5891D01*
X5504Y1154D02*
X5541Y1118D01*
X5504Y1154D02*
Y1164D01*
X2672Y4567D02*
X2698D01*
X2705Y4559D01*
X2591Y4648D02*
X2672Y4567D01*
X2502Y4807D02*
X2591Y4896D01*
X2214Y4340D02*
X2353D01*
X2069Y4661D02*
X2178Y4769D01*
X1644Y4661D02*
X2069D01*
X1526Y4543D02*
X1644Y4661D01*
X3416Y5001D02*
X3493Y4924D01*
X3416Y5001D02*
Y5434D01*
X4738Y6756D01*
X5499Y1994D02*
Y3658D01*
Y1994D02*
X6233Y1260D01*
X6563D01*
X5541Y1118D02*
X6210D01*
X6274Y1181D01*
X4788Y965D02*
X5144D01*
X5524Y584D01*
Y381D02*
Y584D01*
X1014Y4407D02*
X1151Y4543D01*
X122Y3988D02*
X540Y4407D01*
X1014D01*
X1054Y4356D02*
X1092Y4394D01*
X196Y3998D02*
X554Y4356D01*
X1054D01*
X1884Y2533D02*
X2035Y2382D01*
X122Y2675D02*
X264Y2533D01*
X6563Y1260D02*
X6668Y1156D01*
X5715Y2210D02*
X5918Y2007D01*
X5715Y2210D02*
Y3569D01*
X5512Y3772D02*
X5715Y3569D01*
X5499Y3772D02*
X5512D01*
X4737Y6655D02*
X4851D01*
X3467Y5385D02*
X4737Y6655D01*
X4881Y4542D02*
X5039D01*
X5330Y4251D01*
X4585Y4839D02*
X4881Y4542D01*
X4585Y4839D02*
Y4839D01*
X264Y2533D02*
X1884D01*
X1928Y2598D02*
X2095Y2431D01*
X122Y2675D02*
Y3988D01*
X1798Y4348D02*
X2119D01*
X2184Y5194D02*
Y5359D01*
X1791Y5474D02*
X1930Y5613D01*
X1151Y4543D02*
X1526D01*
X2119Y4348D02*
X2437Y4031D01*
X267Y2598D02*
X1928D01*
X196Y2669D02*
X267Y2598D01*
X3874Y4001D02*
Y5367D01*
X196Y2669D02*
Y3998D01*
X1317Y906D02*
X2096Y127D01*
X1317Y1820D02*
X2947Y190D01*
X3569Y4839D02*
Y4991D01*
X3467Y5093D02*
X3569Y4991D01*
X4738Y6756D02*
X4851D01*
X3467Y5093D02*
Y5385D01*
X2042Y5471D02*
X2184Y5613D01*
X5004Y3975D02*
X5087Y3892D01*
X5764D01*
X5906Y3751D01*
Y2159D02*
Y3751D01*
X6721Y1625D02*
Y1724D01*
X6617Y1829D02*
X6721Y1724D01*
Y1625D02*
X6726Y1620D01*
X6236Y1829D02*
X6617D01*
X5906Y2159D02*
X6236Y1829D01*
X6296Y1559D02*
X6387D01*
X6287Y1549D02*
X6296Y1559D01*
X6449Y1620D02*
X6726D01*
X6387Y1559D02*
X6449Y1620D01*
D174*
X3936Y1400D02*
X3937Y1400D01*
X4018D01*
X3936Y1400D02*
X4268Y1068D01*
X3795Y1540D02*
X3936Y1400D01*
X3781Y1403D02*
X3876D01*
X3948Y1331D01*
X3779Y1500D02*
X3876Y1403D01*
X4446Y1068D02*
X4483Y1105D01*
X4268Y1068D02*
X4446D01*
X3948Y1331D02*
X4251Y1028D01*
X3948Y1331D02*
Y1331D01*
X4251Y1028D02*
X4446D01*
X3916Y1350D02*
X3929D01*
X4446Y1028D02*
X4483Y991D01*
X3778Y1399D02*
X3781Y1403D01*
X3465Y1540D02*
X3795D01*
X3444Y1562D02*
X3465Y1540D01*
Y1500D02*
X3779D01*
X3444Y1479D02*
X3465Y1500D01*
M02*
