G04*
G04 #@! TF.GenerationSoftware,Altium Limited,Altium Designer,21.2.0 (30)*
G04*
G04 Layer_Color=16711935*
%FSLAX42Y42*%
%MOMM*%
G71*
G04*
G04 #@! TF.SameCoordinates,2206926D-CA63-4A2E-8DE4-A6F34C4AB1E6*
G04*
G04*
G04 #@! TF.FilePolarity,Positive*
G04*
G01*
G75*
%ADD15C,0.13*%
%ADD17C,0.10*%
%ADD183C,0.05*%
%ADD184C,0.03*%
D15*
X2818Y566D02*
Y1847D01*
X3418D01*
Y566D02*
Y1847D01*
X2818Y566D02*
X3418D01*
D17*
X3217Y4529D02*
G03*
X3217Y4529I-50J0D01*
G01*
X5133Y990D02*
G03*
X5133Y990I-50J0D01*
G01*
X2658Y4624D02*
G03*
X2658Y4624I-50J0D01*
G01*
X1391Y3445D02*
G03*
X1391Y3445I-50J0D01*
G01*
X1194Y4990D02*
G03*
X1194Y4990I-50J0D01*
G01*
X600Y6128D02*
G03*
X600Y6128I-50J0D01*
G01*
X1997D02*
G03*
X1997Y6128I-50J0D01*
G01*
X3966Y728D02*
Y898D01*
X4061Y728D02*
Y898D01*
X3966Y728D02*
X4061D01*
X3966Y898D02*
X4061D01*
X3077Y2619D02*
X5077D01*
X3077Y4619D02*
X5077D01*
Y2619D02*
Y4619D01*
X3077Y2619D02*
Y4619D01*
X4988Y895D02*
X5398D01*
X4988Y1305D02*
X5398D01*
X4988Y895D02*
Y1305D01*
X5398Y895D02*
Y1305D01*
X5827Y6391D02*
Y6486D01*
X5997Y6391D02*
Y6486D01*
X5827D02*
X5997D01*
X5827Y6391D02*
X5997D01*
X5864Y4898D02*
Y5203D01*
X6004Y4303D02*
X7344D01*
X5864Y5203D02*
X7344D01*
Y4303D02*
Y5203D01*
X5864Y4898D02*
X6004D01*
Y4303D02*
Y4898D01*
X5437Y6709D02*
Y6804D01*
X5612Y6709D02*
Y6804D01*
X5437D02*
X5612D01*
X5437Y6709D02*
X5612D01*
X5999Y6709D02*
Y6804D01*
X5824Y6709D02*
Y6804D01*
Y6709D02*
X5999D01*
X5824Y6804D02*
X5999D01*
X5612Y6557D02*
Y6651D01*
X5437Y6557D02*
Y6651D01*
Y6557D02*
X5612D01*
X5437Y6651D02*
X5612D01*
X5824Y6557D02*
Y6651D01*
X5999Y6557D02*
Y6651D01*
X5824D02*
X5999D01*
X5824Y6557D02*
X5999D01*
X6920Y6599D02*
X7190D01*
X6920Y6939D02*
X7190D01*
X5539Y562D02*
X5714D01*
X5539Y657D02*
X5714D01*
Y562D02*
Y657D01*
X5539Y562D02*
Y657D01*
X2078Y5144D02*
X2698D01*
X2078Y4534D02*
X2698D01*
X2078D02*
Y5144D01*
X2698Y4534D02*
Y5144D01*
X936Y3140D02*
Y3530D01*
X1426Y3140D02*
Y3530D01*
X936Y3140D02*
X1426D01*
X936Y3530D02*
X1426D01*
X1054Y4470D02*
Y5080D01*
X1664Y4470D02*
Y5080D01*
X1054D02*
X1664D01*
X1054Y4470D02*
X1664D01*
X6654Y1628D02*
Y1801D01*
X6351Y1628D02*
Y1801D01*
X6654D01*
X6351Y1628D02*
X6654D01*
X1431Y537D02*
Y2188D01*
X-144Y537D02*
Y2188D01*
X1431D01*
X-144Y537D02*
X1431D01*
X749Y371D02*
X919D01*
X749Y276D02*
X919D01*
X749D02*
Y371D01*
X919Y276D02*
Y371D01*
X913Y2358D02*
Y2453D01*
X743Y2358D02*
Y2453D01*
Y2358D02*
X913D01*
X743Y2453D02*
X913D01*
X1575Y618D02*
X1745D01*
X1575Y713D02*
X1745D01*
Y618D02*
Y713D01*
X1575Y618D02*
Y713D01*
Y860D02*
X1745D01*
X1575Y955D02*
X1745D01*
Y860D02*
Y955D01*
X1575Y860D02*
Y955D01*
X3811Y1048D02*
Y1351D01*
X3984Y1048D02*
Y1351D01*
X3811D02*
X3984D01*
X3811Y1048D02*
X3984D01*
X6001Y1234D02*
X6171D01*
X6001Y1139D02*
X6171D01*
X6001D02*
Y1234D01*
X6171Y1139D02*
Y1234D01*
X6501Y3737D02*
Y3832D01*
X6326Y3737D02*
Y3832D01*
Y3737D02*
X6501D01*
X6326Y3832D02*
X6501D01*
X6631Y3737D02*
Y3832D01*
X6806Y3737D02*
Y3832D01*
X6631D02*
X6806D01*
X6631Y3737D02*
X6806D01*
X6631Y3585D02*
Y3680D01*
X6806Y3585D02*
Y3680D01*
X6631D02*
X6806D01*
X6631Y3585D02*
X6806D01*
X6501Y3585D02*
Y3680D01*
X6326Y3585D02*
Y3680D01*
Y3585D02*
X6501D01*
X6326Y3680D02*
X6501D01*
X1549Y2003D02*
Y2098D01*
X1719Y2003D02*
Y2098D01*
X1549D02*
X1719D01*
X1549Y2003D02*
X1719D01*
X5210Y1490D02*
X5305D01*
X5210Y1660D02*
X5305D01*
X5210Y1490D02*
Y1660D01*
X5305Y1490D02*
Y1660D01*
X5012Y187D02*
Y357D01*
X4917Y187D02*
Y357D01*
X5012D01*
X4917Y187D02*
X5012D01*
X5401Y1490D02*
X5496D01*
X5401Y1660D02*
X5496D01*
X5401Y1490D02*
Y1660D01*
X5496Y1490D02*
Y1660D01*
X6001Y1292D02*
Y1387D01*
X6171Y1292D02*
Y1387D01*
X6001D02*
X6171D01*
X6001Y1292D02*
X6171D01*
X5234Y357D02*
X5329D01*
X5234Y187D02*
X5329D01*
Y357D01*
X5234Y187D02*
Y357D01*
X1707Y1546D02*
Y1641D01*
X1537Y1546D02*
Y1641D01*
Y1546D02*
X1707D01*
X1537Y1641D02*
X1707D01*
Y1393D02*
Y1488D01*
X1537Y1393D02*
Y1488D01*
Y1393D02*
X1707D01*
X1537Y1488D02*
X1707D01*
X2096Y1397D02*
Y1492D01*
X2266Y1397D02*
Y1492D01*
X2096D02*
X2266D01*
X2096Y1397D02*
X2266D01*
X2095Y1546D02*
Y1641D01*
X2265Y1546D02*
Y1641D01*
X2095D02*
X2265D01*
X2095Y1546D02*
X2265D01*
X6001Y834D02*
Y929D01*
X6171Y834D02*
Y929D01*
X6001D02*
X6171D01*
X6001Y834D02*
X6171D01*
X6001Y987D02*
Y1082D01*
X6171Y987D02*
Y1082D01*
X6001D02*
X6171D01*
X6001Y987D02*
X6171D01*
X3750Y1502D02*
X3845D01*
X3750Y1673D02*
X3845D01*
X3750Y1502D02*
Y1673D01*
X3845Y1502D02*
Y1673D01*
X5616Y1288D02*
Y1383D01*
X5786Y1288D02*
Y1383D01*
X5616D02*
X5786D01*
X5616Y1288D02*
X5786D01*
X5616Y831D02*
Y926D01*
X5786Y831D02*
Y926D01*
X5616D02*
X5786D01*
X5616Y831D02*
X5786D01*
X5616Y983D02*
Y1078D01*
X5786Y983D02*
Y1078D01*
X5616D02*
X5786D01*
X5616Y983D02*
X5786D01*
X3775Y898D02*
X3870D01*
X3775Y728D02*
X3870D01*
Y898D01*
X3775Y728D02*
Y898D01*
X3953Y1502D02*
X4048D01*
X3953Y1673D02*
X4048D01*
X3953Y1502D02*
Y1673D01*
X4048Y1502D02*
Y1673D01*
X3748Y270D02*
X3923D01*
X3748Y365D02*
X3923D01*
Y270D02*
Y365D01*
X3748Y270D02*
Y365D01*
X5069Y185D02*
Y360D01*
X5164Y185D02*
Y360D01*
X5069Y185D02*
X5164D01*
X5069Y360D02*
X5164D01*
X4473Y553D02*
Y648D01*
X4648Y553D02*
Y648D01*
X4473D02*
X4648D01*
X4473Y553D02*
X4648D01*
X1811Y1423D02*
Y1763D01*
X1991Y1423D02*
Y1763D01*
X1811Y1423D02*
X1991D01*
X1811Y1763D02*
X1991D01*
X4108Y1889D02*
X4203D01*
X4108Y1714D02*
X4203D01*
Y1889D01*
X4108Y1714D02*
Y1889D01*
X4260D02*
X4355D01*
X4260Y1714D02*
X4355D01*
Y1889D01*
X4260Y1714D02*
Y1889D01*
X4469Y709D02*
Y804D01*
X4644Y709D02*
Y804D01*
X4469D02*
X4644D01*
X4469Y709D02*
X4644D01*
X5789Y1139D02*
Y1234D01*
X5614Y1139D02*
Y1234D01*
Y1139D02*
X5789D01*
X5614Y1234D02*
X5789D01*
X5336Y613D02*
X5431D01*
X5336Y788D02*
X5431D01*
X5336Y613D02*
Y788D01*
X5431Y613D02*
Y788D01*
X4765Y185D02*
Y360D01*
X4860Y185D02*
Y360D01*
X4765Y185D02*
X4860D01*
X4765Y360D02*
X4860D01*
X3746Y423D02*
Y518D01*
X3921Y423D02*
Y518D01*
X3746D02*
X3921D01*
X3746Y423D02*
X3921D01*
X6826Y1285D02*
Y2085D01*
Y1285D02*
Y2085D01*
X7326Y1285D02*
X7356Y1255D01*
X7386D01*
Y2115D01*
X7356D02*
X7386D01*
X7326Y2085D02*
X7356Y2115D01*
X7076Y1228D02*
Y1285D01*
Y1228D02*
X7181D01*
Y1285D01*
X6826D02*
X7076D01*
X7181D02*
X7326D01*
X7181Y2085D02*
X7326D01*
X6826D02*
X7076D01*
X7181D02*
Y2142D01*
X7076D02*
X7181D01*
X7076Y2085D02*
Y2142D01*
X3351Y2239D02*
Y2333D01*
X3176Y2239D02*
Y2333D01*
Y2239D02*
X3351D01*
X3176Y2333D02*
X3351D01*
X635Y3020D02*
Y3116D01*
X805Y3020D02*
Y3116D01*
X635D02*
X805D01*
X635Y3020D02*
X805D01*
X805Y3173D02*
Y3268D01*
X635Y3173D02*
Y3268D01*
Y3173D02*
X805D01*
X635Y3268D02*
X805D01*
X801Y3440D02*
Y3535D01*
X631Y3440D02*
Y3535D01*
Y3440D02*
X801D01*
X631Y3535D02*
X801D01*
X631Y3592D02*
Y3687D01*
X801Y3592D02*
Y3687D01*
X631D02*
X801D01*
X631Y3592D02*
X801D01*
X943Y4124D02*
X1038D01*
X943Y3954D02*
X1038D01*
Y4124D01*
X943Y3954D02*
Y4124D01*
X475Y4594D02*
Y4769D01*
X570Y4594D02*
Y4769D01*
X475Y4594D02*
X570D01*
X475Y4769D02*
X570D01*
X628Y4594D02*
Y4769D01*
X722Y4594D02*
Y4769D01*
X628Y4594D02*
X722D01*
X628Y4769D02*
X722D01*
X780Y4594D02*
Y4769D01*
X875Y4594D02*
Y4769D01*
X780Y4594D02*
X875D01*
X780Y4769D02*
X875D01*
X1711Y3031D02*
Y3206D01*
X1616Y3031D02*
Y3206D01*
X1711D01*
X1616Y3031D02*
X1711D01*
X1464Y3044D02*
X1559D01*
X1464Y3219D02*
X1559D01*
X1464Y3044D02*
Y3219D01*
X1559Y3044D02*
Y3219D01*
X1420Y6038D02*
Y6708D01*
X460Y6038D02*
Y6708D01*
X1420D01*
X460Y6038D02*
X1420D01*
X1025Y7014D02*
Y7109D01*
X855Y7014D02*
Y7109D01*
Y7014D02*
X1025D01*
X855Y7109D02*
X1025D01*
X2554Y2829D02*
X2729D01*
X2554Y2734D02*
X2729D01*
X2554D02*
Y2829D01*
X2729Y2734D02*
Y2829D01*
X2832Y2891D02*
Y2986D01*
X2657Y2891D02*
Y2986D01*
Y2891D02*
X2832D01*
X2657Y2986D02*
X2832D01*
X2475Y3127D02*
Y3222D01*
X2300Y3127D02*
Y3222D01*
Y3127D02*
X2475D01*
X2300Y3222D02*
X2475D01*
Y3280D02*
Y3375D01*
X2300Y3280D02*
Y3375D01*
Y3280D02*
X2475D01*
X2300Y3375D02*
X2475D01*
X2361Y3508D02*
Y3603D01*
X2186Y3508D02*
Y3603D01*
Y3508D02*
X2361D01*
X2186Y3603D02*
X2361D01*
X2755Y3508D02*
Y3603D01*
X2580Y3508D02*
Y3603D01*
Y3508D02*
X2755D01*
X2580Y3603D02*
X2755D01*
X2361Y3661D02*
Y3756D01*
X2186Y3661D02*
Y3756D01*
Y3661D02*
X2361D01*
X2186Y3756D02*
X2361D01*
X2755Y3661D02*
Y3756D01*
X2580Y3661D02*
Y3756D01*
Y3661D02*
X2755D01*
X2580Y3756D02*
X2755D01*
X2285Y3919D02*
Y4014D01*
X2110Y3919D02*
Y4014D01*
Y3919D02*
X2285D01*
X2110Y4014D02*
X2285D01*
X2649Y3919D02*
Y4014D01*
X2819Y3919D02*
Y4014D01*
X2649D02*
X2819D01*
X2649Y3919D02*
X2819D01*
X2285Y4072D02*
Y4167D01*
X2110Y4072D02*
Y4167D01*
Y4072D02*
X2285D01*
X2110Y4167D02*
X2285D01*
X1959Y4444D02*
X2054D01*
X1959Y4269D02*
X2054D01*
Y4444D01*
X1959Y4269D02*
Y4444D01*
X2124Y4269D02*
Y4444D01*
X2219Y4269D02*
Y4444D01*
X2124Y4269D02*
X2219D01*
X2124Y4444D02*
X2219D01*
X1857Y6038D02*
X2817D01*
X1857Y6708D02*
X2817D01*
X1857Y6038D02*
Y6708D01*
X2817Y6038D02*
Y6708D01*
X2252Y7109D02*
X2422D01*
X2252Y7014D02*
X2422D01*
X2252D02*
Y7109D01*
X2422Y7014D02*
Y7109D01*
X2649Y4072D02*
Y4167D01*
X2819Y4072D02*
Y4167D01*
X2649D02*
X2819D01*
X2649Y4072D02*
X2819D01*
X2793Y4258D02*
Y4353D01*
X2618Y4258D02*
Y4353D01*
Y4258D02*
X2793D01*
X2618Y4353D02*
X2793D01*
X3102Y4882D02*
X3197D01*
X3102Y5057D02*
X3197D01*
X3102Y4882D02*
Y5057D01*
X3197Y4882D02*
Y5057D01*
X3463Y5972D02*
Y6067D01*
X3293Y5972D02*
Y6067D01*
Y5972D02*
X3463D01*
X3293Y6067D02*
X3463D01*
X3089Y6354D02*
X3184D01*
X3089Y6524D02*
X3184D01*
X3089Y6354D02*
Y6524D01*
X3184Y6354D02*
Y6524D01*
X3699Y2371D02*
X3794D01*
X3699Y2201D02*
X3794D01*
Y2371D01*
X3699Y2201D02*
Y2371D01*
X4063Y2239D02*
Y2333D01*
X3888Y2239D02*
Y2333D01*
Y2239D02*
X4063D01*
X3888Y2333D02*
X4063D01*
X4613Y2297D02*
X4708D01*
X4613Y2122D02*
X4708D01*
Y2297D01*
X4613Y2122D02*
Y2297D01*
X5081Y2226D02*
Y2321D01*
X5256Y2226D02*
Y2321D01*
X5081D02*
X5256D01*
X5081Y2226D02*
X5256D01*
X4507Y2239D02*
Y2333D01*
X4332Y2239D02*
Y2333D01*
Y2239D02*
X4507D01*
X4332Y2333D02*
X4507D01*
X6544Y1270D02*
Y1440D01*
X6639Y1270D02*
Y1440D01*
X6544Y1270D02*
X6639D01*
X6544Y1440D02*
X6639D01*
X6144Y1998D02*
Y2168D01*
X6049Y1998D02*
Y2168D01*
X6144D01*
X6049Y1998D02*
X6144D01*
X6240Y2054D02*
X6410D01*
X6240Y1959D02*
X6410D01*
X6240D02*
Y2054D01*
X6410Y1959D02*
Y2054D01*
X6265Y2471D02*
X6435D01*
X6265Y2566D02*
X6435D01*
Y2471D02*
Y2566D01*
X6265Y2471D02*
Y2566D01*
Y2623D02*
X6435D01*
X6265Y2718D02*
X6435D01*
Y2623D02*
Y2718D01*
X6265Y2623D02*
Y2718D01*
X6900Y2372D02*
X7070D01*
X6900Y2277D02*
X7070D01*
X6900D02*
Y2372D01*
X7070Y2277D02*
Y2372D01*
X6610Y2443D02*
Y2747D01*
X6750Y2443D02*
Y2747D01*
X6610D02*
X6750D01*
X6610Y2443D02*
X6750D01*
X3254Y4882D02*
X3349D01*
X3254Y5057D02*
X3349D01*
X3254Y4882D02*
Y5057D01*
X3349Y4882D02*
Y5057D01*
X3635Y4942D02*
X3731D01*
X3635Y5117D02*
X3731D01*
X3635Y4942D02*
Y5117D01*
X3731Y4942D02*
Y5117D01*
X3890Y5114D02*
X3985D01*
X3890Y4944D02*
X3985D01*
Y5114D01*
X3890Y4944D02*
Y5114D01*
X4042D02*
X4137D01*
X4042Y4944D02*
X4137D01*
Y5114D01*
X4042Y4944D02*
Y5114D01*
X4537D02*
X4632D01*
X4537Y4944D02*
X4632D01*
Y5114D01*
X4537Y4944D02*
Y5114D01*
X4347D02*
X4442D01*
X4347Y4944D02*
X4442D01*
Y5114D01*
X4347Y4944D02*
Y5114D01*
X4690D02*
X4785D01*
X4690Y4944D02*
X4785D01*
Y5114D01*
X4690Y4944D02*
Y5114D01*
X4194Y4942D02*
X4289D01*
X4194Y5117D02*
X4289D01*
X4194Y4942D02*
Y5117D01*
X4289Y4942D02*
Y5117D01*
X4842Y4944D02*
X4937D01*
X4842Y5114D02*
X4937D01*
X4842Y4944D02*
Y5114D01*
X4937Y4944D02*
Y5114D01*
X3881Y6393D02*
Y6993D01*
X3281D02*
X3881D01*
X3281Y6393D02*
X3881D01*
X3281D02*
Y6993D01*
X3618Y5820D02*
Y5915D01*
X3443Y5820D02*
Y5915D01*
Y5820D02*
X3618D01*
X3443Y5915D02*
X3618D01*
X3768Y5972D02*
Y6067D01*
X3598Y5972D02*
Y6067D01*
Y5972D02*
X3768D01*
X3598Y6067D02*
X3768D01*
X4345Y5972D02*
Y6067D01*
X4520Y5972D02*
Y6067D01*
X4345D02*
X4520D01*
X4345Y5972D02*
X4520D01*
X4593Y6393D02*
Y6993D01*
X3993D02*
X4593D01*
X3993Y6393D02*
X4593D01*
X3993D02*
Y6993D01*
X4906Y6575D02*
X5001D01*
X4906Y6405D02*
X5001D01*
Y6575D01*
X4906Y6405D02*
Y6575D01*
X4906Y6836D02*
X5001D01*
X4906Y7007D02*
X5001D01*
X4906Y6836D02*
Y7007D01*
X5001Y6836D02*
Y7007D01*
X5508Y4093D02*
Y4188D01*
X5338Y4093D02*
Y4188D01*
Y4093D02*
X5508D01*
X5338Y4188D02*
X5508D01*
D183*
X5265Y430D02*
Y750D01*
X4765D02*
X5265D01*
X4765Y430D02*
Y750D01*
Y430D02*
X5265D01*
X2580Y3098D02*
X2830D01*
Y3418D01*
X2580D02*
X2830D01*
X2580Y3098D02*
Y3418D01*
D184*
X4813Y5499D02*
X4966D01*
X5016Y5296D02*
Y5448D01*
X4813Y5245D02*
X4966D01*
X4762Y5296D02*
Y5448D01*
X4813Y5499D02*
X4966D01*
X5016Y5296D02*
Y5448D01*
X4966Y5245D02*
X5016Y5296D01*
X4966Y5499D02*
X5017Y5448D01*
X4763Y5448D02*
X4813Y5499D01*
X4762Y5296D02*
X4813Y5245D01*
X4762Y5296D02*
Y5448D01*
X4559Y5499D02*
X4712D01*
X4762Y5296D02*
Y5448D01*
X4559Y5245D02*
X4712D01*
X4508Y5296D02*
Y5448D01*
X4559Y5499D02*
X4712D01*
X4762Y5296D02*
Y5448D01*
X4712Y5245D02*
X4762Y5296D01*
X4712Y5499D02*
X4762Y5448D01*
X4509Y5448D02*
X4559Y5499D01*
X4508Y5296D02*
X4559Y5245D01*
X4508Y5296D02*
Y5448D01*
X4305Y5499D02*
X4458D01*
X4508Y5296D02*
Y5448D01*
X4305Y5245D02*
X4458D01*
X4254Y5296D02*
Y5448D01*
X4305Y5499D02*
X4458D01*
X4508Y5296D02*
Y5448D01*
X4458Y5245D02*
X4508Y5296D01*
X4458Y5499D02*
X4508Y5448D01*
X4255Y5448D02*
X4305Y5499D01*
X4254Y5296D02*
X4305Y5245D01*
X4254Y5296D02*
Y5448D01*
M02*
