G04*
G04 #@! TF.GenerationSoftware,Altium Limited,Altium Designer,21.2.0 (30)*
G04*
G04 Layer_Color=255*
%FSLAX42Y42*%
%MOMM*%
G71*
G04*
G04 #@! TF.SameCoordinates,D999A20B-9D91-44AD-AEE9-92838A49E7E3*
G04*
G04*
G04 #@! TF.FilePolarity,Positive*
G04*
G01*
G75*
%ADD116C,1.50*%
%ADD135C,3.50*%
%ADD136C,1.20*%
%ADD137R,1.40X1.40*%
%ADD138C,1.40*%
%ADD139C,2.10*%
%ADD140R,1.50X1.50*%
%ADD141R,1.50X1.50*%
%ADD142O,1.25X1.05*%
%ADD143R,1.90X1.40*%
D116*
X403Y3233D02*
D03*
X2184Y5359D02*
D03*
X1930Y5613D02*
D03*
Y5359D02*
D03*
X1676Y5613D02*
D03*
Y5359D02*
D03*
X1422Y5613D02*
D03*
Y5359D02*
D03*
X1168Y5613D02*
D03*
Y5359D02*
D03*
X914Y5613D02*
D03*
Y5359D02*
D03*
X660Y5613D02*
D03*
Y5359D02*
D03*
X406Y5613D02*
D03*
Y5359D02*
D03*
X826Y7328D02*
D03*
X1080D02*
D03*
X1334D02*
D03*
X2210D02*
D03*
X2464D02*
D03*
X2718D02*
D03*
X3874Y5372D02*
D03*
X4128D02*
D03*
X4381D02*
D03*
X4635D02*
D03*
X3619D02*
D03*
D135*
X254Y7379D02*
D03*
X7175Y254D02*
D03*
Y7366D02*
D03*
X254Y254D02*
D03*
D136*
X6356Y6223D02*
D03*
Y5715D02*
D03*
X6801Y6223D02*
D03*
Y5715D02*
D03*
X5588Y5489D02*
D03*
Y4981D02*
D03*
D137*
X656Y1007D02*
D03*
D138*
X834Y1109D02*
D03*
X656Y1211D02*
D03*
X834Y1313D02*
D03*
X656Y1415D02*
D03*
X834Y1517D02*
D03*
X656Y1619D02*
D03*
X834Y1721D02*
D03*
X1317Y906D02*
D03*
Y1820D02*
D03*
Y2049D02*
D03*
Y677D02*
D03*
D139*
X745Y550D02*
D03*
Y2176D02*
D03*
D140*
X403Y3487D02*
D03*
D141*
X2184Y5613D02*
D03*
X572Y7328D02*
D03*
X1956D02*
D03*
X4890Y5372D02*
D03*
D142*
X6837Y1908D02*
D03*
Y1463D02*
D03*
D143*
X7137Y1285D02*
D03*
Y2085D02*
D03*
M02*
