G04*
G04 #@! TF.GenerationSoftware,Altium Limited,Altium Designer,21.2.0 (30)*
G04*
G04 Layer_Color=128*
%FSLAX42Y42*%
%MOMM*%
G71*
G04*
G04 #@! TF.SameCoordinates,2206926D-CA63-4A2E-8DE4-A6F34C4AB1E6*
G04*
G04*
G04 #@! TF.FilePolarity,Positive*
G04*
G01*
G75*
%ADD183C,0.05*%
D183*
X154Y7379D02*
X354D01*
X254Y7279D02*
Y7479D01*
X6321Y6223D02*
X6391D01*
X6356Y6188D02*
Y6258D01*
X6321Y5715D02*
X6391D01*
X6356Y5680D02*
Y5750D01*
X6766Y6223D02*
X6836D01*
X6801Y6188D02*
Y6258D01*
X6766Y5715D02*
X6836D01*
X6801Y5680D02*
Y5750D01*
X5553Y5489D02*
X5623D01*
X5588Y5454D02*
Y5524D01*
X5553Y4981D02*
X5623D01*
X5588Y4946D02*
Y5016D01*
X6764Y4753D02*
X6924D01*
X6844Y4673D02*
Y4833D01*
X6304Y4753D02*
X6484D01*
X6394Y4663D02*
Y4843D01*
X7075Y254D02*
X7275D01*
X7175Y154D02*
Y354D01*
X7075Y7366D02*
X7275D01*
X7175Y7266D02*
Y7466D01*
X154Y254D02*
X354D01*
X254Y154D02*
Y354D01*
X612Y1007D02*
X701D01*
X656Y962D02*
Y1051D01*
X790Y1109D02*
X879D01*
X834Y1064D02*
Y1153D01*
X612Y1211D02*
X701D01*
X656Y1166D02*
Y1255D01*
X790Y1313D02*
X879D01*
X834Y1268D02*
Y1357D01*
X612Y1415D02*
X701D01*
X656Y1370D02*
Y1459D01*
X790Y1517D02*
X879D01*
X834Y1472D02*
Y1561D01*
X612Y1619D02*
X701D01*
X656Y1574D02*
Y1663D01*
X790Y1721D02*
X879D01*
X834Y1676D02*
Y1765D01*
X1273Y906D02*
X1362D01*
X1317Y861D02*
Y950D01*
X1273Y1820D02*
X1362D01*
X1317Y1775D02*
Y1864D01*
X1273Y2049D02*
X1362D01*
X1317Y2004D02*
Y2093D01*
X1273Y677D02*
X1362D01*
X1317Y632D02*
Y721D01*
X237Y1998D02*
X567D01*
X402Y1833D02*
Y2163D01*
X237Y728D02*
X567D01*
X402Y563D02*
Y893D01*
X667Y550D02*
X824D01*
X745Y471D02*
Y628D01*
X667Y2176D02*
X824D01*
X745Y2097D02*
Y2254D01*
X358Y3487D02*
X448D01*
X403Y3442D02*
Y3532D01*
X358Y3233D02*
X448D01*
X403Y3188D02*
Y3278D01*
X2139Y5613D02*
X2229D01*
X2184Y5568D02*
Y5658D01*
X2139Y5359D02*
X2229D01*
X2184Y5314D02*
Y5404D01*
X1885Y5613D02*
X1975D01*
X1930Y5568D02*
Y5658D01*
X1885Y5359D02*
X1975D01*
X1930Y5314D02*
Y5404D01*
X1631Y5613D02*
X1721D01*
X1676Y5568D02*
Y5658D01*
X1631Y5359D02*
X1721D01*
X1676Y5314D02*
Y5404D01*
X1377Y5613D02*
X1467D01*
X1422Y5568D02*
Y5658D01*
X1377Y5359D02*
X1467D01*
X1422Y5314D02*
Y5404D01*
X1123Y5613D02*
X1213D01*
X1168Y5568D02*
Y5658D01*
X1123Y5359D02*
X1213D01*
X1168Y5314D02*
Y5404D01*
X869Y5613D02*
X959D01*
X914Y5568D02*
Y5658D01*
X869Y5359D02*
X959D01*
X914Y5314D02*
Y5404D01*
X615Y5613D02*
X705D01*
X660Y5568D02*
Y5658D01*
X615Y5359D02*
X705D01*
X660Y5314D02*
Y5404D01*
X361Y5613D02*
X451D01*
X406Y5568D02*
Y5658D01*
X361Y5359D02*
X451D01*
X406Y5314D02*
Y5404D01*
X526Y7328D02*
X616D01*
X572Y7283D02*
Y7373D01*
X780Y7328D02*
X870D01*
X826Y7283D02*
Y7373D01*
X1035Y7328D02*
X1124D01*
X1080Y7283D02*
Y7373D01*
X1289Y7328D02*
X1378D01*
X1334Y7283D02*
Y7373D01*
X6805Y1908D02*
X6870D01*
X6837Y1875D02*
Y1940D01*
X6805Y1463D02*
X6870D01*
X6837Y1430D02*
Y1495D01*
X7107Y1265D02*
X7167D01*
X7137Y1235D02*
Y1295D01*
X7107Y2105D02*
X7167D01*
X7137Y2075D02*
Y2135D01*
X1911Y7328D02*
X2001D01*
X1956Y7283D02*
Y7373D01*
X2165Y7328D02*
X2255D01*
X2210Y7283D02*
Y7373D01*
X2419Y7328D02*
X2509D01*
X2464Y7283D02*
Y7373D01*
X2673Y7328D02*
X2763D01*
X2718Y7283D02*
Y7373D01*
X3822Y5372D02*
X3924D01*
X3874Y5321D02*
Y5423D01*
X4076Y5372D02*
X4178D01*
X4128Y5321D02*
Y5423D01*
X4331Y5372D02*
X4433D01*
X4381Y5321D02*
Y5423D01*
X4585Y5372D02*
X4687D01*
X4635Y5321D02*
Y5423D01*
X4838Y5372D02*
X4940D01*
X4890Y5321D02*
Y5423D01*
X3569Y5372D02*
X3671D01*
X3619Y5321D02*
Y5423D01*
X3706Y4221D02*
X3736D01*
X3721Y4206D02*
Y4236D01*
X4302Y4081D02*
X4332D01*
X4317Y4066D02*
Y4096D01*
X4303Y3747D02*
X4333D01*
X4318Y3731D02*
Y3762D01*
X3668Y3404D02*
X3698D01*
X3683Y3389D02*
Y3419D01*
X6716Y1359D02*
X6746D01*
X6731Y1344D02*
Y1374D01*
X3427Y926D02*
X3457D01*
X3442Y911D02*
Y941D01*
X3427Y852D02*
X3457D01*
X3442Y837D02*
Y867D01*
X5719Y7215D02*
X5749D01*
X5734Y7200D02*
Y7230D01*
X5027Y4826D02*
X5057D01*
X5042Y4811D02*
Y4841D01*
X6703Y7366D02*
X6733D01*
X6718Y7351D02*
Y7381D01*
X3998Y1003D02*
X4028D01*
X4013Y988D02*
Y1018D01*
X3763Y1003D02*
X3793D01*
X3778Y988D02*
Y1018D01*
X4834Y1242D02*
X4864D01*
X4849Y1227D02*
Y1257D01*
X4747Y1170D02*
X4777D01*
X4762Y1155D02*
Y1185D01*
X3325Y940D02*
X3355D01*
X3340Y925D02*
Y955D01*
X3327Y831D02*
X3357D01*
X3342Y816D02*
Y846D01*
X4003Y1400D02*
X4033D01*
X4018Y1385D02*
Y1415D01*
X4468Y1105D02*
X4498D01*
X4483Y1090D02*
Y1120D01*
X4468Y991D02*
X4498D01*
X4483Y976D02*
Y1006D01*
X3763Y1399D02*
X3793D01*
X3778Y1384D02*
Y1414D01*
X3429Y1562D02*
X3459D01*
X3444Y1547D02*
Y1577D01*
X3429Y1479D02*
X3459D01*
X3444Y1464D02*
Y1494D01*
X1331Y1664D02*
X1361D01*
X1346Y1649D02*
Y1679D01*
X1014Y317D02*
X1044D01*
X1029Y303D02*
Y333D01*
X1014Y2413D02*
X1044D01*
X1029Y2398D02*
Y2428D01*
X1814Y2045D02*
X1844D01*
X1829Y2030D02*
Y2060D01*
X4963Y837D02*
X4993D01*
X4978Y822D02*
Y852D01*
X4178Y387D02*
X4208D01*
X4193Y372D02*
Y402D01*
X5369Y509D02*
X5399D01*
X5384Y494D02*
Y524D01*
X6894Y3632D02*
X6924D01*
X6909Y3617D02*
Y3647D01*
X6894Y3785D02*
X6924D01*
X6909Y3770D02*
Y3800D01*
X4487Y5889D02*
X4537D01*
X4512Y5864D02*
Y5914D01*
X3758Y2705D02*
X3788D01*
X3773Y2690D02*
Y2720D01*
X3604Y2679D02*
X3634D01*
X3619Y2664D02*
Y2694D01*
X3757Y2794D02*
X3787D01*
X3772Y2779D02*
Y2809D01*
X4735Y1943D02*
X4765D01*
X4750Y1928D02*
Y1958D01*
X4993Y1900D02*
X5023D01*
X5008Y1885D02*
Y1915D01*
X4888Y1587D02*
X4918D01*
X4903Y1572D02*
Y1602D01*
X4787Y1575D02*
X4817D01*
X4802Y1560D02*
Y1590D01*
X4989Y1588D02*
X5019D01*
X5004Y1573D02*
Y1602D01*
X3640Y3197D02*
X3670D01*
X3655Y3182D02*
Y3212D01*
X4087Y2856D02*
X4117D01*
X4102Y2841D02*
Y2871D01*
X3985Y2856D02*
X4015D01*
X4001Y2841D02*
Y2871D01*
X3157Y3296D02*
X3187D01*
X3172Y3281D02*
Y3311D01*
X3236Y3531D02*
X3266D01*
X3251Y3516D02*
Y3546D01*
X3300Y3645D02*
X3330D01*
X3315Y3630D02*
Y3660D01*
X3109Y3721D02*
X3139D01*
X3124Y3706D02*
Y3736D01*
X3185Y3886D02*
X3215D01*
X3200Y3871D02*
Y3901D01*
X3185Y3794D02*
X3215D01*
X3200Y3779D02*
Y3809D01*
X1992Y3975D02*
X2022D01*
X2007Y3960D02*
Y3990D01*
X2055Y3708D02*
X2085D01*
X2070Y3693D02*
Y3723D01*
X4760Y2870D02*
X4790D01*
X4775Y2855D02*
Y2885D01*
X4646Y2870D02*
X4676D01*
X4661Y2855D02*
Y2885D01*
X4582Y2794D02*
X4612D01*
X4597Y2779D02*
Y2809D01*
X3972Y2413D02*
X4002D01*
X3987Y2398D02*
Y2428D01*
X4481Y2400D02*
X4511D01*
X4496Y2385D02*
Y2415D01*
X4646Y2400D02*
X4676D01*
X4661Y2385D02*
Y2415D01*
X4709Y2045D02*
X4739D01*
X4724Y2030D02*
Y2060D01*
X3173Y2908D02*
X3203D01*
X3188Y2893D02*
Y2923D01*
X3325Y2680D02*
X3355D01*
X3340Y2665D02*
Y2695D01*
X3389Y2743D02*
X3419D01*
X3404Y2728D02*
Y2758D01*
X4512Y2690D02*
X4542D01*
X4527Y2675D02*
Y2705D01*
X3162Y4294D02*
X3192D01*
X3177Y4279D02*
Y4310D01*
X2690Y4559D02*
X2720D01*
X2705Y4544D02*
Y4574D01*
X3925Y4550D02*
X3955D01*
X3940Y4535D02*
Y4565D01*
X2855Y4407D02*
X2885D01*
X2870Y4392D02*
Y4422D01*
X3858Y4001D02*
X3888D01*
X3874Y3985D02*
Y4015D01*
X5001Y3200D02*
X5031D01*
X5017Y3185D02*
Y3215D01*
X4392Y4547D02*
X4422D01*
X4407Y4532D02*
Y4562D01*
X5001Y3289D02*
X5031D01*
X5017Y3274D02*
Y3304D01*
X4915Y4321D02*
X4965D01*
X4940Y4296D02*
Y4346D01*
X4352Y2680D02*
X4382D01*
X4367Y2665D02*
Y2695D01*
X3109Y4737D02*
X3139D01*
X3124Y4722D02*
Y4752D01*
X3142Y4401D02*
X3172D01*
X3157Y4386D02*
Y4416D01*
X3503Y4204D02*
X3533D01*
X3518Y4189D02*
Y4219D01*
X4979Y3975D02*
X5029D01*
X5004Y3950D02*
Y4000D01*
X5332Y2794D02*
X5362D01*
X5347Y2779D02*
Y2809D01*
X4737Y4510D02*
X4767D01*
X4752Y4495D02*
Y4525D01*
X4925Y4420D02*
X4955D01*
X4940Y4405D02*
Y4435D01*
X3782Y4559D02*
X3812D01*
X3797Y4544D02*
Y4574D01*
X3211Y2413D02*
X3241D01*
X3226Y2398D02*
Y2428D01*
X4915Y4218D02*
X4965D01*
X4940Y4193D02*
Y4243D01*
X3554Y4839D02*
X3584D01*
X3569Y4824D02*
Y4854D01*
X3312Y2413D02*
X3342D01*
X3327Y2398D02*
Y2428D01*
X5306Y3823D02*
X5336D01*
X5321Y3808D02*
Y3838D01*
X4976Y3823D02*
X5006D01*
X4991Y3808D02*
Y3838D01*
X5474Y3658D02*
X5524D01*
X5499Y3633D02*
Y3683D01*
X5315Y4251D02*
X5345D01*
X5330Y4236D02*
Y4266D01*
X5128Y4610D02*
X5158D01*
X5144Y4595D02*
Y4625D01*
X4430Y2743D02*
X4460D01*
X4445Y2728D02*
Y2758D01*
X5474Y3772D02*
X5524D01*
X5499Y3747D02*
Y3797D01*
X4585Y4511D02*
X4615D01*
X4600Y4496D02*
Y4526D01*
X3503Y2756D02*
X3533D01*
X3518Y2741D02*
Y2771D01*
X3572Y2343D02*
X3602D01*
X3587Y2328D02*
Y2358D01*
X5021Y2547D02*
X5051D01*
X5036Y2532D02*
Y2562D01*
X3655Y4470D02*
X3685D01*
X3670Y4455D02*
Y4485D01*
X3490Y4513D02*
X3520D01*
X3505Y4498D02*
Y4528D01*
X3109Y4648D02*
X3139D01*
X3124Y4633D02*
Y4663D01*
X4874Y4839D02*
X4904D01*
X4890Y4824D02*
Y4854D01*
X4143Y2050D02*
X4173D01*
X4158Y2035D02*
Y2065D01*
X4338Y2405D02*
X4368D01*
X4353Y2390D02*
Y2420D01*
X5497Y1308D02*
X5527D01*
X5512Y1293D02*
Y1323D01*
X3274Y5156D02*
X3304D01*
X3289Y5141D02*
Y5171D01*
X3668Y4839D02*
X3698D01*
X3683Y4824D02*
Y4854D01*
X1522Y3607D02*
X1552D01*
X1537Y3592D02*
Y3622D01*
X1306Y3238D02*
X1336D01*
X1321Y3224D02*
Y3253D01*
X1496Y3302D02*
X1526D01*
X1511Y3287D02*
Y3317D01*
X4345Y756D02*
X4375D01*
X4360Y741D02*
Y771D01*
X5117Y1040D02*
X5150D01*
X5133Y1024D02*
Y1057D01*
X5117Y1160D02*
X5150D01*
X5133Y1144D02*
Y1177D01*
X950Y4712D02*
X980D01*
X965Y4697D02*
Y4727D01*
X1992Y4102D02*
X2022D01*
X2007Y4087D02*
Y4117D01*
X1306Y6134D02*
X1336D01*
X1321Y6119D02*
Y6149D01*
X2931Y4623D02*
X2961D01*
X2946Y4608D02*
Y4638D01*
X2550Y4381D02*
X2580D01*
X2565Y4367D02*
Y4397D01*
X2270Y4431D02*
X2300D01*
X2285Y4416D02*
Y4446D01*
X1801Y4496D02*
X1831D01*
X1816Y4481D02*
Y4511D01*
X6617Y3937D02*
X6667D01*
X6642Y3912D02*
Y3962D01*
X5619Y4145D02*
X5669D01*
X5644Y4120D02*
Y4170D01*
X5776Y4394D02*
X5806D01*
X5791Y4379D02*
Y4409D01*
X6999Y4407D02*
X7099D01*
X7049Y4357D02*
Y4457D01*
X6795Y5055D02*
X6895D01*
X6845Y5005D02*
Y5105D01*
X6186Y5067D02*
X6286D01*
X6236Y5017D02*
Y5117D01*
X5700Y6756D02*
X5730D01*
X5715Y6741D02*
Y6771D01*
X5319Y6604D02*
X5349D01*
X5334Y6589D02*
Y6619D01*
X5319Y6756D02*
X5349D01*
X5334Y6741D02*
Y6771D01*
X5332Y6439D02*
X5362D01*
X5347Y6424D02*
Y6454D01*
X5497Y6909D02*
X5527D01*
X5512Y6894D02*
Y6924D01*
X5700Y6604D02*
X5730D01*
X5715Y6589D02*
Y6619D01*
X6081Y6604D02*
X6111D01*
X6096Y6589D02*
Y6619D01*
X6081Y6756D02*
X6111D01*
X6096Y6741D02*
Y6771D01*
X6198Y6782D02*
X6248D01*
X6223Y6757D02*
Y6807D01*
X7046Y7074D02*
X7076D01*
X7061Y7059D02*
Y7089D01*
X1712Y4420D02*
X1742D01*
X1727Y4405D02*
Y4435D01*
X1560Y4204D02*
X1590D01*
X1575Y4189D02*
Y4219D01*
X1700Y4204D02*
X1730D01*
X1715Y4189D02*
Y4219D01*
X1738Y4736D02*
X1768D01*
X1753Y4721D02*
Y4751D01*
X1826Y4851D02*
X1857D01*
X1842Y4836D02*
Y4866D01*
X1776Y5029D02*
X1806D01*
X1791Y5014D02*
Y5044D01*
X4836Y1334D02*
X4866D01*
X4851Y1319D02*
Y1348D01*
X5489Y1164D02*
X5519D01*
X5504Y1149D02*
Y1179D01*
X2576Y4648D02*
X2606D01*
X2591Y4633D02*
Y4663D01*
X2163Y4769D02*
X2193D01*
X2178Y4754D02*
Y4784D01*
X2258Y4725D02*
X2288D01*
X2273Y4710D02*
Y4740D01*
X3414Y4890D02*
X3444D01*
X3429Y4874D02*
Y4904D01*
X5792Y610D02*
X5822D01*
X5807Y595D02*
Y625D01*
X4532Y927D02*
X4562D01*
X4547Y912D02*
Y942D01*
X4532Y1168D02*
X4562D01*
X4547Y1153D02*
Y1183D01*
X5751Y1499D02*
X5781D01*
X5766Y1484D02*
Y1514D01*
X4811Y775D02*
X4841D01*
X4826Y760D02*
Y790D01*
X5588Y1562D02*
X5638D01*
X5613Y1537D02*
Y1587D01*
X6068Y1562D02*
X6098D01*
X6083Y1547D02*
Y1577D01*
X3880Y2409D02*
X3910D01*
X3895Y2394D02*
Y2424D01*
X5573Y1740D02*
X5603D01*
X5588Y1725D02*
Y1755D01*
X5876Y1335D02*
X5906D01*
X5891Y1320D02*
Y1350D01*
X5497Y952D02*
X5527D01*
X5512Y938D02*
Y968D01*
X4773Y965D02*
X4803D01*
X4788Y950D02*
Y980D01*
X4659Y1168D02*
X4689D01*
X4674Y1153D02*
Y1183D01*
X3884Y1194D02*
X3914D01*
X3899Y1179D02*
Y1209D01*
X789Y4873D02*
X819D01*
X804Y4858D02*
Y4888D01*
X810Y4483D02*
X840D01*
X826Y4468D02*
Y4498D01*
X658Y4483D02*
X688D01*
X673Y4468D02*
Y4498D01*
X1077Y4394D02*
X1107D01*
X1092Y4379D02*
Y4409D01*
X4924Y4115D02*
X4954D01*
X4939Y4100D02*
Y4130D01*
X6983Y1638D02*
X7013D01*
X6998Y1623D02*
Y1653D01*
X6983Y1740D02*
X7013D01*
X6998Y1725D02*
Y1755D01*
X4341Y6134D02*
X4371D01*
X4356Y6119D02*
Y6149D01*
X6653Y1156D02*
X6682D01*
X6668Y1141D02*
Y1171D01*
X2855Y4229D02*
X2885D01*
X2870Y4214D02*
Y4244D01*
X6132Y2515D02*
X6162D01*
X6147Y2500D02*
Y2530D01*
X6388Y2142D02*
X6418D01*
X6403Y2127D02*
Y2157D01*
X6492Y1944D02*
X6522D01*
X6507Y1929D02*
Y1959D01*
X6068Y1791D02*
X6098D01*
X6083Y1776D02*
Y1806D01*
X6170Y1624D02*
X6200D01*
X6185Y1609D02*
Y1639D01*
X3224Y4559D02*
X3253D01*
X3238Y4544D02*
Y4574D01*
X745Y6141D02*
X775D01*
X760Y6126D02*
Y6156D01*
X999Y6141D02*
X1029D01*
X1014Y6126D02*
Y6156D01*
X2449Y6096D02*
X2479D01*
X2464Y6081D02*
Y6111D01*
X2195Y6096D02*
X2225D01*
X2210Y6081D02*
Y6111D01*
X4836Y6756D02*
X4866D01*
X4851Y6741D02*
Y6771D01*
X4836Y6655D02*
X4866D01*
X4851Y6640D02*
Y6670D01*
X4570Y4839D02*
X4600D01*
X4585Y4824D02*
Y4854D01*
X788Y4128D02*
X838D01*
X813Y4103D02*
Y4153D01*
X2157Y4902D02*
X2187D01*
X2172Y4887D02*
Y4917D01*
X4506Y6934D02*
X4536D01*
X4521Y6919D02*
Y6949D01*
X1149Y4288D02*
X1179D01*
X1164Y4273D02*
Y4303D01*
X1282Y4253D02*
X1312D01*
X1297Y4238D02*
Y4268D01*
X1881Y4427D02*
X1911D01*
X1896Y4412D02*
Y4442D01*
X1877Y4280D02*
X1907D01*
X1892Y4265D02*
Y4295D01*
X1217Y4381D02*
X1247D01*
X1232Y4367D02*
Y4397D01*
X2576Y4765D02*
X2606D01*
X2591Y4749D02*
Y4779D01*
X2576Y4896D02*
X2606D01*
X2591Y4881D02*
Y4911D01*
X1458Y4089D02*
X1488D01*
X1473Y4074D02*
Y4104D01*
X1344Y4178D02*
X1374D01*
X1359Y4163D02*
Y4193D01*
X2426Y2767D02*
X2476D01*
X2451Y2742D02*
Y2792D01*
X5350Y1765D02*
X5380D01*
X5365Y1750D02*
Y1780D01*
X2528Y2946D02*
X2578D01*
X2553Y2921D02*
Y2971D01*
X2792Y923D02*
X2822D01*
X2807Y908D02*
Y938D01*
X3594Y354D02*
X3624D01*
X3609Y339D02*
Y369D01*
X2881Y826D02*
X2911D01*
X2896Y810D02*
Y840D01*
X1745Y1842D02*
X1795D01*
X1770Y1817D02*
Y1867D01*
X2449Y3632D02*
X2479D01*
X2464Y3617D02*
Y3647D01*
X2461Y3531D02*
X2492D01*
X2476Y3516D02*
Y3546D01*
X5230Y2400D02*
X5260D01*
X5245Y2385D02*
Y2415D01*
X5078Y2400D02*
X5108D01*
X5093Y2385D02*
Y2415D01*
X2712Y6108D02*
X2742D01*
X2727Y6093D02*
Y6123D01*
X4074Y4839D02*
X4104D01*
X4089Y4824D02*
Y4854D01*
X3748Y5909D02*
X3778D01*
X3763Y5894D02*
Y5924D01*
X3135Y5156D02*
X3165D01*
X3150Y5141D02*
Y5171D01*
X2744Y5156D02*
X2794D01*
X2769Y5131D02*
Y5181D01*
X1941Y6096D02*
X1971D01*
X1956Y6081D02*
Y6111D01*
X3668Y5220D02*
X3698D01*
X3683Y5205D02*
Y5235D01*
X3109Y6172D02*
X3139D01*
X3124Y6157D02*
Y6187D01*
X2969Y4890D02*
X3000D01*
X2984Y4874D02*
Y4904D01*
X2267Y4276D02*
X2297D01*
X2282Y4261D02*
Y4291D01*
X1323Y4767D02*
X1394D01*
X1358Y4731D02*
Y4802D01*
X1450Y4907D02*
X1521D01*
X1485Y4871D02*
Y4942D01*
X1450Y4653D02*
X1521D01*
X1485Y4617D02*
Y4688D01*
X1196Y4907D02*
X1267D01*
X1231Y4871D02*
Y4942D01*
X1196Y4653D02*
X1267D01*
X1231Y4617D02*
Y4688D01*
X950Y4585D02*
X980D01*
X965Y4570D02*
Y4600D01*
X2157Y5029D02*
X2187D01*
X2172Y5014D02*
Y5044D01*
X6170Y1727D02*
X6200D01*
X6185Y1712D02*
Y1742D01*
X5867Y1187D02*
X5897D01*
X5882Y1172D02*
Y1202D01*
X3439Y2286D02*
X3469D01*
X3454Y2271D02*
Y2301D01*
X966Y3835D02*
X1016D01*
X991Y3810D02*
Y3860D01*
X6253Y1339D02*
X6283D01*
X6268Y1324D02*
Y1354D01*
X3327Y1568D02*
X3357D01*
X3342Y1553D02*
Y1583D01*
X6264Y882D02*
X6294D01*
X6279Y867D02*
Y897D01*
X6272Y1041D02*
X6301D01*
X6287Y1026D02*
Y1056D01*
X518Y3645D02*
X548D01*
X533Y3630D02*
Y3660D01*
X4293Y2004D02*
X4323D01*
X4308Y1989D02*
Y2019D01*
X4227Y4839D02*
X4257D01*
X4242Y4824D02*
Y4854D01*
X4379Y4839D02*
X4409D01*
X4394Y4824D02*
Y4854D01*
X4722Y4839D02*
X4752D01*
X4737Y4824D02*
Y4854D01*
X5903Y2007D02*
X5933D01*
X5918Y1992D02*
Y2022D01*
X6272Y1549D02*
X6301D01*
X6287Y1534D02*
Y1564D01*
X5510Y381D02*
X5540D01*
X5524Y366D02*
Y396D01*
X6711Y1620D02*
X6741D01*
X6726Y1605D02*
Y1635D01*
X6399Y1397D02*
X6429D01*
X6414Y1382D02*
Y1412D01*
X6565Y2373D02*
X6595D01*
X6580Y2358D02*
Y2388D01*
X6259Y1181D02*
X6289D01*
X6274Y1166D02*
Y1196D01*
X6208Y3785D02*
X6238D01*
X6223Y3770D02*
Y3800D01*
X6208Y3632D02*
X6238D01*
X6223Y3617D02*
Y3647D01*
X3630Y470D02*
X3660D01*
X3645Y455D02*
Y485D01*
X4862Y2210D02*
X4892D01*
X4877Y2195D02*
Y2225D01*
X3058Y2286D02*
X3088D01*
X3073Y2271D02*
Y2301D01*
X4951Y76D02*
X4981D01*
X4966Y61D02*
Y91D01*
X5103Y76D02*
X5133D01*
X5118Y61D02*
Y91D01*
X4798Y76D02*
X4828D01*
X4813Y61D02*
Y91D01*
X5268Y76D02*
X5298D01*
X5283Y61D02*
Y91D01*
X493Y1168D02*
X523D01*
X508Y1153D02*
Y1183D01*
X493Y1067D02*
X523D01*
X508Y1052D02*
Y1082D01*
X493Y1575D02*
X523D01*
X508Y1560D02*
Y1590D01*
X493Y1473D02*
X523D01*
X508Y1458D02*
Y1488D01*
X2792Y840D02*
X2822D01*
X2807Y825D02*
Y855D01*
X1841Y907D02*
X1871D01*
X1856Y892D02*
Y922D01*
X1854Y666D02*
X1884D01*
X1869Y651D02*
Y681D01*
X2881Y940D02*
X2911D01*
X2896Y925D02*
Y955D01*
X2883Y1466D02*
X2913D01*
X2898Y1451D02*
Y1481D01*
X2883Y1568D02*
X2913D01*
X2898Y1553D02*
Y1583D01*
X2794Y1558D02*
X2824D01*
X2809Y1543D02*
Y1573D01*
X2794Y1475D02*
X2824D01*
X2809Y1460D02*
Y1490D01*
X2462Y3733D02*
X2492D01*
X2477Y3718D02*
Y3748D01*
X2338Y3446D02*
X2368D01*
X2353Y3431D02*
Y3460D01*
X2178Y3446D02*
X2208D01*
X2193Y3431D02*
Y3460D01*
X2842Y3556D02*
X2873D01*
X2858Y3541D02*
Y3571D01*
X2842Y3708D02*
X2873D01*
X2858Y3693D02*
Y3723D01*
X3287Y5906D02*
X3317D01*
X3302Y5890D02*
Y5921D01*
X544Y6096D02*
X574D01*
X559Y6081D02*
Y6111D01*
X3258Y6519D02*
X3288D01*
X3273Y6504D02*
Y6534D01*
X4053Y6938D02*
X4083D01*
X4068Y6923D02*
Y6953D01*
X3791Y6938D02*
X3821D01*
X3806Y6923D02*
Y6953D01*
X4053Y6455D02*
X4083D01*
X4068Y6440D02*
Y6470D01*
X3791Y6461D02*
X3821D01*
X3806Y6446D02*
Y6476D01*
X3327Y1466D02*
X3357D01*
X3342Y1451D02*
Y1481D01*
X4341Y601D02*
X4371D01*
X4356Y586D02*
Y616D01*
X5876Y1030D02*
X5906D01*
X5891Y1015D02*
Y1045D01*
X3731Y2083D02*
X3762D01*
X3747Y2068D02*
Y2098D01*
X2182Y3175D02*
X2212D01*
X2197Y3160D02*
Y3190D01*
X4227Y5220D02*
X4257D01*
X4242Y5205D02*
Y5235D01*
X2182Y3327D02*
X2212D01*
X2197Y3312D02*
Y3342D01*
X6386Y2807D02*
X6416D01*
X6401Y2792D02*
Y2822D01*
X6386Y3035D02*
X6416D01*
X6401Y3020D02*
Y3050D01*
X6208Y2159D02*
X6238D01*
X6223Y2144D02*
Y2174D01*
X6779Y2324D02*
X6810D01*
X6794Y2309D02*
Y2339D01*
X5995Y3442D02*
X6045D01*
X6020Y3417D02*
Y3467D01*
X5995Y3200D02*
X6045D01*
X6020Y3175D02*
Y3225D01*
X7074Y3200D02*
X7124D01*
X7099Y3175D02*
Y3225D01*
X7074Y3429D02*
X7124D01*
X7099Y3404D02*
Y3454D01*
X5116Y6706D02*
X5146D01*
X5131Y6691D02*
Y6721D01*
X518Y3073D02*
X548D01*
X533Y3058D02*
Y3088D01*
X442Y3937D02*
X472D01*
X457Y3922D02*
Y3952D01*
X1649Y3302D02*
X1679D01*
X1664Y3287D02*
Y3317D01*
X966Y3467D02*
X1016D01*
X991Y3442D02*
Y3492D01*
X506Y4483D02*
X536D01*
X521Y4468D02*
Y4498D01*
X658Y4877D02*
X688D01*
X673Y4862D02*
Y4892D01*
X506Y4877D02*
X536D01*
X521Y4862D02*
Y4892D01*
M02*
